<svg xmlns="http://www.w3.org/2000/svg" width="600" height="400" viewBox="0 0 600 400"><rect width="100%" height="100%" fill="#006400"/><path fill="#FFFFFF" d="M137.005 150h3.23v23.14h-4.32v-14.5q0-.81.04-1.71.04-.89.19-1.9-.32.89-.7 1.65-.37.76-.73 1.34l-8.84 13.79q-.15.24-.35.48t-.44.43q-.24.18-.53.3-.28.12-.59.12h-3.23V150h4.32v14.5q0 .82-.04 1.72t-.18 1.91q.32-.89.69-1.66.38-.77.75-1.35l8.83-13.79q.14-.24.34-.48t.44-.42q.24-.19.52-.31t.6-.12m18.11 6.72h3.96v16.42h-3.96v-7.26h-6.4v7.26h-3.95v-16.42h3.95v6.23h6.4zm19.35 2.69v11.03q2.38-.18 3.69-1.6 1.3-1.43 1.3-3.91t-1.3-3.91q-1.31-1.43-3.69-1.61m-3.46 11.03v-11.03q-1.18.1-2.1.51-.92.4-1.57 1.11-.65.7-.98 1.69-.34.98-.34 2.21t.34 2.22q.33.98.98 1.68.65.69 1.57 1.1t2.1.51m3.59-20.44v6.48q1.96.12 3.59.75 1.62.63 2.78 1.72t1.8 2.59.64 3.36q0 1.87-.64 3.38-.64 1.52-1.8 2.6-1.16 1.09-2.78 1.73-1.63.64-3.59.75v5.28h-3.72v-5.28q-1.96-.11-3.59-.75-1.62-.64-2.78-1.73-1.16-1.08-1.8-2.6-.64-1.51-.64-3.38 0-1.86.64-3.36t1.8-2.59 2.78-1.72q1.63-.63 3.59-.75V150zm19.05 6.47q1.83 0 3.32.59 1.5.59 2.56 1.68 1.07 1.09 1.64 2.66.58 1.56.58 3.5 0 1.95-.58 3.52-.57 1.57-1.64 2.67-1.06 1.11-2.56 1.7-1.49.59-3.32.59-1.84 0-3.34-.59-1.51-.59-2.57-1.7-1.06-1.1-1.65-2.67-.58-1.57-.58-3.52 0-1.94.58-3.5.59-1.57 1.65-2.66t2.57-1.68q1.5-.59 3.34-.59m0 13.87q2.05 0 3.03-1.38.99-1.37.99-4.03 0-2.65-.99-4.05-.98-1.39-3.03-1.39-2.08 0-3.08 1.4t-1 4.04 1 4.03q1 1.38 3.08 1.38m15.07-8.82v7.36q.68.82 1.47 1.16.79.33 1.72.33.89 0 1.61-.33.72-.34 1.23-1.03.5-.69.77-1.73.28-1.05.28-2.48 0-1.44-.24-2.44-.23-1-.66-1.62t-1.05-.91q-.61-.29-1.4-.29-1.23 0-2.09.52-.87.52-1.64 1.46m-.52-4.08.32 1.52q1-1.13 2.28-1.84 1.28-.7 3.01-.7 1.35 0 2.46.56t1.92 1.62q.81 1.07 1.25 2.63t.44 3.57q0 1.84-.5 3.41t-1.42 2.72-2.22 1.8-2.92.65q-1.38 0-2.35-.42-.98-.43-1.75-1.18v6.72h-3.95v-21.78h2.42q.77 0 1.01.72m30.49-.75h3.27v16.45h-3.57v-9.15q0-.56.05-1.27.06-.7.19-1.31l-4.83 8.87q-.36.68-1.12.68h-.42q-.77 0-1.12-.68l-4.9-8.92q.12.61.19 1.33t.07 1.3v9.15h-3.57v-16.45h3.27q.41 0 .82.18.41.17.68.7l3.87 6.91q.26.48.48 1.02.23.54.42 1.08.19-.54.41-1.09.21-.54.47-1.01l3.84-6.91q.29-.54.69-.71t.81-.17m15.84 12.21v-2.77q-1.71.08-2.88.3-1.17.21-1.87.55t-1.01.78q-.3.45-.3.98 0 1.04.61 1.49.62.45 1.61.45 1.22 0 2.11-.44.88-.44 1.73-1.34m-8.35-8.62-.7-1.27q2.83-2.59 6.81-2.59 1.44 0 2.58.47 1.13.47 1.92 1.31.78.84 1.19 2.01t.41 2.56v10.37h-1.79q-.56 0-.87-.17-.3-.17-.48-.68l-.35-1.18q-.62.56-1.22.98-.59.43-1.23.71-.64.29-1.37.44-.72.16-1.6.16-1.04 0-1.92-.28t-1.52-.84-1-1.4q-.35-.83-.35-1.93 0-.63.21-1.24.21-.62.68-1.18t1.22-1.05q.76-.5 1.85-.87 1.1-.37 2.55-.6 1.46-.23 3.33-.28v-.96q0-1.65-.7-2.44-.71-.79-2.03-.79-.96 0-1.6.22-.63.23-1.11.51t-.87.5q-.39.23-.87.23-.42 0-.71-.22-.28-.22-.46-.5m30-3.56v2.93h-5.86v13.49h-3.95v-13.49h-5.84v-2.93zm14.69 0h2.4v16.42h-3.95v-9.58q0-.37.04-.81t.1-.89q-.32.74-.7 1.3-.04.03-.32.44-.29.4-.75 1.04-.45.64-1.03 1.45t-1.17 1.64q-1.39 1.97-3.15 4.45-.22.34-.58.66t-.83.32h-2.41v-16.42h3.95v9.58q0 .37-.04.81t-.11.89q.36-.78.71-1.3.01-.03.3-.43t.75-1.04q.45-.64 1.03-1.45.57-.8 1.17-1.65 1.39-1.97 3.16-4.45.23-.35.6-.66.36-.32.83-.32m13.31 5.76 2.8-4.72q.29-.46.78-.75.5-.29 1.06-.29h3.1l-3.82 6.1q-.4.64-.82 1.03-.41.39-1 .62.8.24 1.31.71t.93 1.19l3.84 6.77h-2.74q-1.04 0-1.62-.35-.57-.35-.97-1.01l-2.42-4.54q-.32-.6-.82-.88-.51-.29-1.18-.29h-1.49v7.07h-3.95v-16.42h3.95v6.77h1.28q.68 0 1.08-.25.41-.24.7-.76m19.04 6.42v-2.77q-1.71.08-2.88.3-1.17.21-1.87.55-.71.34-1.01.78-.3.45-.3.98 0 1.04.61 1.49.62.45 1.61.45 1.22 0 2.1-.44.89-.44 1.74-1.34m-8.35-8.62-.71-1.27q2.84-2.59 6.82-2.59 1.44 0 2.58.47 1.13.47 1.92 1.31.78.84 1.19 2.01t.41 2.56v10.37h-1.8q-.56 0-.86-.17t-.48-.68l-.35-1.18q-.63.56-1.22.98-.59.43-1.23.71-.64.29-1.37.44-.73.16-1.61.16-1.04 0-1.92-.28t-1.52-.84-.99-1.4q-.35-.83-.35-1.93 0-.63.21-1.24.21-.62.68-1.18t1.22-1.05q.75-.5 1.85-.87t2.55-.6q1.46-.23 3.33-.28v-.96q0-1.65-.7-2.44-.71-.79-2.04-.79-.96 0-1.59.22-.63.23-1.11.51t-.87.5q-.39.23-.87.23-.42 0-.71-.22t-.46-.5m27.45 10.16h2.95q1.25 0 1.97-.61.73-.61.73-1.67 0-.44-.12-.84-.12-.39-.42-.68-.31-.28-.83-.44t-1.32-.16h-2.96zm2.6-11.14h-2.6v4.3h2.6q.57 0 1.05-.16.48-.17.83-.48.36-.32.55-.74t.19-.94q0-.36-.13-.72t-.43-.64-.81-.45q-.5-.17-1.25-.17m-6.36-2.58h6.47q1.55 0 2.68.31 1.13.3 1.86.83.74.53 1.09 1.26.35.72.35 1.57 0 .53-.13 1.1-.14.57-.48 1.09-.35.53-.94.96-.59.44-1.5.68.81.17 1.48.48.68.32 1.16.79t.74 1.1.26 1.42q0 1.25-.52 2.16t-1.39 1.5-2.01.88q-1.15.29-2.4.29h-6.72zm31.57 13.78q2.05 0 3.06-1.31t1.01-3.84q0-2.51-.99-3.83-.98-1.31-3-1.31-2.01 0-3.07 1.24t-1.06 3.71q0 2.6 1 3.97t3.05 1.37m5.76-17.06-4.61.31q-1.5.09-2.56.58-1.07.49-1.76 1.31-.7.83-1.06 1.97-.36 1.15-.42 2.54.4-.63.98-1.15t1.31-.89q.73-.38 1.59-.59.85-.2 1.83-.2 1.63 0 2.94.57 1.31.58 2.23 1.63.92 1.06 1.41 2.54t.49 3.27q0 1.86-.58 3.35-.59 1.48-1.65 2.53-1.07 1.05-2.57 1.61t-3.33.56q-1.77 0-3.27-.58-1.5-.57-2.58-1.87-1.09-1.29-1.7-3.37-.61-2.07-.61-5.06 0-2.51.47-4.67.46-2.16 1.52-3.79 1.05-1.62 2.76-2.61 1.72-.99 4.23-1.19l5.84-.44.21 2.04q.06.66-.2 1.12-.25.45-.91.48m17.79 3.28h2.4v16.42h-3.95v-9.58q0-.37.04-.81t.11-.89q-.32.74-.71 1.3-.03.03-.32.44-.29.4-.74 1.04-.46.64-1.03 1.45-.58.81-1.17 1.64-1.39 1.97-3.15 4.45-.23.34-.59.66t-.82.32h-2.42v-16.42h3.95v9.58q0 .37-.04.81t-.1.89q.35-.78.7-1.3.02-.03.31-.43t.74-1.04q.46-.64 1.03-1.45.58-.8 1.17-1.65 1.39-1.97 3.17-4.45.22-.35.59-.66.37-.32.83-.32m6.24 3.3-.89-1.52q.93-.9 2.3-1.46 1.38-.57 3.3-.57 1.52 0 2.7.36 1.19.36 1.99.97.81.62 1.24 1.41.42.79.42 1.66 0 .46-.14.97-.13.5-.44.98-.32.48-.83.89t-1.26.69q1.34.52 2.17 1.51.82.99.82 2.45 0 1.2-.55 2.12-.55.93-1.47 1.58-.91.65-2.08.98-1.18.34-2.43.34-.7 0-1.51-.13t-1.62-.44q-.82-.31-1.6-.83-.79-.52-1.43-1.29l1.14-1.44q.24-.37.72-.37.37 0 .7.24.34.23.78.51t1.05.51q.6.23 1.52.23 1.48 0 2.25-.67t.77-1.68q0-.99-.79-1.55t-2.57-.56h-1.86v-2.58h1.86q1.55 0 2.38-.54.84-.55.84-1.44 0-.82-.73-1.35-.73-.52-2.15-.52-.85 0-1.44.17-.6.18-1.02.38t-.71.37q-.29.18-.55.18-.27 0-.46-.1-.19-.11-.42-.46m24.84-3.3h3.95v16.42h-3.95v-7.26h-6.4v7.26h-3.96v-16.42h3.96v6.23h6.4zm10.99 6.32h7.45q0-.76-.21-1.44-.22-.68-.65-1.2-.43-.51-1.1-.8-.66-.3-1.54-.3-1.71 0-2.7.98-.98.97-1.25 2.76m10.08 2.39h-10.16q.09 1.26.45 2.18.35.92.92 1.52.58.6 1.37.9.79.29 1.75.29t1.66-.22 1.22-.5q.52-.27.91-.49.39-.23.76-.23.49 0 .73.37l1.14 1.44q-.66.77-1.47 1.29-.82.52-1.71.83-.88.31-1.8.44t-1.79.13q-1.71 0-3.18-.57t-2.56-1.68-1.71-2.75q-.63-1.64-.63-3.8 0-1.68.55-3.16.54-1.48 1.56-2.58 1.01-1.09 2.48-1.73 1.46-.64 3.3-.64 1.55 0 2.86.49 1.32.5 2.26 1.45t1.48 2.34q.54 1.38.54 3.16 0 .89-.2 1.21-.19.31-.73.31m16.69-6.67-1.04 1.44q-.18.22-.35.35t-.49.13q-.3 0-.59-.19-.29-.18-.69-.41-.4-.24-.95-.42t-1.37-.18q-1.04 0-1.82.37-.78.38-1.3 1.08-.52.71-.78 1.71t-.26 2.26q0 1.31.28 2.34.28 1.02.81 1.72.53.69 1.28 1.05t1.7.36q.94 0 1.53-.23.58-.23.98-.51t.7-.51q.29-.24.66-.24.48 0 .72.37l1.14 1.44q-.66.77-1.43 1.29t-1.59.83-1.7.44q-.87.13-1.73.13-1.52 0-2.87-.57-1.34-.57-2.35-1.65-1.01-1.09-1.59-2.67-.58-1.57-.58-3.59 0-1.81.52-3.35.52-1.55 1.52-2.67 1.01-1.13 2.5-1.77t3.42-.64q1.84 0 3.23.59 1.38.59 2.49 1.7m5.74 4.28h7.46q0-.76-.22-1.44t-.65-1.2q-.43-.51-1.09-.8-.67-.3-1.55-.3-1.71 0-2.69.98-.99.97-1.26 2.76m10.08 2.39h-10.16q.1 1.26.45 2.18t.93 1.52q.57.6 1.36.9.8.29 1.76.29t1.65-.22q.7-.22 1.22-.5.52-.27.91-.49.39-.23.76-.23.5 0 .74.37l1.13 1.44q-.65.77-1.47 1.29t-1.7.83q-.89.31-1.81.44t-1.79.13q-1.71 0-3.18-.57t-2.56-1.68-1.71-2.75q-.63-1.64-.63-3.8 0-1.68.55-3.16.54-1.48 1.56-2.58 1.01-1.09 2.48-1.73 1.46-.64 3.3-.64 1.55 0 2.87.49 1.31.5 2.25 1.45.95.95 1.48 2.34.54 1.38.54 3.16 0 .89-.19 1.21-.2.31-.74.31m-250.48 22.97h4.32v23.14h-4.32v-10.11h-10.86v10.11h-4.32V188.4h4.32v9.96h10.86zm11.97 13.04h7.45q0-.76-.21-1.44-.22-.68-.65-1.2-.43-.51-1.1-.8-.66-.3-1.54-.3-1.71 0-2.7.98-.98.97-1.25 2.76m10.08 2.39h-10.16q.09 1.26.45 2.18.35.92.92 1.52.58.6 1.37.9.79.29 1.75.29t1.66-.22 1.22-.5q.52-.27.91-.49.39-.23.76-.23.49 0 .73.37l1.14 1.44q-.66.77-1.47 1.29-.82.52-1.71.83-.88.31-1.8.44t-1.79.13q-1.71 0-3.18-.57t-2.56-1.68-1.71-2.75q-.63-1.64-.63-3.8 0-1.68.55-3.16.54-1.48 1.56-2.58 1.01-1.09 2.48-1.73 1.46-.64 3.3-.64 1.55 0 2.86.49 1.32.5 2.26 1.45t1.48 2.34q.54 1.38.54 3.16 0 .89-.2 1.21-.19.31-.73.31m17.97-8.71v2.93h-5.86v13.49h-3.95v-13.49h-5.84v-2.93zm9.34 5.76 2.8-4.72q.29-.46.78-.75.5-.29 1.06-.29h3.1l-3.82 6.1q-.4.64-.82 1.03-.41.39-1 .62.8.24 1.31.71t.93 1.19l3.84 6.77h-2.74q-1.04 0-1.62-.35-.57-.35-.97-1.01l-2.42-4.54q-.32-.6-.82-.88-.51-.29-1.18-.29h-1.49v7.07h-3.95v-16.42h3.95v6.77h1.28q.68 0 1.08-.25.41-.24.7-.76m17.63-6.01q1.83 0 3.32.59 1.5.59 2.56 1.68 1.07 1.09 1.64 2.66.58 1.56.58 3.5 0 1.95-.58 3.52-.57 1.57-1.64 2.67-1.06 1.11-2.56 1.7-1.49.59-3.32.59-1.84 0-3.34-.59-1.51-.59-2.57-1.7-1.06-1.1-1.65-2.67-.58-1.57-.58-3.52 0-1.94.58-3.5.59-1.57 1.65-2.66t2.57-1.68q1.5-.59 3.34-.59m0 13.87q2.05 0 3.03-1.38.99-1.37.99-4.03 0-2.65-.99-4.05-.98-1.39-3.03-1.39-2.08 0-3.08 1.4t-1 4.04 1 4.03q1 1.38 3.08 1.38m15.07-8.82v7.36q.68.82 1.47 1.16.79.33 1.72.33.89 0 1.61-.33.72-.34 1.23-1.03.5-.69.77-1.73.28-1.05.28-2.48 0-1.44-.24-2.44-.23-1-.66-1.62t-1.05-.91q-.61-.29-1.4-.29-1.23 0-2.09.52-.87.52-1.64 1.46m-.52-4.08.32 1.52q1-1.13 2.28-1.84 1.28-.7 3.01-.7 1.35 0 2.46.56t1.92 1.62q.81 1.07 1.25 2.63t.44 3.57q0 1.84-.5 3.41t-1.42 2.72-2.22 1.8-2.92.65q-1.38 0-2.35-.42-.98-.43-1.75-1.18v6.72h-3.95v-21.78h2.42q.77 0 1.01.72m37.4-7.44v3.32h-9.95v19.82h-4.32V188.4zm1.86 20.96q0-.49.18-.94.19-.45.51-.77t.77-.51q.44-.19.96-.19.51 0 .95.19t.77.51q.32.32.52.77.19.45.19.94 0 .52-.19.96-.2.44-.52.76-.33.32-.77.5t-.95.18q-.52 0-.96-.18-.45-.18-.77-.5t-.51-.76q-.18-.44-.18-.96m13.73-1.13h9.69v-16.51h-6.32q-.19 3.4-.52 6.04-.32 2.64-.76 4.64-.43 2-.96 3.43-.52 1.42-1.13 2.4m14.01 0h3.6v7.58q0 .56-.37.9-.38.33-.99.33h-2.59v-5.5h-16.99v4.27q0 .56-.38.9-.37.33-.98.33h-2.59v-8.81h2.53q.44-.24.88-.77t.86-1.49.79-2.43q.38-1.47.68-3.59.31-2.12.52-4.97.22-2.85.33-6.58h14.7zm5.72 1.13q0-.49.18-.94t.5-.77.77-.51.96-.19.95.19.77.51.52.77.19.94q0 .52-.19.96t-.52.76-.77.5-.95.18-.96-.18-.77-.5-.5-.76-.18-.96m-154.98 36.9h5.94q.64 0 1.01.36.38.36.38.95v2.37h-15.87v-1.31q0-.4.16-.84.17-.44.54-.79l7.02-7.04q.88-.9 1.58-1.72.7-.81 1.16-1.61t.71-1.63q.25-.82.25-1.73 0-.83-.24-1.47-.24-.63-.68-1.06t-1.06-.65q-.61-.21-1.38-.21-.7 0-1.3.2t-1.07.56q-.46.36-.78.84t-.48 1.05q-.27.74-.71.98-.43.24-1.24.11l-2.08-.37q.24-1.66.92-2.92.69-1.25 1.72-2.09 1.04-.84 2.37-1.27 1.34-.42 2.87-.42 1.6 0 2.93.47t2.27 1.34q.95.86 1.48 2.08.52 1.21.52 2.7 0 1.28-.37 2.37-.38 1.09-1.01 2.08t-1.48 1.92-1.78 1.89l-5.21 5.32q.75-.22 1.49-.34.75-.12 1.42-.12m12.61-12.64-2.08-.37q.24-1.66.93-2.92.68-1.25 1.72-2.09 1.03-.84 2.36-1.27 1.34-.42 2.88-.42 1.6 0 2.88.45 1.29.46 2.2 1.27.92.81 1.4 1.89.49 1.09.49 2.36 0 1.1-.25 1.94-.24.84-.71 1.46-.46.63-1.15 1.06t-1.55.72q2.08.66 3.1 2 1.03 1.34 1.03 3.38 0 1.72-.64 3.05t-1.73 2.23q-1.09.91-2.52 1.37-1.43.47-3.03.47-1.75 0-3.04-.4-1.3-.4-2.26-1.19-.96-.78-1.63-1.92-.67-1.13-1.15-2.62l1.74-.72q.69-.29 1.29-.15.6.13.87.64.29.56.63 1.11.35.54.83.97.48.42 1.12.68.65.27 1.55.27 1.01 0 1.76-.33t1.25-.86q.51-.52.76-1.17.24-.65.24-1.31 0-.83-.17-1.51-.18-.68-.74-1.16t-1.61-.75q-1.04-.27-2.8-.27v-2.82q1.45-.01 2.41-.27t1.53-.71q.57-.46.79-1.1.23-.64.23-1.41 0-1.63-.92-2.48-.91-.84-2.43-.84-.7 0-1.29.2-.6.2-1.07.56t-.79.84-.48 1.05q-.27.74-.71.98t-1.24.11m16.13 14.14q0-.49.18-.94t.5-.77.77-.51.96-.19.95.19.77.51.52.77.19.94q0 .52-.19.96t-.52.76-.77.5-.95.18-.96-.18-.77-.5-.5-.76-.18-.96m23.98-9.39q0 3.03-.65 5.26t-1.79 3.69q-1.14 1.45-2.7 2.16-1.56.72-3.37.72t-3.35-.72q-1.55-.71-2.68-2.16-1.14-1.46-1.78-3.69t-.64-5.26q0-3.04.64-5.26.64-2.23 1.78-3.68 1.13-1.46 2.68-2.17 1.54-.71 3.35-.71t3.37.71 2.7 2.17q1.14 1.45 1.79 3.68.65 2.22.65 5.26m-4.08 0q0-2.51-.37-4.16t-.98-2.62q-.62-.98-1.42-1.37t-1.66-.39q-.85 0-1.64.39t-1.4 1.37q-.61.97-.97 2.62t-.36 4.16.36 4.16.97 2.63q.61.97 1.4 1.36.79.4 1.64.4.86 0 1.66-.4.8-.39 1.42-1.36.61-.98.98-2.63t.37-4.16m14.64 7.89h5.94q.64 0 1.01.36.38.36.38.95v2.37h-15.87v-1.31q0-.4.16-.84.17-.44.54-.79l7.02-7.04q.88-.9 1.58-1.72.7-.81 1.16-1.61t.71-1.63q.25-.82.25-1.73 0-.83-.24-1.47-.24-.63-.68-1.06t-1.06-.65q-.61-.21-1.38-.21-.7 0-1.3.2t-1.07.56q-.46.36-.78.84t-.48 1.05q-.27.74-.71.98-.43.24-1.24.11l-2.08-.37q.24-1.66.92-2.92.69-1.25 1.72-2.09 1.04-.84 2.37-1.27 1.34-.42 2.87-.42 1.6 0 2.93.47t2.27 1.34q.95.86 1.48 2.08.52 1.21.52 2.7 0 1.28-.37 2.37-.38 1.09-1.01 2.08t-1.48 1.92-1.78 1.89l-5.21 5.32q.75-.22 1.49-.34.75-.12 1.42-.12m10.18 1.5q0-.49.18-.94t.5-.77.77-.51.96-.19.95.19.77.51.52.77.19.94q0 .52-.19.96t-.52.76-.77.5-.95.18-.96-.18-.77-.5-.5-.76-.18-.96m15.98-1.5h5.94q.64 0 1.01.36.38.36.38.95v2.37h-15.87v-1.31q0-.4.16-.84.17-.44.54-.79l7.02-7.04q.88-.9 1.58-1.72.7-.81 1.16-1.61t.71-1.63q.25-.82.25-1.73 0-.83-.24-1.47-.24-.63-.68-1.06t-1.06-.65q-.61-.21-1.38-.21-.7 0-1.3.2t-1.07.56q-.46.36-.78.84t-.48 1.05q-.27.74-.71.98-.43.24-1.24.11l-2.08-.37q.24-1.66.92-2.92.69-1.25 1.72-2.09 1.04-.84 2.37-1.27 1.34-.42 2.87-.42 1.6 0 2.93.47t2.27 1.34q.95.86 1.48 2.08.52 1.21.52 2.7 0 1.28-.37 2.37-.38 1.09-1.01 2.08t-1.48 1.92-1.78 1.89l-5.21 5.32q.75-.22 1.49-.34.75-.12 1.42-.12m26.56-7.89q0 3.03-.65 5.26t-1.79 3.69q-1.14 1.45-2.7 2.16-1.56.72-3.37.72t-3.35-.72q-1.55-.71-2.68-2.16-1.14-1.46-1.78-3.69t-.64-5.26q0-3.04.64-5.26.64-2.23 1.78-3.68 1.13-1.46 2.68-2.17 1.54-.71 3.35-.71t3.37.71 2.7 2.17q1.14 1.45 1.79 3.68.65 2.22.65 5.26m-4.08 0q0-2.51-.37-4.16t-.98-2.62q-.62-.98-1.42-1.37t-1.66-.39q-.85 0-1.64.39t-1.4 1.37q-.61.97-.97 2.62t-.36 4.16.36 4.16.97 2.63q.61.97 1.4 1.36.79.4 1.64.4.86 0 1.66-.4.8-.39 1.42-1.36.61-.98.98-2.63t.37-4.16m14.64 7.89h5.94q.64 0 1.01.36.38.36.38.95v2.37h-15.87v-1.31q0-.4.16-.84.17-.44.54-.79l7.02-7.04q.88-.9 1.58-1.72.7-.81 1.16-1.61t.71-1.63q.25-.82.25-1.73 0-.83-.24-1.47-.24-.63-.68-1.06t-1.06-.65q-.61-.21-1.38-.21-.7 0-1.3.2t-1.07.56q-.46.36-.78.84t-.48 1.05q-.27.74-.71.98-.43.24-1.24.11l-2.08-.37q.24-1.66.92-2.92.69-1.25 1.72-2.09 1.04-.84 2.37-1.27 1.34-.42 2.87-.42 1.6 0 2.93.47t2.27 1.34q.95.86 1.48 2.08.52 1.21.52 2.7 0 1.28-.37 2.37-.38 1.09-1.01 2.08t-1.48 1.92-1.78 1.89l-5.21 5.32q.75-.22 1.49-.34.75-.12 1.42-.12m13.15-5.04h7.04v-7.57q0-1.07.15-2.37zm10.48 0h2.91v2.29q0 .32-.2.55-.21.23-.6.23h-2.11v5.65h-3.44v-5.65h-9.76q-.4 0-.7-.25-.31-.24-.39-.61l-.41-2 10.96-14.64h3.74z"/></svg>