<svg xmlns="http://www.w3.org/2000/svg" width="600" height="400" viewBox="0 0 600 400"><rect width="100%" height="100%" fill="#4B0082"/><path fill="#FFFFFF" d="M135.09 145.205h3.54v25.31h-4.73v-15.86q0-.89.04-1.87.05-.98.21-2.08-.35.98-.77 1.81-.41.83-.79 1.46l-9.68 15.09q-.16.26-.38.52-.21.26-.48.47-.26.2-.57.33-.32.13-.65.13h-3.54v-25.31h4.73v15.86q0 .89-.05 1.88-.04.99-.2 2.09.35-.98.76-1.82.42-.84.82-1.47l9.66-15.08q.16-.27.37-.53.22-.26.49-.46.26-.2.56-.33.31-.14.66-.14m22.49 9.58-1.14 1.57q-.19.25-.38.39-.18.14-.53.14-.33 0-.65-.2-.31-.21-.75-.46t-1.04-.45q-.6-.21-1.5-.21-1.13 0-1.99.42-.86.41-1.43 1.18t-.85 1.86-.28 2.48q0 1.43.31 2.55t.88 1.88q.58.76 1.4 1.16.83.39 1.86.39t1.67-.25q.64-.26 1.08-.56.43-.31.76-.56.32-.26.72-.26.53 0 .79.41l1.24 1.57q-.71.84-1.55 1.41t-1.75.91q-.9.34-1.85.48t-1.9.14q-1.66 0-3.13-.62t-2.57-1.81q-1.11-1.19-1.75-2.91-.63-1.73-.63-3.93 0-1.98.56-3.67.57-1.69 1.68-2.92 1.1-1.24 2.73-1.94 1.62-.7 3.74-.7 2.01 0 3.53.65 1.51.65 2.72 1.86m10.53 4.07 3.07-5.16q.31-.51.85-.82.55-.32 1.16-.32h3.39l-4.18 6.67q-.44.7-.89 1.13-.46.43-1.1.67.87.27 1.43.78.56.52 1.02 1.31l4.2 7.4h-3q-1.13 0-1.76-.39-.63-.38-1.07-1.1l-2.64-4.97q-.35-.65-.91-.96-.55-.32-1.28-.32h-1.63v7.74h-4.32v-17.96h4.32v7.41h1.4q.74 0 1.18-.27.45-.28.76-.84m24.19-6.3h3.46l-9.78 22.9q-.19.45-.5.69-.3.23-.93.23h-3.22l3.36-7.21-7.27-16.61h3.8q.51 0 .8.25.29.24.43.56l3.81 9.31q.19.47.32.94.14.48.26.97.16-.49.31-.97.16-.49.35-.96l3.61-9.29q.14-.35.46-.58.33-.23.73-.23m19.62 2.23-1.14 1.57q-.19.25-.38.39-.18.14-.53.14-.33 0-.65-.2-.31-.21-.75-.46t-1.04-.45q-.61-.21-1.5-.21-1.14 0-1.99.42-.86.41-1.43 1.18t-.85 1.86-.28 2.48q0 1.43.31 2.55.3 1.12.88 1.88t1.4 1.16q.82.39 1.86.39 1.03 0 1.67-.25.64-.26 1.07-.56.44-.31.76-.56.33-.26.73-.26.53 0 .79.41l1.24 1.57q-.72.84-1.56 1.41t-1.74.91-1.85.48q-.96.14-1.9.14-1.66 0-3.13-.62t-2.58-1.81q-1.1-1.19-1.74-2.91-.64-1.73-.64-3.93 0-1.98.57-3.67t1.67-2.92q1.11-1.24 2.73-1.94 1.63-.7 3.75-.7 2.01 0 3.52.65 1.52.65 2.73 1.86m16.87 0-1.14 1.57q-.19.25-.38.39-.18.14-.53.14-.33 0-.65-.2-.31-.21-.75-.46t-1.04-.45q-.61-.21-1.5-.21-1.14 0-1.99.42-.86.41-1.43 1.18t-.85 1.86-.28 2.48q0 1.43.31 2.55.3 1.12.88 1.88t1.4 1.16q.82.39 1.86.39 1.03 0 1.67-.25.64-.26 1.07-.56.44-.31.76-.56.33-.26.73-.26.53 0 .79.41l1.24 1.57q-.72.84-1.56 1.41t-1.74.91-1.85.48q-.96.14-1.9.14-1.66 0-3.13-.62t-2.58-1.81q-1.1-1.19-1.74-2.91-.64-1.73-.64-3.93 0-1.98.57-3.67t1.67-2.92q1.11-1.24 2.73-1.94 1.63-.7 3.75-.7 2.01 0 3.52.65 1.52.65 2.73 1.86m18.27-2.23v3.21h-6.41v14.75h-4.32v-14.75h-6.39v-3.21zm6.66 15h3.22q1.37 0 2.16-.66.8-.67.8-1.82 0-.49-.13-.92t-.46-.75q-.34-.31-.91-.49-.56-.17-1.44-.17h-3.24zm2.84-12.18h-2.84v4.71h2.84q.63 0 1.15-.18.53-.19.91-.53.39-.34.6-.8.21-.47.21-1.03 0-.4-.14-.79-.14-.4-.47-.7-.34-.31-.89-.49-.55-.19-1.37-.19m-6.95-2.82h7.07q1.7 0 2.93.34 1.24.33 2.04.91.81.57 1.19 1.37.39.8.39 1.72 0 .58-.15 1.2t-.53 1.2q-.37.58-1.02 1.05t-1.65.74q.9.19 1.63.53.74.34 1.26.86.53.51.81 1.21.29.69.29 1.54 0 1.37-.57 2.37-.56.99-1.52 1.64-.95.65-2.2.96-1.25.32-2.62.32h-7.35zm25.53-.28q2 0 3.63.65 1.64.65 2.8 1.84 1.17 1.19 1.8 2.9.63 1.72.63 3.84 0 2.13-.63 3.85-.63 1.71-1.8 2.92-1.16 1.21-2.8 1.85-1.63.65-3.63.65-2.01 0-3.65-.65-1.65-.64-2.81-1.85-1.17-1.21-1.81-2.92-.63-1.72-.63-3.85 0-2.12.63-3.84.64-1.71 1.81-2.9 1.16-1.19 2.81-1.84 1.64-.65 3.65-.65m0 15.18q2.24 0 3.32-1.51 1.08-1.5 1.08-4.41 0-2.9-1.08-4.43-1.08-1.52-3.32-1.52-2.27 0-3.37 1.53-1.09 1.53-1.09 4.42t1.09 4.4q1.1 1.52 3.37 1.52m34.18-14.9h2.63v17.96h-4.33v-10.48q0-.41.05-.89.04-.48.11-.97-.35.81-.77 1.42-.03.03-.35.48-.31.45-.81 1.15l-1.13 1.58-1.28 1.79q-1.52 2.16-3.45 4.87-.24.37-.64.72-.39.35-.9.35h-2.64v-17.96h4.32v10.48q0 .41-.04.89t-.11.97q.38-.86.77-1.42.01-.03.33-.47.31-.44.81-1.14l1.13-1.58 1.28-1.81q1.52-2.16 3.46-4.87.25-.38.65-.72.4-.35.91-.35m37.38 10.56 4.22 7.4h-2.99q-1.16 0-1.75-.35-.6-.35-.95-1.14l-2.66-4.97q-.33-.65-.88-.96-.55-.32-1.29-.32h-1.42v7.74h-4.18v-7.74h-1.43q-.72 0-1.28.32-.56.31-.89.96l-2.66 4.97q-.35.79-.95 1.14-.59.35-1.75.35h-2.97l4.2-7.4q.43-.79.99-1.31.56-.51 1.44-.79-.65-.23-1.1-.66-.46-.43-.88-1.13l-4.2-6.67h3.41q.6 0 1.1.31t.78.83l3.04 5.16q.33.56.78.84.45.27 1.18.27h1.19v-7.41h4.18v7.41h1.11q.73 0 1.21-.27.48-.28.82-.84l3.04-5.16q.28-.52.78-.83t1.11-.31h3.4l-4.2 6.67q-.42.7-.88 1.13-.45.43-1.1.66.87.28 1.43.79.56.52 1 1.31m20.13-10.56h2.62v17.96h-4.32v-10.48q0-.41.04-.89.05-.48.12-.97-.35.81-.77 1.42-.04.03-.35.48l-.82 1.15-1.13 1.58q-.63.88-1.27 1.79l-3.45 4.87q-.25.37-.64.72t-.9.35h-2.64v-17.96h4.32v10.48q0 .41-.05.89-.04.48-.11.97.39-.86.77-1.42l.33-.47q.32-.44.82-1.14l1.13-1.58q.63-.89 1.27-1.81 1.53-2.16 3.47-4.87.24-.38.65-.72.4-.35.91-.35m11 15h3.22q1.37 0 2.16-.66.8-.67.8-1.82 0-.49-.13-.92t-.46-.75q-.34-.31-.91-.49-.56-.17-1.44-.17h-3.24zm2.84-12.18h-2.84v4.71h2.84q.63 0 1.15-.18.53-.19.91-.53.39-.34.6-.8.21-.47.21-1.03 0-.4-.14-.79-.14-.4-.47-.7-.34-.31-.89-.49-.55-.19-1.37-.19m-6.95-2.82h7.07q1.7 0 2.93.34 1.24.33 2.04.91.81.57 1.19 1.37.39.8.39 1.72 0 .58-.15 1.2t-.53 1.2q-.37.58-1.02 1.05t-1.65.74q.9.19 1.63.53.74.34 1.26.86.53.51.81 1.21.29.69.29 1.54 0 1.37-.57 2.37-.56.99-1.52 1.64-.95.65-2.2.96-1.25.32-2.62.32h-7.35zm25.53-.28q2 0 3.64.65 1.63.65 2.8 1.84 1.16 1.19 1.79 2.9.63 1.72.63 3.84 0 2.13-.63 3.85-.63 1.71-1.79 2.92-1.17 1.21-2.8 1.85-1.64.65-3.64.65-2.01 0-3.65-.65-1.65-.64-2.81-1.85-1.17-1.21-1.8-2.92-.64-1.72-.64-3.85 0-2.12.64-3.84.63-1.71 1.8-2.9 1.16-1.19 2.81-1.84 1.64-.65 3.65-.65m0 15.18q2.24 0 3.32-1.51 1.08-1.5 1.08-4.41 0-2.9-1.08-4.43-1.08-1.52-3.32-1.52-2.27 0-3.36 1.53-1.1 1.53-1.1 4.42t1.1 4.4q1.09 1.52 3.36 1.52m27.81-14.9v17.96h-4.32v-14.75h-7v14.75h-4.32v-17.96zm17.8 0h2.62v17.96h-4.32v-10.48q0-.41.05-.89.04-.48.11-.97-.35.81-.77 1.42-.04.03-.35.48-.32.45-.81 1.15l-1.13 1.58-1.28 1.79q-1.52 2.16-3.45 4.87-.24.37-.64.72-.39.35-.9.35h-2.64v-17.96h4.32v10.48q0 .41-.04.89-.05.48-.12.97.39-.86.77-1.42.02-.03.34-.47.31-.44.81-1.14l1.13-1.58 1.28-1.81q1.52-2.16 3.46-4.87.25-.38.65-.72.4-.35.91-.35m20.89 2.23-1.13 1.57q-.2.25-.38.39t-.53.14q-.34 0-.65-.2-.32-.21-.75-.46-.44-.25-1.04-.45-.61-.21-1.5-.21-1.14 0-2 .42-.85.41-1.42 1.18t-.85 1.86-.28 2.48q0 1.43.31 2.55.3 1.12.88 1.88t1.4 1.16q.82.39 1.85.39 1.04 0 1.68-.25.63-.26 1.07-.56.44-.31.76-.56.33-.26.73-.26.52 0 .79.41l1.24 1.57q-.72.84-1.56 1.41t-1.74.91-1.85.48q-.96.14-1.9.14-1.67 0-3.14-.62t-2.57-1.81-1.74-2.91q-.64-1.73-.64-3.93 0-1.98.57-3.67t1.67-2.92q1.1-1.24 2.73-1.94t3.75-.7q2.01 0 3.52.65 1.52.65 2.72 1.86m6.99 12.63h3.22q1.47 0 2.19-.73.73-.74.73-1.89 0-.49-.17-.95-.16-.45-.51-.8t-.91-.55q-.56-.21-1.35-.21h-3.2zm0-8.21h3.18q1.87 0 3.17.46 1.29.45 2.1 1.22.8.77 1.16 1.78t.36 2.11q0 1.26-.44 2.32-.45 1.06-1.32 1.82-.86.76-2.11 1.18-1.26.42-2.87.42h-7.35v-17.96h4.12zm-261.94 28.01h3.55v25.3h-4.15v-16.34q0-.98.11-2.12l-7.65 14.37q-.54 1.03-1.66 1.03h-.67q-1.12 0-1.66-1.03l-7.74-14.42q.06.57.09 1.13.04.56.04 1.04v16.34h-4.15v-25.3h3.55q.32 0 .54.01.23.02.42.09.18.07.33.23t.29.42l7.57 14.05q.3.56.56 1.16.25.59.49 1.22.25-.65.51-1.25t.56-1.16l7.47-14.02q.14-.26.3-.42t.34-.23q.19-.07.41-.09.23-.01.55-.01m17.99 20.66v-3.02q-1.88.08-3.15.32-1.28.24-2.05.6-.77.37-1.1.86-.34.49-.34 1.07 0 1.14.68 1.63.67.49 1.76.49 1.33 0 2.3-.49.97-.48 1.9-1.46m-9.14-9.43-.77-1.38q3.1-2.84 7.46-2.84 1.57 0 2.81.52 1.25.52 2.1 1.43.86.92 1.31 2.2.44 1.28.44 2.8v11.34h-1.96q-.61 0-.94-.18-.33-.19-.53-.75l-.38-1.29q-.68.61-1.33 1.07-.65.47-1.35.78-.7.32-1.49.48-.8.17-1.76.17-1.14 0-2.1-.31-.97-.3-1.67-.91-.7-.62-1.08-1.53-.39-.91-.39-2.11 0-.69.23-1.36t.75-1.29q.51-.61 1.33-1.15.83-.54 2.03-.95 1.19-.4 2.79-.65 1.59-.26 3.64-.31v-1.05q0-1.8-.77-2.67-.77-.86-2.23-.86-1.05 0-1.74.24-.69.25-1.21.55-.53.31-.96.55-.43.25-.95.25-.46 0-.77-.24-.32-.23-.51-.55m34.07-3.88v17.95h-4.32v-14.65h-4.41q-.21 3.31-.65 5.7-.43 2.39-1.04 4.05-.6 1.66-1.34 2.67-.75 1.01-1.59 1.57t-1.73.74-1.8.18q-.97 0-1.41-.16-.45-.17-.45-.47v-2.69h1.03q.58 0 1.16-.18.58-.17 1.12-.71.54-.55 1.03-1.55.49-1.01.9-2.66.41-1.66.73-4.05.31-2.4.49-5.74zm7.69 6.91h8.15q0-.84-.23-1.59-.24-.74-.71-1.3-.48-.56-1.2-.88-.73-.33-1.69-.33-1.87 0-2.95 1.07t-1.37 3.03m11.02 2.61h-11.11q.1 1.38.49 2.38.38 1.01 1.01 1.67.63.65 1.5.98.87.32 1.92.32t1.81-.24q.76-.25 1.33-.55.57-.29 1-.54.42-.24.83-.24.54 0 .8.4l1.24 1.57q-.71.84-1.61 1.41-.89.57-1.86.91t-1.98.48q-1 .14-1.95.14-1.87 0-3.48-.62t-2.8-1.84q-1.19-1.21-1.87-3.01-.69-1.79-.69-4.15 0-1.84.6-3.46.59-1.62 1.71-2.82 1.11-1.19 2.71-1.89t3.61-.7q1.7 0 3.13.54 1.44.54 2.47 1.58t1.62 2.56q.59 1.51.59 3.45 0 .98-.21 1.32-.21.35-.81.35m8.37 5.47h3.22q1.36 0 2.16-.66.79-.67.79-1.82 0-.49-.13-.92t-.46-.74q-.33-.32-.9-.49-.57-.18-1.45-.18h-3.23zm2.83-12.18h-2.83v4.71h2.83q.63 0 1.16-.18.52-.19.91-.53.38-.34.59-.8.21-.47.21-1.03 0-.4-.14-.79-.14-.4-.47-.7-.33-.31-.88-.49-.56-.19-1.38-.19m-6.95-2.81h7.07q1.7 0 2.94.33 1.23.33 2.03.91.81.58 1.19 1.37.39.8.39 1.73 0 .57-.15 1.19-.15.63-.52 1.2-.38.58-1.03 1.05-.65.48-1.64.74.89.19 1.62.53.74.34 1.26.86.53.52.82 1.21t.29 1.55q0 1.36-.57 2.36t-1.52 1.64q-.96.65-2.21.97-1.25.31-2.62.31h-7.35zm31.1 0h2.63v17.95h-4.33v-10.48q0-.4.05-.89.04-.48.11-.97-.35.81-.77 1.42l-.35.48q-.31.45-.81 1.15l-1.13 1.58q-.63.89-1.28 1.8-1.52 2.15-3.45 4.86-.24.37-.63.72-.4.35-.91.35h-2.64v-17.96h4.32v10.49q0 .4-.04.88t-.11.97q.38-.86.77-1.42.01-.03.33-.47.31-.44.81-1.14l1.13-1.58q.63-.88 1.28-1.81 1.52-2.15 3.46-4.87.25-.38.65-.72t.91-.34m16.75 0h4.32v17.95h-4.32v-7.05q-2.31.56-4.29.64t-3.42-.48q-1.44-.55-2.26-1.79-.81-1.24-.81-3.31v-5.96h4.32v5.3q0 1.1.36 1.77.36.68 1.14.98.78.29 2 .24 1.23-.05 2.96-.4zm45.69 7.22 6.6 10.73h-3.13q-1.04 0-1.76-.45-.73-.44-1.17-1.18l-5.18-8.1q-.47-.77-1.05-1.08-.57-.32-1.47-.32h-2.67v11.13h-4.43v-11.13h-2.68q-.87 0-1.46.32-.59.31-1.04 1.08l-5.18 8.1q-.44.74-1.17 1.18-.74.45-1.75.45h-3.15l6.61-10.73q.61-1.06 1.34-1.69t1.65-.95q-.77-.3-1.32-.83t-1.06-1.34l-6.52-9.76h3.72q.72 0 1.33.35.6.35.97.98l5.18 8.01q.47.77 1.03 1.02.56.24 1.28.24h2.22v-10.6h4.43v10.6h2.24q.71 0 1.27-.24.55-.25 1.04-1.02l5.16-8.01q.37-.63.97-.98t1.34-.35h3.71l-6.53 9.76q-.51.81-1.05 1.34t-1.33.83q.95.32 1.67.95.73.63 1.34 1.69m8.16 8.35q0-.54.2-1.03t.55-.84.84-.56 1.05-.21 1.04.21.84.56.57.84.21 1.03q0 .56-.21 1.04t-.57.83-.84.55q-.48.21-1.04.21t-1.05-.21q-.49-.2-.84-.55t-.55-.83-.2-1.04m9.32-18.3-1.15-2.24q1.47-1.26 3.49-1.96t4.49-.7q2.05 0 3.7.49t2.81 1.37q1.15.88 1.78 2.1.62 1.22.62 2.67 0 1.78-.82 3.23-.81 1.44-2.46 2.33.88.42 1.61.99.72.57 1.24 1.26.51.69.8 1.5.29.8.29 1.71 0 1.72-.64 3.21-.64 1.48-1.85 2.59-1.22 1.1-2.99 1.74-1.76.64-4.04.64-1.33 0-2.6-.24t-2.42-.67q-1.16-.44-2.17-1.05-1.02-.62-1.8-1.37l1.38-2.26q.19-.24.46-.41.27-.16.61-.16.45 0 .99.35.55.36 1.32.8t1.83.8q1.05.36 2.54.36 2.36 0 3.66-1.02 1.29-1.01 1.29-3.11 0-.86-.35-1.54-.35-.69-.99-1.16-.65-.47-1.57-.73-.92-.25-2.04-.25h-3.57l-.02-3.78h3.26q2.19 0 3.42-.87 1.23-.86 1.23-2.51 0-1.45-1.16-2.32-1.16-.86-3.37-.86-1.28 0-2.19.28-.92.28-1.6.6-.67.33-1.13.61-.47.28-.84.28-.35 0-.59-.18-.25-.17-.46-.52m19.34 18.3q0-.54.2-1.03t.55-.84.84-.56 1.05-.21 1.05.21q.48.21.84.56.35.35.56.84t.21 1.03q0 .56-.21 1.04t-.56.83q-.36.35-.84.55-.49.21-1.05.21t-1.05-.21q-.49-.2-.84-.55t-.55-.83-.2-1.04m-184.02 41.14h4.55v3.24h-14v-3.24h5.13v-14.75q0-.87.05-1.8l-3.64 3.04q-.32.25-.62.31-.31.06-.58.01t-.48-.19q-.21-.13-.32-.28l-1.36-1.88 7.72-6.56h3.55zm14.73-18.14-.89 5.26q.84-.17 1.61-.25t1.49-.08q1.99 0 3.52.6 1.52.59 2.55 1.64t1.56 2.46q.52 1.41.52 3.04 0 2.01-.7 3.67-.71 1.66-1.97 2.84-1.26 1.19-2.99 1.83-1.72.65-3.75.65-1.19 0-2.26-.24-1.07-.25-2-.66-.94-.41-1.73-.95-.8-.53-1.43-1.12l1.33-1.84q.42-.6 1.1-.6.44 0 .89.28.46.28 1.05.62.58.33 1.38.61.79.28 1.91.28 1.19 0 2.1-.39.91-.38 1.52-1.07.6-.69.91-1.65.3-.95.3-2.07 0-2.07-1.19-3.23-1.2-1.16-3.55-1.16-1.8 0-3.69.66l-2.7-.77 2.1-12.28h12.5v1.83q0 .93-.58 1.51t-1.96.58zm13.81 19q0-.54.2-1.03t.55-.84.84-.56 1.05-.21 1.05.21q.48.21.84.56.35.35.56.84t.21 1.03q0 .56-.21 1.04t-.56.83q-.36.35-.84.55-.49.21-1.05.21t-1.05-.21q-.49-.2-.84-.55t-.55-.83-.2-1.04m26.23-10.27q0 3.31-.7 5.75-.71 2.44-1.96 4.03-1.26 1.59-2.96 2.37-1.71.78-3.69.78-1.97 0-3.66-.78t-2.93-2.37q-1.25-1.59-1.95-4.03t-.7-5.75q0-3.33.7-5.76t1.95-4.02q1.24-1.6 2.93-2.38 1.69-.77 3.66-.77 1.98 0 3.69.77 1.7.78 2.96 2.38 1.25 1.59 1.96 4.02.7 2.43.7 5.76m-4.46 0q0-2.75-.4-4.55t-1.08-2.87q-.67-1.07-1.55-1.5-.87-.43-1.82-.43-.92 0-1.79.43t-1.53 1.5q-.67 1.07-1.06 2.87t-.39 4.55.39 4.55 1.06 2.87q.66 1.07 1.53 1.49.87.43 1.79.43.95 0 1.82-.43.88-.42 1.55-1.49.68-1.07 1.08-2.87t.4-4.55m18.9 9.41h4.55v3.24h-14v-3.24h5.13v-14.75q0-.87.05-1.8l-3.64 3.04q-.31.25-.62.31t-.58.01-.48-.19q-.21-.13-.31-.28l-1.37-1.88 7.72-6.56h3.55zm8.24.86q0-.54.21-1.03.2-.49.55-.84t.84-.56 1.05-.21 1.04.21.84.56.57.84.21 1.03q0 .56-.21 1.04t-.57.83-.84.55q-.48.21-1.04.21t-1.05-.21q-.49-.2-.84-.55t-.55-.83q-.21-.48-.21-1.04m17.49-1.64h6.49q.7 0 1.11.39t.41 1.04v2.59h-17.36v-1.43q0-.44.19-.92.18-.48.58-.87l7.68-7.7q.97-.98 1.73-1.87t1.27-1.77q.5-.87.78-1.78.27-.9.27-1.89 0-.91-.27-1.61-.26-.69-.74-1.16t-1.15-.71q-.68-.23-1.52-.23-.77 0-1.42.21-.66.22-1.17.62-.51.39-.86.92-.35.52-.52 1.15-.3.81-.77 1.07t-1.37.12l-2.27-.4q.26-1.82 1.01-3.2.76-1.37 1.89-2.29 1.12-.92 2.59-1.38 1.46-.46 3.14-.46 1.75 0 3.2.51 1.45.52 2.48 1.46 1.04.95 1.61 2.28.58 1.33.58 2.96 0 1.4-.41 2.59t-1.1 2.27q-.69 1.09-1.62 2.1-.93 1.02-1.94 2.07l-5.71 5.82q.82-.24 1.64-.37.81-.13 1.55-.13m29.05-8.63q0 3.31-.71 5.75t-1.96 4.03-2.96 2.37-3.68.78q-1.98 0-3.67-.78t-2.93-2.37-1.94-4.03-.7-5.75q0-3.33.7-5.76t1.94-4.02q1.24-1.6 2.93-2.38 1.69-.77 3.67-.77 1.97 0 3.68.77 1.71.78 2.96 2.38 1.25 1.59 1.96 4.02t.71 5.76m-4.47 0q0-2.75-.4-4.55t-1.07-2.87q-.68-1.07-1.55-1.5-.88-.43-1.82-.43-.93 0-1.8.43-.86.43-1.53 1.5-.66 1.07-1.06 2.87-.39 1.8-.39 4.55t.39 4.55q.4 1.8 1.06 2.87.67 1.07 1.53 1.49.87.43 1.8.43.94 0 1.82-.43.87-.42 1.55-1.49.67-1.07 1.07-2.87t.4-4.55m16.02 8.63h6.49q.7 0 1.11.39t.41 1.04v2.59h-17.36v-1.43q0-.44.19-.92.18-.48.58-.87l7.68-7.7q.97-.98 1.73-1.87t1.27-1.77q.5-.87.78-1.78.27-.9.27-1.89 0-.91-.27-1.61-.26-.69-.74-1.16t-1.15-.71q-.68-.23-1.52-.23-.77 0-1.42.21-.66.22-1.17.62-.51.39-.86.92-.35.52-.52 1.15-.3.81-.77 1.07t-1.37.12l-2.27-.4q.26-1.82 1.01-3.2.76-1.37 1.89-2.29 1.12-.92 2.59-1.38 1.46-.46 3.14-.46 1.75 0 3.2.51 1.45.52 2.48 1.46 1.04.95 1.61 2.28.58 1.33.58 2.96 0 1.4-.41 2.59t-1.1 2.27q-.69 1.09-1.62 2.1-.93 1.02-1.94 2.07l-5.71 5.82q.82-.24 1.64-.37.81-.13 1.55-.13m13.79-13.83-2.28-.4q.26-1.82 1.02-3.2.75-1.37 1.88-2.29t2.59-1.38 3.14-.46q1.75 0 3.16.49 1.41.5 2.4 1.39 1 .88 1.54 2.07.53 1.19.53 2.57 0 1.21-.27 2.13t-.78 1.6-1.26 1.16q-.75.47-1.7.78 2.28.72 3.4 2.19t1.12 3.69q0 1.89-.7 3.35-.7 1.45-1.89 2.44t-2.76 1.49q-1.57.51-3.32.51-1.9 0-3.32-.44-1.42-.43-2.47-1.29t-1.78-2.1q-.74-1.24-1.26-2.87l1.9-.79q.76-.31 1.41-.17.66.15.96.71.31.62.69 1.21.37.6.9 1.06.52.46 1.23.75t1.69.29q1.1 0 1.93-.36.82-.36 1.37-.93.55-.58.82-1.29t.27-1.43q0-.91-.19-1.65t-.8-1.27q-.62-.52-1.76-.82-1.15-.3-3.07-.3v-3.08q1.59-.02 2.64-.3t1.67-.78q.62-.49.87-1.19.24-.7.24-1.54 0-1.79-1-2.72-.99-.92-2.66-.92-.77 0-1.41.21-.65.22-1.17.62-.51.39-.86.92-.35.52-.53 1.15-.3.81-.78 1.07t-1.35.12"/></svg>