<svg xmlns="http://www.w3.org/2000/svg" width="600" height="400" viewBox="0 0 600 400"><rect width="100%" height="100%" fill="#556B2F"/><path fill="#FFFFFF" d="M121.525 174.345h5.29l-2.03-5.53q-.15-.37-.31-.87-.16-.51-.32-1.1-.15.59-.31 1.1t-.31.89zm4.22-10.35 6.53 16.63h-2.39q-.4 0-.66-.2-.25-.2-.38-.5l-1.24-3.39h-6.89l-1.24 3.39q-.09.26-.36.48-.26.22-.66.22h-2.41l6.54-16.63zm15.21 4.83h2.84v11.8h-2.84v-5.22h-4.6v5.22h-2.84v-11.8h2.84v4.47h4.6zm13.65 0v2.11h-5.15v9.69h-2.84v-11.8zm12.63 0v11.8h-2.84v-9.63h-2.9q-.14 2.18-.42 3.75-.29 1.57-.69 2.66-.39 1.09-.88 1.75-.49.67-1.04 1.03-.56.37-1.14.49-.59.12-1.19.12-.63 0-.92-.11-.3-.11-.3-.3v-1.77h.68q.38 0 .76-.12.38-.11.74-.47.35-.36.68-1.02.32-.66.59-1.74.27-1.09.48-2.67.2-1.57.32-3.77zm11.68 0h1.73v11.8h-2.84v-6.89q0-.26.03-.58t.07-.64q-.23.53-.5.93-.03.03-.23.32l-.54.75q-.33.46-.74 1.04t-.84 1.18q-1 1.42-2.26 3.2-.17.24-.42.47-.26.23-.6.23h-1.73v-11.8h2.84v6.89q0 .27-.03.58-.03.32-.08.64.26-.56.51-.93.01-.02.22-.31t.53-.75q.33-.46.74-1.04.42-.58.84-1.19 1-1.41 2.28-3.2.16-.25.43-.47.26-.23.59-.23m13.41 0h1.73v11.8h-2.84v-6.89q0-.26.03-.58t.07-.64q-.23.53-.5.93-.03.03-.23.32l-.54.75q-.33.46-.74 1.04t-.84 1.18q-1 1.42-2.27 3.2-.16.24-.42.47-.25.23-.59.23h-1.73v-11.8h2.84v6.89q0 .27-.03.58-.03.32-.08.64.26-.56.51-.93.01-.02.22-.31.2-.29.53-.75t.74-1.04q.42-.58.84-1.19 1-1.41 2.28-3.2.16-.25.43-.47.26-.23.59-.23m-3.41-2.99q.42 0 .71-.09t.46-.31q.17-.21.24-.56.07-.36.07-.88h1.68q.3 0 .44.25.15.25.15.54 0 .59-.27 1.07-.26.48-.76.8-.49.33-1.18.51t-1.54.18-1.54-.18-1.19-.51q-.49-.32-.76-.8-.26-.48-.26-1.07 0-.29.14-.54.15-.25.45-.25h1.67q0 .52.07.88.07.35.25.56.17.22.45.31t.72.09m17.14 4.45-.74 1.04q-.13.16-.25.25t-.35.09q-.22 0-.43-.13-.2-.13-.49-.3t-.68-.3q-.4-.13-.99-.13-.75 0-1.31.27t-.94.78q-.37.5-.55 1.22-.19.72-.19 1.63 0 .94.2 1.68.2.73.58 1.23t.92.76 1.22.26 1.1-.17q.42-.16.71-.36.29-.21.5-.37.21-.17.48-.17.34 0 .51.27l.82 1.03q-.47.55-1.02.93-.56.37-1.15.59-.59.23-1.22.32-.62.09-1.24.09-1.1 0-2.06-.41-.97-.4-1.69-1.19-.73-.78-1.15-1.91t-.42-2.58q0-1.3.38-2.41.37-1.11 1.09-1.92.73-.81 1.8-1.27t2.46-.46q1.32 0 2.32.42.99.43 1.78 1.22m6.93 2.68 2.01-3.39q.21-.33.56-.54.36-.21.76-.21h2.23l-2.74 4.38q-.29.46-.59.74-.3.29-.73.45.58.17.95.51t.66.86l2.76 4.86h-1.96q-.75 0-1.16-.25-.42-.26-.71-.73l-1.73-3.26q-.23-.43-.59-.64-.37-.2-.85-.2h-1.07v5.08h-2.84v-11.8h2.84v4.87h.92q.48 0 .78-.18.29-.18.5-.55m16.33-4.14h1.72v11.8h-2.84v-6.89q0-.26.03-.58t.08-.64q-.23.53-.51.93-.02.03-.23.32t-.53.75q-.33.46-.75 1.04-.41.58-.84 1.18-1 1.42-2.26 3.2-.16.24-.42.47t-.59.23h-1.74v-11.8h2.84v6.89q0 .27-.03.58-.03.32-.07.64.25-.56.5-.93.01-.02.22-.31l.54-.75q.32-.46.74-1.04l.84-1.19 2.27-3.2q.17-.25.43-.47.26-.23.6-.23m13.41 0h1.72v11.8h-2.84v-6.89q0-.26.03-.58t.07-.64q-.23.53-.5.93-.02.03-.23.32l-.54.75q-.32.46-.74 1.04-.41.58-.84 1.18-1 1.42-2.26 3.2-.16.24-.42.47t-.59.23h-1.74v-11.8h2.84v6.89q0 .27-.03.58-.03.32-.07.64.25-.56.5-.93.01-.02.22-.31l.54-.75q.32-.46.74-1.04l.84-1.19 2.27-3.2q.16-.25.43-.47.26-.23.6-.23m-3.42-2.99q.43 0 .71-.09.29-.09.46-.31.18-.21.25-.56.06-.36.06-.88h1.68q.3 0 .45.25.14.25.14.54 0 .59-.26 1.07-.27.48-.76.8-.5.33-1.19.51t-1.54.18-1.54-.18-1.18-.51q-.5-.32-.76-.8-.27-.48-.27-1.07 0-.29.15-.54.14-.25.44-.25h1.68q0 .52.07.88.07.35.24.56.17.22.45.31t.72.09m16.73 12.77h4.67v-7.61h-2.9q-.11 1.49-.28 2.68-.18 1.19-.41 2.12t-.5 1.62-.58 1.19m7.43-.08h2.16v5.2q0 .4-.22.63t-.58.23h-1.77v-3.96h-8.83v3.15q0 .3-.19.55-.19.26-.6.26h-1.79v-5.98h.33q.41 0 .79-.11t.73-.46q.35-.34.66-.99.32-.65.57-1.74.26-1.09.45-2.67.19-1.59.3-3.81h7.99zm14.9-9.7v11.8h-2.85v-9.63h-2.89q-.14 2.18-.43 3.75t-.68 2.66q-.4 1.09-.89 1.75-.49.67-1.04 1.03-.55.37-1.14.49-.58.12-1.18.12-.63 0-.93-.11-.29-.11-.29-.3v-1.77h.68q.38 0 .76-.12.38-.11.73-.47.36-.36.68-1.02t.59-1.74q.27-1.09.48-2.67.21-1.57.32-3.77zm7.54 5.31h1.41v-3.46h-1.54q-.54 0-.89.16-.36.15-.58.4-.23.25-.32.56t-.09.61q0 .81.54 1.27.55.46 1.47.46m-.21-5.31h4.33v11.8h-2.71v-4.74h-.49q-.35 0-.57.07-.22.06-.38.17-.15.11-.26.27t-.23.35l-1.88 2.9q-.14.24-.3.43-.15.18-.35.3-.21.12-.48.19-.27.06-.65.06h-1.96l2.98-4.16q.24-.44.56-.7.32-.27.76-.43-.83-.15-1.41-.47-.58-.31-.94-.73-.35-.42-.51-.9-.17-.49-.17-.96 0-.65.26-1.28.26-.62.83-1.1.56-.48 1.44-.78.89-.29 2.13-.29m24.88-4.83h2.32v16.63h-3.11v-10.42q0-.59.03-1.23t.14-1.37q-.23.65-.5 1.19-.27.55-.53.96l-6.36 9.92q-.1.17-.24.34-.15.17-.32.31-.17.13-.38.21-.21.09-.43.09h-2.32v-16.63h3.11v10.42q0 .59-.03 1.24t-.13 1.37q.23-.64.5-1.2.27-.55.53-.96l6.35-9.91q.1-.18.25-.35.14-.17.31-.3.17-.14.38-.22.2-.09.43-.09m17.64 0v2.54h-5.02v14.09h-3.09v-14.09h-5.01v-2.54zm16.52 6.29-.74 1.04q-.13.16-.25.25t-.35.09q-.22 0-.43-.13-.2-.13-.49-.3t-.69-.3q-.39-.13-.98-.13-.75 0-1.31.27t-.94.78q-.37.5-.56 1.22-.18.72-.18 1.63 0 .94.2 1.68.2.73.58 1.23t.92.76 1.22.26 1.1-.17q.42-.16.71-.36.28-.21.5-.37.21-.17.47-.17.35 0 .52.27l.82 1.03q-.47.55-1.03.93-.55.37-1.14.59-.59.23-1.22.32t-1.25.09q-1.09 0-2.05-.41-.97-.4-1.7-1.19-.72-.78-1.14-1.91t-.42-2.58q0-1.3.37-2.41.38-1.11 1.1-1.92.73-.81 1.8-1.27t2.46-.46q1.32 0 2.32.42.99.43 1.78 1.22m12.17-1.46v11.8h-2.84v-9.69h-4.6v9.69h-2.84v-11.8zm5.06 4.54h5.36q0-.55-.16-1.04-.15-.49-.46-.85-.31-.37-.79-.58-.48-.22-1.11-.22-1.23 0-1.94.7-.7.71-.9 1.99m7.25 1.72h-7.31q.07.91.32 1.57.26.66.67 1.09.42.43.99.64.56.22 1.25.22t1.19-.17q.5-.16.88-.35.37-.2.65-.36.29-.16.55-.16.36 0 .53.27l.82 1.03q-.48.55-1.06.93-.59.37-1.23.59-.64.23-1.3.32t-1.28.09q-1.23 0-2.29-.41-1.06-.4-1.84-1.2t-1.23-1.98-.45-2.73q0-1.21.39-2.27.4-1.07 1.13-1.86.73-.78 1.78-1.24t2.37-.46q1.12 0 2.06.35.94.36 1.62 1.04.68.69 1.07 1.68.38 1 .38 2.27 0 .65-.14.87-.13.23-.52.23m13.07 3.44h2.17v5.2q0 .4-.23.63t-.58.23h-1.77v-3.96h-9.87v-11.8h2.84v9.7h4.6v-9.7h2.84zm12.83-9.7h1.73v11.8h-2.84v-6.89q0-.26.03-.58t.07-.64q-.23.53-.5.93-.03.03-.23.32l-.54.75q-.33.46-.74 1.04t-.84 1.18q-1 1.42-2.26 3.2-.17.24-.42.47-.26.23-.6.23h-1.73v-11.8h2.84v6.89q0 .27-.03.58-.03.32-.08.64.26-.56.51-.93.01-.02.22-.31t.53-.75q.33-.46.74-1.04.42-.58.84-1.19 1-1.41 2.28-3.2.16-.25.43-.47.26-.23.59-.23m10.77 8.75v-1.99q-1.23.06-2.07.22-.84.15-1.35.39-.5.24-.72.57-.22.32-.22.7 0 .74.44 1.07.45.32 1.16.32.87 0 1.51-.32.64-.31 1.25-.96m-6-6.2-.51-.9q2.04-1.87 4.9-1.87 1.03 0 1.85.34t1.38.94q.56.61.86 1.45.29.84.29 1.84v7.45h-1.29q-.4 0-.62-.12t-.34-.49l-.26-.85q-.45.4-.87.71-.43.3-.89.51t-.98.31q-.52.11-1.16.11-.74 0-1.38-.2-.63-.2-1.09-.6t-.71-1-.25-1.39q0-.45.15-.89.15-.45.48-.85.34-.4.88-.76t1.33-.62 1.84-.43q1.04-.17 2.39-.2v-.69q0-1.19-.51-1.76-.5-.57-1.46-.57-.69 0-1.14.17-.46.16-.8.36l-.63.36q-.28.16-.62.16-.3 0-.51-.15-.21-.16-.33-.37m22.39-2.55v11.8h-2.84v-9.63h-2.9q-.14 2.18-.43 3.75t-.68 2.66q-.4 1.09-.89 1.75-.49.67-1.04 1.03-.55.37-1.14.49-.58.12-1.18.12-.63 0-.93-.11-.29-.11-.29-.3v-1.77h.68q.38 0 .76-.12.38-.11.73-.47.36-.36.68-1.02t.59-1.74q.27-1.09.48-2.67.21-1.57.32-3.77zm11.68 0h1.73v11.8h-2.85v-6.89q0-.26.03-.58t.08-.64q-.23.53-.51.93-.02.03-.23.32-.2.29-.53.75t-.74 1.04q-.42.58-.84 1.18-1 1.42-2.27 3.2-.16.24-.42.47t-.59.23h-1.74v-11.8h2.84v6.89q0 .27-.03.58-.02.32-.07.64.25-.56.51-.93.01-.02.21-.31l.54-.75q.33-.46.74-1.04l.84-1.19q1-1.41 2.28-3.2.16-.25.42-.47.27-.23.6-.23m13.73 1.46-.75 1.04q-.12.16-.24.25t-.35.09q-.22 0-.43-.13t-.49-.3q-.29-.17-.69-.3t-.98-.13q-.75 0-1.31.27-.57.27-.94.78-.37.5-.56 1.22-.18.72-.18 1.63 0 .94.2 1.68.2.73.58 1.23t.92.76 1.22.26 1.1-.17q.42-.16.7-.36l.51-.37q.21-.17.47-.17.35 0 .52.27l.82 1.03q-.48.55-1.03.93-.55.37-1.14.59-.59.23-1.22.32t-1.25.09q-1.09 0-2.06-.41-.96-.4-1.69-1.19-.72-.78-1.14-1.91t-.42-2.58q0-1.3.37-2.41.38-1.11 1.1-1.92.73-.81 1.79-1.27 1.07-.46 2.47-.46 1.32 0 2.31.42 1 .43 1.79 1.22m12.01-1.46v2.11h-4.21v9.69h-2.84v-9.69h-4.2v-2.11zm6.9-.18q1.31 0 2.38.42 1.08.43 1.84 1.21.77.78 1.18 1.91.42 1.13.42 2.52 0 1.4-.42 2.53-.41 1.12-1.18 1.92-.76.79-1.84 1.22-1.07.42-2.38.42-1.33 0-2.41-.42-1.08-.43-1.84-1.22-.77-.8-1.19-1.92-.42-1.13-.42-2.53 0-1.39.42-2.52t1.19-1.91q.76-.78 1.84-1.21 1.08-.42 2.41-.42m0 9.97q1.47 0 2.18-.99.7-.99.7-2.9t-.7-2.91q-.71-1-2.18-1-1.5 0-2.22 1.01-.72 1-.72 2.9t.72 2.89q.72 1 2.22 1m10.69.07h2.12q.9 0 1.42-.44t.52-1.2q0-.32-.08-.6-.09-.28-.31-.49t-.59-.32q-.38-.12-.95-.12h-2.13zm1.87-8.01h-1.87v3.1h1.87q.41 0 .75-.12.35-.13.6-.35.26-.22.39-.53.14-.3.14-.67 0-.27-.09-.52-.09-.26-.31-.46-.22-.21-.58-.33t-.9-.12m-4.57-1.85h4.65q1.11 0 1.92.22t1.34.6.78.9q.26.52.26 1.13 0 .38-.1.79t-.35.79q-.24.38-.67.69-.42.31-1.08.48.59.13 1.07.35.48.23.83.57.34.33.53.79.19.45.19 1.02 0 .89-.37 1.55-.38.66-1 1.08-.63.43-1.45.63-.82.21-1.72.21h-4.83zm-233.27 22.77v2.38h-7.15v14.25h-3.1v-16.63zm7.99 13.58v-1.99q-1.24.06-2.07.22-.84.15-1.35.39t-.72.57q-.22.32-.22.7 0 .74.44 1.07.44.32 1.16.32.87 0 1.51-.32.64-.31 1.25-.96m-6.01-6.2-.5-.9q2.03-1.87 4.9-1.87 1.03 0 1.85.34.81.34 1.38.94.56.61.85 1.45.3.84.3 1.84v7.45h-1.29q-.4 0-.62-.12t-.35-.49l-.25-.85q-.45.4-.87.71-.43.3-.89.51t-.98.31q-.53.11-1.16.11-.75 0-1.38-.2t-1.09-.6-.71-1q-.26-.6-.26-1.39 0-.45.15-.89.15-.45.49-.85t.88-.76 1.33-.62 1.83-.43q1.05-.17 2.4-.2v-.69q0-1.19-.51-1.76t-1.46-.57q-.69 0-1.15.17-.45.16-.79.36l-.63.36q-.28.16-.63.16-.3 0-.5-.15-.21-.16-.34-.37m20.32-2.55h1.73v11.8h-2.84v-6.89q0-.26.03-.58.02-.32.07-.64-.23.53-.51.93-.02.03-.23.32-.2.29-.53.75t-.74 1.04q-.42.58-.84 1.18-1 1.42-2.27 3.2-.16.24-.42.47t-.59.23h-1.74v-11.8h2.85v6.89q0 .27-.03.58-.03.32-.08.64.25-.56.51-.93.01-.02.22-.31.2-.29.53-.75t.74-1.04q.42-.58.84-1.19 1-1.42 2.28-3.2.16-.25.42-.47.27-.23.6-.23m-3.41-2.99q.42 0 .71-.09t.46-.31q.17-.21.24-.57.07-.35.07-.87h1.68q.3 0 .44.25.15.25.15.54 0 .59-.27 1.07-.26.48-.76.8-.49.33-1.18.51t-1.54.18-1.54-.18-1.19-.51q-.49-.32-.76-.8-.26-.48-.26-1.07 0-.29.14-.54.15-.25.44-.25h1.68q0 .52.07.87.07.36.24.57.18.22.46.31t.72.09m19.27 2.97h2.35v11.82h-2.57v-6.58q0-.4.04-.91.04-.5.14-.94l-3.48 6.37q-.25.5-.8.5h-.3q-.55 0-.81-.5l-3.52-6.4q.08.43.14.95.05.52.05.93v6.58h-2.57v-11.82h2.35q.3 0 .59.12.3.13.49.51l2.78 4.97q.19.34.35.73.16.38.3.77.14-.39.29-.78.16-.39.34-.72l2.76-4.97q.21-.39.49-.51.29-.12.59-.12m10.37-.16q1.32 0 2.39.42 1.08.43 1.84 1.21.77.78 1.18 1.91t.41 2.52q0 1.4-.41 2.53-.41 1.12-1.18 1.92-.76.79-1.84 1.22-1.07.42-2.39.42t-2.4-.42q-1.08-.43-1.85-1.22-.76-.8-1.18-1.92-.42-1.13-.42-2.53 0-1.39.42-2.52t1.18-1.91q.77-.78 1.85-1.21 1.08-.42 2.4-.42m0 9.97q1.48 0 2.18-.99.71-.99.71-2.9t-.71-2.91q-.7-1-2.18-1-1.49 0-2.21 1.01-.72 1-.72 2.9t.72 2.89q.72 1 2.21 1m10.84-6.34v5.29q.48.59 1.05.83t1.24.24q.64 0 1.16-.24.51-.24.88-.74.36-.49.55-1.24.2-.76.2-1.78 0-1.04-.17-1.76-.16-.71-.47-1.16t-.76-.66q-.44-.21-1-.21-.89 0-1.51.38-.62.37-1.17 1.05m-.38-2.93.23 1.09q.72-.82 1.64-1.32.92-.51 2.16-.51.97 0 1.77.4.8.41 1.38 1.17.58.77.9 1.89.31 1.12.31 2.57 0 1.32-.35 2.45-.36 1.12-1.02 1.95t-1.6 1.3q-.94.46-2.1.46-.99 0-1.69-.3-.7-.31-1.25-.85v4.83h-2.84v-15.65h1.73q.56 0 .73.52m19.47-.52h1.72v11.8h-2.84v-6.89q0-.26.03-.58t.08-.64q-.23.53-.51.93-.02.03-.23.32l-.54.75q-.32.46-.74 1.04-.41.58-.84 1.18-1 1.42-2.26 3.2-.16.24-.42.47t-.59.23h-1.74v-11.8h2.84v6.89q0 .27-.03.58-.03.32-.07.64.25-.56.5-.93.01-.02.22-.31l.54-.75q.32-.46.74-1.04l.84-1.19q1-1.42 2.27-3.2.16-.25.43-.47.26-.23.6-.23m23.97-4.83v16.63h-3.11v-14.25h-4.54q-.17 3.13-.46 5.41t-.7 3.89q-.41 1.6-.93 2.6t-1.15 1.56q-.62.56-1.33.76t-1.49.2q-.83 0-1.21-.15t-.38-.43v-1.94h.88q.3 0 .61-.07.3-.06.61-.29.3-.22.59-.65.3-.42.57-1.14t.5-1.77q.24-1.04.43-2.52.19-1.47.33-3.41.15-1.93.22-4.43zm2.85 15.07q0-.36.13-.68t.36-.55.55-.37.69-.14.69.14q.31.14.55.37.23.23.37.55t.14.68-.14.68-.37.55q-.24.23-.55.36-.32.13-.69.13t-.69-.13-.55-.36-.36-.55-.13-.68m17.74-2.36q.25 0 .45.19l1.22 1.33q-1.01 1.25-2.49 1.92-1.48.66-3.55.66-1.85 0-3.33-.63t-2.52-1.76q-1.05-1.13-1.61-2.69t-.56-3.41q0-1.88.6-3.44t1.69-2.68q1.08-1.13 2.59-1.76 1.51-.62 3.34-.62 1.81 0 3.22.59 1.41.6 2.4 1.57l-1.04 1.44q-.09.13-.23.24-.15.1-.4.1-.17 0-.36-.1-.18-.09-.4-.24-.22-.14-.5-.31-.29-.18-.67-.32t-.88-.24-1.16-.1q-1.11 0-2.04.4-.92.39-1.59 1.15-.67.75-1.04 1.84-.36 1.08-.36 2.48t.39 2.49q.4 1.09 1.08 1.84t1.6 1.15q.92.39 1.98.39.63 0 1.14-.07t.94-.22.82-.38q.38-.24.76-.58.12-.11.24-.17.13-.06.27-.06m2.93 2.36q0-.36.13-.68.14-.32.37-.55t.55-.37.69-.14.68.14q.32.14.55.37.24.23.38.55t.14.68-.14.68-.38.55q-.23.23-.55.36-.31.13-.68.13t-.69-.13-.55-.36-.37-.55q-.13-.32-.13-.68m-116.7 27.03h2.99v2.13h-9.2v-2.13h3.37v-9.69q0-.58.03-1.19l-2.39 2q-.21.17-.41.21t-.38 0q-.17-.03-.31-.12t-.21-.19l-.9-1.23 5.08-4.31h2.33zm11.1.09q.7 0 1.23-.2t.89-.55q.36-.36.55-.86.18-.49.18-1.07 0-1.36-.76-2.07-.76-.7-2.09-.7-1.34 0-2.1.7-.75.71-.75 2.07 0 .58.18 1.07.18.5.55.86.36.35.89.55t1.23.2m0-12.63q-.64 0-1.1.19-.46.2-.76.52-.3.33-.45.76-.14.42-.14.89 0 .5.12.97.12.46.41.82.28.37.76.58.47.22 1.16.22t1.16-.22q.47-.21.76-.58.29-.36.41-.82.12-.47.12-.97 0-.47-.15-.89-.15-.43-.45-.76-.3-.32-.76-.52-.46-.19-1.09-.19m2.8 6q1.52.49 2.25 1.51.72 1.02.72 2.49 0 1.1-.42 2t-1.18 1.53-1.82.98q-1.06.34-2.35.34t-2.35-.34q-1.07-.35-1.83-.98t-1.18-1.53-.42-2q0-1.47.73-2.49.72-1.02 2.24-1.51-1.21-.51-1.81-1.44t-.6-2.24q0-.94.38-1.76.39-.82 1.08-1.42t1.65-.94 2.11-.34 2.11.34 1.65.94 1.07 1.42q.39.82.39 1.76 0 1.31-.61 2.24-.6.93-1.81 1.44m4.86 7.11q0-.36.13-.68t.36-.55.55-.37.69-.14.69.14q.31.14.55.37.23.23.37.55t.14.68-.14.68-.37.55q-.24.23-.55.36-.32.13-.69.13t-.69-.13-.55-.36-.36-.55-.13-.68m17.23-6.75q0 2.17-.46 3.77-.47 1.61-1.29 2.65-.82 1.05-1.94 1.56t-2.42.51-2.41-.51-1.93-1.56q-.82-1.04-1.28-2.65-.46-1.6-.46-3.77 0-2.19.46-3.79t1.28-2.64q.82-1.05 1.93-1.56t2.41-.51 2.42.51 1.94 1.56q.82 1.04 1.29 2.64.46 1.6.46 3.79m-2.93 0q0-1.81-.26-2.99-.27-1.19-.71-1.89t-1.02-.98q-.57-.29-1.19-.29-.61 0-1.18.29-.57.28-1.01.98t-.69 1.89q-.26 1.18-.26 2.99 0 1.8.26 2.99.25 1.18.69 1.88t1.01.98q.57.29 1.18.29.62 0 1.19-.29.58-.28 1.02-.98t.71-1.88q.26-1.19.26-2.99m10.18 6.27q.7 0 1.23-.2t.89-.55q.36-.36.55-.86.18-.49.18-1.07 0-1.36-.76-2.07-.76-.7-2.09-.7t-2.09.7q-.76.71-.76 2.07 0 .58.18 1.07.19.5.55.86.36.35.89.55t1.23.2m0-12.63q-.63 0-1.09.19-.46.2-.77.52-.3.33-.45.76-.14.42-.14.89 0 .5.12.97.12.46.41.82.29.37.76.58.47.22 1.16.22t1.16-.22q.47-.21.76-.58.29-.36.41-.82.12-.47.12-.97 0-.47-.15-.89-.15-.43-.45-.76-.3-.32-.76-.52-.46-.19-1.09-.19m2.81 6q1.51.49 2.24 1.51.72 1.02.72 2.49 0 1.1-.42 2t-1.18 1.53q-.75.63-1.82.98-1.06.34-2.35.34t-2.35-.34q-1.07-.35-1.82-.98-.76-.63-1.18-1.53t-.42-2q0-1.47.72-2.49.73-1.02 2.24-1.51-1.2-.51-1.81-1.44-.6-.93-.6-2.24 0-.94.38-1.76.39-.82 1.08-1.42t1.65-.94 2.11-.34 2.11.34 1.65.94 1.08 1.42q.38.82.38 1.76 0 1.31-.6 2.24-.61.93-1.81 1.44m4.85 7.11q0-.36.13-.68t.36-.55.56-.37q.32-.14.69-.14.36 0 .68.14t.55.37q.24.23.38.55.13.32.13.68t-.13.68q-.14.32-.38.55-.23.23-.55.36t-.68.13q-.37 0-.69-.13-.33-.13-.56-.36t-.36-.55-.13-.68m11.49-1.09h4.26q.46 0 .73.26t.27.69v1.7h-11.4v-.94q0-.29.12-.61.12-.31.38-.57l5.05-5.06q.63-.64 1.13-1.23.5-.58.84-1.16.33-.57.51-1.17.18-.59.18-1.24 0-.6-.18-1.06-.17-.45-.48-.76-.32-.31-.76-.47-.45-.15-1-.15-.5 0-.93.14-.44.15-.77.41-.33.25-.56.6-.23.34-.35.76-.19.53-.5.7t-.9.08l-1.5-.26q.18-1.2.67-2.1.5-.91 1.24-1.51t1.7-.91q.96-.3 2.06-.3 1.15 0 2.11.34.95.34 1.63.96t1.06 1.49q.38.88.38 1.95 0 .91-.27 1.7-.27.78-.73 1.49-.45.71-1.06 1.38t-1.28 1.36l-3.75 3.83q.54-.16 1.08-.25.53-.09 1.02-.09m19.09-5.66q0 2.17-.47 3.77-.46 1.61-1.29 2.65-.82 1.05-1.94 1.56t-2.42.51-2.41-.51-1.93-1.56q-.81-1.04-1.27-2.65-.46-1.6-.46-3.77 0-2.19.46-3.79t1.27-2.64q.82-1.05 1.93-1.56t2.41-.51 2.42.51 1.94 1.56q.83 1.04 1.29 2.64.47 1.6.47 3.79m-2.94 0q0-1.81-.26-2.99-.26-1.19-.71-1.89-.44-.7-1.01-.98-.58-.29-1.2-.29-.61 0-1.18.29-.57.28-1.01.98-.43.7-.69 1.89-.26 1.18-.26 2.99 0 1.8.26 2.99.26 1.18.69 1.88.44.7 1.01.98.57.29 1.18.29.62 0 1.2-.29.57-.28 1.01-.98.45-.7.71-1.88.26-1.19.26-2.99m10.53 5.66h4.26q.46 0 .73.26t.27.69v1.7h-11.4v-.94q0-.29.12-.61.12-.31.38-.57l5.05-5.06q.63-.64 1.13-1.23.5-.58.84-1.16.33-.57.51-1.17.18-.59.18-1.24 0-.6-.18-1.06-.17-.45-.48-.76-.32-.31-.76-.47-.45-.15-1-.15-.5 0-.93.14-.44.15-.77.41-.33.25-.56.6-.23.34-.35.76-.19.53-.5.7t-.9.08l-1.5-.26q.18-1.2.67-2.1.5-.91 1.24-1.51t1.7-.91q.96-.3 2.06-.3 1.15 0 2.11.34.95.34 1.63.96t1.06 1.49q.38.88.38 1.95 0 .91-.27 1.7-.27.78-.73 1.49-.45.71-1.06 1.38t-1.28 1.36l-3.75 3.83q.54-.16 1.08-.25.53-.09 1.02-.09m13.34 0h4.26q.46 0 .73.26t.27.69v1.7h-11.4v-.94q0-.29.12-.61.12-.31.38-.57l5.05-5.06q.63-.64 1.13-1.23.5-.58.84-1.16.33-.57.51-1.17.18-.59.18-1.24 0-.6-.18-1.06-.17-.45-.48-.76-.32-.31-.76-.47-.45-.15-1-.15-.5 0-.93.14-.44.15-.77.41-.33.25-.56.6-.23.34-.35.76-.19.53-.5.7t-.9.08l-1.5-.26q.18-1.2.67-2.1.5-.91 1.24-1.51t1.7-.91q.96-.3 2.06-.3 1.15 0 2.11.34.95.34 1.63.96t1.06 1.49q.38.88.38 1.95 0 .91-.27 1.7-.27.78-.73 1.49-.45.71-1.06 1.38t-1.28 1.36l-3.75 3.83q.54-.16 1.08-.25.53-.09 1.02-.09"/></svg>