<svg xmlns="http://www.w3.org/2000/svg" width="600" height="400" viewBox="0 0 600 400"><rect width="100%" height="100%" fill="#5F9EA0"/><path fill="#FFFFFF" d="M128.975 163.995v16.63h-3.12v-14.25h-7.22v14.25h-3.1v-16.63zm8.47 4.65q1.32 0 2.39.42 1.08.43 1.84 1.21.77.78 1.18 1.91t.41 2.52q0 1.4-.41 2.53-.41 1.12-1.18 1.92-.76.79-1.84 1.22-1.07.42-2.39.42t-2.4-.42q-1.08-.43-1.84-1.22-.77-.8-1.19-1.92-.42-1.13-.42-2.53 0-1.39.42-2.52t1.19-1.91q.76-.78 1.84-1.21 1.08-.42 2.4-.42m0 9.97q1.48 0 2.18-.99.71-.99.71-2.9t-.71-2.91q-.7-1-2.18-1-1.49 0-2.21 1.01-.72 1-.72 2.9t.72 2.89q.72 1 2.21 1m18.94-9.79v11.8h-2.84v-9.63h-2.89q-.14 2.18-.43 3.75t-.68 2.66q-.4 1.09-.89 1.75-.49.67-1.04 1.03-.55.37-1.14.49-.58.12-1.18.12-.64 0-.93-.11t-.29-.3v-1.77h.68q.38 0 .76-.12.38-.11.73-.47.36-.36.68-1.02t.59-1.74q.27-1.09.48-2.67.21-1.57.32-3.77zm5.51 9.76h2.12q.97 0 1.44-.48.48-.48.48-1.24 0-.32-.11-.62t-.34-.53-.6-.36q-.36-.14-.88-.14h-2.11zm0-5.39h2.1q1.23 0 2.08.3t1.38.8q.53.51.76 1.17.24.66.24 1.39 0 .83-.29 1.52-.3.7-.87 1.2t-1.39.77q-.82.28-1.88.28h-4.83v-11.8h2.7zm17.66-2.91-.75 1.04q-.13.16-.25.25t-.35.09q-.22 0-.43-.13-.2-.13-.49-.3t-.68-.3q-.4-.13-.99-.13-.74 0-1.31.27-.56.27-.94.78-.37.5-.55 1.22-.19.72-.19 1.63 0 .94.2 1.68.21.73.58 1.23.38.5.92.76.55.26 1.22.26.68 0 1.1-.17.42-.16.71-.36.29-.21.5-.37.21-.17.48-.17.34 0 .51.27l.82 1.03q-.47.55-1.02.93-.55.37-1.15.59-.59.23-1.22.32-.62.09-1.24.09-1.1 0-2.06-.41-.97-.4-1.69-1.19-.73-.78-1.15-1.91t-.42-2.58q0-1.3.38-2.41.37-1.11 1.1-1.92.72-.81 1.79-1.27t2.46-.46q1.32 0 2.32.42.99.43 1.79 1.22m6.92 2.68 2.01-3.39q.21-.33.56-.54.36-.21.76-.21h2.23l-2.74 4.38q-.29.46-.59.74-.3.29-.72.45.57.17.94.51t.67.86l2.76 4.86h-1.97q-.75 0-1.16-.25-.42-.26-.7-.73l-1.74-3.26q-.23-.43-.59-.64-.37-.2-.85-.2h-1.07v5.08h-2.84v-11.8h2.84v4.87h.92q.49 0 .78-.18t.5-.55m16.33-4.14h1.72v11.8h-2.84v-6.89q0-.26.03-.58t.08-.64q-.23.53-.51.93-.02.03-.23.32t-.53.75q-.33.46-.75 1.04-.41.58-.84 1.18-1 1.42-2.26 3.2-.16.24-.42.47t-.59.23h-1.74v-11.8h2.84v6.89q0 .27-.03.58-.03.32-.07.64.25-.56.5-.93.02-.02.22-.31l.54-.75q.32-.46.74-1.04l.84-1.19q1-1.41 2.28-3.2.16-.25.42-.47.27-.23.6-.23m13.41 0h1.72v11.8h-2.84v-6.89q0-.26.03-.58t.08-.64q-.23.53-.51.93-.02.03-.23.32t-.53.75q-.33.46-.75 1.04-.41.58-.84 1.18-1 1.42-2.26 3.2-.16.24-.42.47t-.59.23h-1.74v-11.8h2.84v6.89q0 .27-.03.58-.03.32-.07.64.25-.56.5-.93.01-.02.22-.31l.54-.75q.32-.46.74-1.04l.84-1.19 2.27-3.2q.17-.25.43-.47.26-.23.6-.23m-3.42-2.99q.43 0 .72-.09.28-.09.46-.31.17-.21.24-.56.07-.36.07-.88h1.67q.3 0 .45.25.14.25.14.54 0 .59-.26 1.07-.27.48-.76.8-.5.33-1.19.51t-1.54.18-1.54-.18-1.18-.51q-.5-.32-.76-.8-.27-.48-.27-1.07 0-.29.15-.54.14-.25.44-.25h1.68q0 .52.07.88.07.35.24.56.17.22.45.31.29.09.72.09m16.24 12.85h2.12q.89 0 1.42-.44.52-.44.52-1.2 0-.32-.09-.6-.08-.28-.3-.49t-.59-.32q-.38-.12-.95-.12h-2.13zm1.86-8.01h-1.86v3.1h1.86q.42 0 .76-.12.35-.13.6-.35t.39-.53q.14-.3.14-.67 0-.27-.09-.52-.09-.26-.31-.46-.22-.21-.58-.33-.37-.12-.91-.12m-4.56-1.85h4.64q1.12 0 1.93.22t1.34.6.78.9.25 1.13q0 .38-.09.79-.1.41-.35.79t-.67.69q-.43.31-1.08.48.58.13 1.07.35.48.23.83.57.34.33.53.79.19.45.19 1.02 0 .89-.37 1.55-.38.66-1 1.08-.63.43-1.45.63-.83.21-1.72.21h-4.83zm22.37-.18q1.31 0 2.38.42 1.08.43 1.84 1.21.77.78 1.18 1.91t.41 2.52q0 1.4-.41 2.53-.41 1.12-1.18 1.92-.76.79-1.84 1.22-1.07.42-2.38.42-1.33 0-2.41-.42-1.08-.43-1.84-1.22-.77-.8-1.19-1.92-.42-1.13-.42-2.53 0-1.39.42-2.52t1.19-1.91q.76-.78 1.84-1.21 1.08-.42 2.41-.42m0 9.97q1.47 0 2.17-.99.71-.99.71-2.9t-.71-2.91q-.7-1-2.17-1-1.5 0-2.22 1.01-.72 1-.72 2.9t.72 2.89q.72 1 2.22 1m18.27-9.79v11.8h-2.84v-9.69h-4.6v9.69h-2.84v-11.8zm11.69 0h1.73v11.8h-2.84v-6.89q0-.26.03-.58t.07-.64q-.23.53-.5.93-.03.03-.23.32l-.54.75q-.33.46-.74 1.04t-.84 1.18q-1 1.42-2.27 3.2-.16.24-.41.47-.26.23-.6.23h-1.73v-11.8h2.84v6.89q0 .27-.03.58-.03.32-.08.64.26-.56.51-.93.01-.02.22-.31.2-.29.53-.75t.74-1.04q.42-.58.84-1.19 1-1.41 2.28-3.2.16-.25.43-.47.26-.23.59-.23m13.74 1.46-.75 1.04q-.13.16-.25.25t-.35.09q-.22 0-.43-.13-.2-.13-.49-.3t-.68-.3q-.4-.13-.99-.13-.75 0-1.31.27t-.94.78q-.37.5-.55 1.22-.19.72-.19 1.63 0 .94.2 1.68.2.73.58 1.23t.92.76 1.22.26 1.1-.17q.42-.16.71-.36.29-.21.5-.37.21-.17.48-.17.34 0 .51.27l.82 1.03q-.47.55-1.02.93-.56.37-1.15.59-.59.23-1.22.32-.62.09-1.24.09-1.1 0-2.06-.41-.97-.4-1.69-1.19-.73-.78-1.15-1.91t-.42-2.58q0-1.3.38-2.41.37-1.11 1.09-1.92.73-.81 1.8-1.27t2.46-.46q1.32 0 2.32.42.99.43 1.79 1.22m8.11 7.29v-1.99q-1.23.06-2.07.22-.84.15-1.34.39-.51.24-.73.57-.21.32-.21.7 0 .74.44 1.07.44.32 1.15.32.88 0 1.52-.32.63-.31 1.24-.96m-6-6.2-.5-.9q2.03-1.87 4.89-1.87 1.04 0 1.86.34.81.34 1.38.94.56.61.85 1.45.3.84.3 1.84v7.45h-1.29q-.4 0-.62-.12t-.35-.49l-.25-.85q-.45.4-.88.71-.42.3-.88.51t-.98.31q-.53.11-1.16.11-.75 0-1.38-.2t-1.09-.6-.72-1q-.25-.6-.25-1.39 0-.45.15-.89.15-.45.49-.85t.88-.76 1.33-.62 1.83-.43q1.05-.17 2.39-.2v-.69q0-1.19-.5-1.76-.51-.57-1.46-.57-.69 0-1.15.17-.45.16-.8.36-.34.2-.62.36t-.63.16q-.3 0-.51-.15-.2-.16-.33-.37m21.56-2.55v2.11h-4.21v9.69h-2.84v-9.69h-4.19v-2.11zm3.93 4.54h5.35q0-.55-.15-1.04-.16-.49-.47-.85-.31-.37-.78-.58-.48-.22-1.11-.22-1.23 0-1.94.7-.71.71-.9 1.99m7.24 1.72h-7.3q.07.91.32 1.57t.67 1.09q.41.43.98.64.57.22 1.26.22t1.19-.17q.5-.16.87-.35.38-.2.66-.36t.55-.16q.35 0 .52.27l.82 1.03q-.47.55-1.06.93-.58.37-1.22.59-.64.23-1.3.32t-1.28.09q-1.23 0-2.29-.41-1.06-.4-1.84-1.2t-1.23-1.98-.45-2.73q0-1.21.39-2.27.39-1.07 1.12-1.86.73-.78 1.78-1.24 1.06-.46 2.38-.46 1.11 0 2.06.35.94.36 1.62 1.04.68.69 1.06 1.68.39 1 .39 2.27 0 .65-.14.87-.14.23-.53.23m13.74-6.26v11.8h-2.84v-9.63h-2.9q-.13 2.18-.42 3.75t-.69 2.66q-.39 1.09-.88 1.75-.49.67-1.04 1.03-.55.37-1.14.49t-1.18.12q-.64 0-.93-.11t-.29-.3v-1.77h.67q.38 0 .76-.12.38-.11.74-.47t.68-1.02.59-1.74q.27-1.09.48-2.67.2-1.57.32-3.77zm5.51 9.76h2.12q.96 0 1.44-.48t.48-1.24q0-.32-.11-.62t-.34-.53-.6-.36q-.37-.14-.88-.14h-2.11zm0-5.39h2.09q1.23 0 2.09.3.85.3 1.38.8.52.51.76 1.17t.24 1.39q0 .83-.3 1.52-.29.7-.86 1.2t-1.39.77q-.82.28-1.88.28h-4.83v-11.8h2.7zm15.89-4.37h2.84v11.8h-2.84v-5.22h-4.6v5.22h-2.84v-11.8h2.84v4.47h4.6zm8.36 9.76h2.12q.97 0 1.44-.48.48-.48.48-1.24 0-.32-.11-.62t-.34-.53-.6-.36q-.36-.14-.88-.14h-2.11zm0-5.39h2.1q1.23 0 2.08.3t1.38.8q.53.51.76 1.17.24.66.24 1.39 0 .83-.29 1.52-.3.7-.87 1.2t-1.39.77q-.82.28-1.88.28h-4.83v-11.8h2.7zm8.71-4.37h2.84v11.8h-2.84zm12.14 5.59 4.04 6.21h-2.74q-.31 0-.5-.16t-.31-.37l-2.5-4.1q-.06.19-.13.36-.08.18-.17.33l-2.21 3.41q-.12.2-.31.36-.18.17-.46.17h-2.54l4.05-6.08-3.89-5.72h2.74q.31 0 .46.09.15.08.27.28l2.47 3.93q.12-.39.35-.77l1.99-3.1q.26-.43.66-.43h2.61zm19.35-3.66v7.93q1.71-.13 2.65-1.15.94-1.03.94-2.81t-.94-2.81-2.65-1.16m-2.49 7.93v-7.93q-.85.07-1.51.37-.66.29-1.13.79-.46.51-.7 1.22-.24.7-.24 1.59t.24 1.59q.24.71.7 1.21.47.5 1.13.79.66.3 1.51.37m2.58-14.69v4.66q1.41.08 2.58.53 1.17.46 2 1.24.84.78 1.3 1.86t.46 2.42-.46 2.43-1.3 1.87q-.83.78-2 1.24t-2.58.54v3.8h-2.67v-3.8q-1.41-.08-2.58-.54t-2-1.24q-.84-.78-1.3-1.87t-.46-2.43.46-2.42 1.3-1.86q.83-.78 2-1.24 1.17-.45 2.58-.53v-4.66zm13.7 4.65q1.31 0 2.38.42 1.08.43 1.84 1.21.77.78 1.18 1.91t.41 2.52q0 1.4-.41 2.53-.41 1.12-1.18 1.92-.76.79-1.84 1.22-1.07.42-2.38.42-1.33 0-2.41-.42-1.08-.43-1.84-1.22-.77-.8-1.19-1.92-.42-1.13-.42-2.53 0-1.39.42-2.52t1.19-1.91q.76-.78 1.84-1.21 1.08-.42 2.41-.42m0 9.97q1.47 0 2.18-.99.7-.99.7-2.9t-.7-2.91q-.71-1-2.18-1-1.5 0-2.22 1.01-.72 1-.72 2.9t.72 2.89q.72 1 2.22 1m10.83-6.34v5.29q.48.59 1.05.83t1.24.24q.64 0 1.16-.24t.88-.74q.36-.49.56-1.24.19-.76.19-1.78 0-1.04-.16-1.76-.17-.71-.48-1.16t-.76-.66q-.44-.21-1-.21-.89 0-1.51.38-.62.37-1.17 1.05m-.38-2.93.23 1.09q.72-.82 1.64-1.32.92-.51 2.17-.51.96 0 1.76.4.8.41 1.38 1.17.58.77.9 1.89.31 1.12.31 2.57 0 1.32-.35 2.45-.36 1.12-1.02 1.95t-1.6 1.3q-.94.46-2.1.46-.99 0-1.69-.3-.7-.31-1.25-.85v4.83h-2.84v-15.65h1.73q.56 0 .73.52m21.92-.54h2.34v11.82h-2.56v-6.58q0-.4.04-.91.04-.5.13-.94l-3.47 6.37q-.25.5-.81.5h-.29q-.56 0-.81-.5l-3.52-6.4q.08.43.13.95.06.52.06.93v6.58h-2.57v-11.82h2.35q.3 0 .59.12.29.13.49.51l2.78 4.97q.18.34.35.73.16.38.29.78.14-.4.3-.79.15-.39.34-.72l2.76-4.97q.2-.39.49-.51t.59-.12m11.38 8.77v-1.99q-1.23.06-2.07.22-.84.15-1.34.39-.51.24-.73.57-.22.32-.22.7 0 .74.45 1.07.44.32 1.15.32.88 0 1.52-.32.63-.31 1.24-.96m-6-6.2-.51-.9q2.04-1.87 4.9-1.87 1.04 0 1.85.34.82.34 1.38.94.57.61.86 1.45t.29 1.84v7.45h-1.28q-.41 0-.62-.12-.22-.12-.35-.49l-.25-.85q-.45.4-.88.71-.42.3-.88.51t-.98.31q-.53.11-1.16.11-.75 0-1.38-.2t-1.09-.6-.72-1q-.25-.6-.25-1.39 0-.45.15-.89.15-.45.49-.85t.88-.76 1.33-.62q.78-.26 1.83-.43t2.39-.2v-.69q0-1.19-.5-1.76-.51-.57-1.46-.57-.69 0-1.15.17-.45.16-.8.36-.34.2-.62.36-.29.16-.63.16-.3 0-.51-.15-.2-.16-.33-.37m17.94 3.04 4.04 6.21h-2.74q-.31 0-.5-.16t-.32-.37l-2.49-4.1q-.06.19-.13.36-.08.18-.17.33l-2.21 3.41q-.13.2-.31.36-.18.17-.46.17h-2.54l4.05-6.08-3.89-5.72h2.74q.31 0 .46.09.15.08.26.28l2.47 3.93q.13-.39.36-.77l1.99-3.1q.25-.43.66-.43h2.61zm-235.67 26.76 4.34 7.05h-2.06q-.68 0-1.16-.29-.47-.3-.76-.78l-3.41-5.32q-.31-.51-.69-.72-.38-.2-.96-.2h-1.76v7.31h-2.91v-7.31h-1.76q-.58 0-.96.2-.39.21-.69.72l-3.4 5.32q-.29.48-.77.78-.48.29-1.15.29h-2.07l4.35-7.05q.4-.7.88-1.12.47-.41 1.08-.62-.5-.19-.86-.54-.37-.35-.7-.88l-4.29-6.42h2.45q.47 0 .87.23.39.23.64.64l3.4 5.27q.31.51.68.67t.84.16h1.46v-6.97h2.91v6.97h1.47q.47 0 .83-.16.37-.16.69-.67l3.39-5.27q.24-.41.64-.64t.88-.23h2.44l-4.29 6.42q-.34.53-.69.88-.36.35-.88.54.62.21 1.1.62.48.42.88 1.12m14.65-4.75h1.73v11.8h-2.84v-6.89q0-.26.03-.58.02-.32.07-.64-.23.53-.51.93-.02.03-.23.32-.2.29-.53.75t-.74 1.04q-.42.58-.84 1.18-1 1.42-2.27 3.2-.16.24-.42.47t-.59.23h-1.74v-11.8h2.84v6.89q0 .27-.02.58-.03.32-.08.64.25-.56.51-.93.01-.02.22-.31.2-.29.53-.75t.74-1.04q.42-.58.84-1.19 1-1.42 2.28-3.2.16-.25.42-.47.27-.23.6-.23m7.24 9.86h2.11q.9 0 1.42-.44.53-.44.53-1.2 0-.32-.09-.6t-.31-.49q-.21-.21-.59-.32-.37-.12-.95-.12h-2.12zm1.86-8.01h-1.86v3.1h1.86q.41 0 .76-.12.34-.13.6-.35.25-.22.39-.53.13-.3.13-.67 0-.27-.09-.52-.09-.26-.31-.46-.22-.21-.58-.33t-.9-.12m-4.57-1.85h4.65q1.11 0 1.93.22.81.22 1.34.6.52.38.78.9.25.52.25 1.13 0 .38-.1.79t-.34.79q-.25.38-.68.69-.42.31-1.08.48.59.13 1.07.35.49.23.83.57.35.33.54.79.19.45.19 1.02 0 .89-.38 1.55-.37.65-1 1.08t-1.45.63q-.82.21-1.72.21h-4.83zm21.84 9.7h2.18v5.2q0 .4-.23.63t-.59.23h-1.77v-3.96h-9.87v-11.8h2.84v9.7h4.6v-9.7h2.84zm9.18-9.88q1.31 0 2.38.42 1.08.43 1.84 1.21.77.78 1.18 1.91.42 1.13.42 2.52 0 1.4-.42 2.53-.41 1.12-1.18 1.92-.76.79-1.84 1.22-1.07.42-2.38.42-1.32 0-2.4-.42-1.09-.43-1.85-1.22-.77-.8-1.19-1.92-.41-1.13-.41-2.53 0-1.39.41-2.52.42-1.13 1.19-1.91.76-.78 1.85-1.21 1.08-.42 2.4-.42m0 9.97q1.47 0 2.18-.99t.71-2.9-.71-2.91-2.18-1q-1.5 0-2.22 1.01-.71 1-.71 2.9t.71 2.89q.72 1 2.22 1m10.69.07h2.12q.9 0 1.42-.44t.52-1.2q0-.32-.08-.6-.09-.28-.31-.49t-.59-.32q-.37-.12-.95-.12h-2.13zm1.87-8.01h-1.87v3.1h1.87q.41 0 .76-.12.34-.13.59-.35.26-.22.39-.53.14-.3.14-.67 0-.27-.09-.52-.09-.26-.31-.46-.22-.21-.58-.33t-.9-.12m-4.57-1.85h4.65q1.11 0 1.92.22t1.34.6.79.9q.25.52.25 1.13 0 .38-.1.79t-.34.79q-.25.38-.68.69-.42.31-1.08.48.59.13 1.07.35.48.23.83.57.34.33.53.79.19.45.19 1.02 0 .89-.37 1.55-.37.65-1 1.08t-1.45.63q-.82.21-1.72.21h-4.83zm17.79 8.75v-1.99q-1.23.06-2.07.22-.84.15-1.34.39-.51.24-.73.57-.22.32-.22.7 0 .74.45 1.07.44.32 1.15.32.88 0 1.51-.32.64-.31 1.25-.96m-6-6.2-.51-.9q2.04-1.87 4.9-1.87 1.04 0 1.85.34.82.34 1.38.94.57.61.86 1.45t.29 1.84v7.45h-1.28q-.41 0-.63-.12-.21-.12-.34-.49l-.25-.85q-.45.4-.88.71-.42.3-.88.51t-.99.31q-.52.11-1.15.11-.75 0-1.38-.2t-1.09-.6-.72-1q-.25-.6-.25-1.39 0-.45.15-.89.15-.45.49-.85t.88-.76 1.33-.62q.78-.26 1.83-.43t2.39-.2v-.69q0-1.19-.5-1.76-.51-.57-1.46-.57-.69 0-1.15.17-.45.16-.8.36-.34.2-.63.36-.28.16-.62.16-.3 0-.51-.15-.2-.16-.33-.37m30.92-7.38v16.63h-3.11v-14.25h-7.23v14.25h-3.1v-16.63zm2.84 15.07q0-.36.13-.68.14-.32.37-.55t.55-.37.69-.14.68.14q.32.14.56.37.23.23.37.55t.14.68-.14.68-.37.55q-.24.23-.56.36-.31.13-.68.13t-.69-.13-.55-.36-.37-.55q-.13-.32-.13-.68m17.75-2.36q.25 0 .45.19l1.21 1.33q-1.01 1.25-2.49 1.92-1.47.66-3.54.66-1.85 0-3.33-.63t-2.53-1.76q-1.04-1.13-1.6-2.69t-.56-3.41q0-1.88.6-3.44t1.68-2.68q1.09-1.13 2.6-1.76 1.5-.62 3.33-.62 1.82 0 3.23.59 1.41.6 2.4 1.57l-1.04 1.44q-.09.13-.23.24-.15.1-.4.1-.17 0-.36-.1-.18-.09-.4-.24-.22-.14-.51-.31-.28-.18-.66-.32t-.88-.24-1.16-.1q-1.11 0-2.04.4-.93.39-1.59 1.15-.67.75-1.04 1.84-.37 1.08-.37 2.48t.4 2.49 1.08 1.84q.67.75 1.59 1.15.92.39 1.98.39.63 0 1.15-.07.51-.07.94-.22t.82-.38q.38-.24.76-.58.12-.11.24-.17.13-.06.27-.06m2.93 2.36q0-.36.13-.68t.36-.55.56-.37q.32-.14.69-.14.36 0 .68.14t.55.37q.24.23.38.55.13.32.13.68t-.13.68q-.14.32-.38.55-.23.23-.55.36t-.68.13q-.37 0-.69-.13-.33-.13-.56-.36t-.36-.55-.13-.68m-121.88 26.51h4.27q.46 0 .73.26t.27.69v1.7h-11.41v-.94q0-.29.12-.61.12-.31.39-.57l5.05-5.06q.63-.64 1.13-1.23.5-.58.83-1.16.34-.57.51-1.17.18-.59.18-1.24 0-.6-.17-1.06-.17-.45-.49-.76t-.76-.47q-.44-.15-.99-.15-.51 0-.94.14-.43.15-.76.41-.34.25-.57.6-.23.34-.34.76-.2.53-.51.7t-.9.08l-1.49-.26q.17-1.2.67-2.1.49-.91 1.23-1.51t1.7-.91q.96-.3 2.07-.3 1.15 0 2.1.34.96.34 1.64.96.67.62 1.05 1.49.38.88.38 1.95 0 .91-.27 1.7-.27.78-.72 1.49-.46.71-1.07 1.38-.6.67-1.27 1.36l-3.75 3.83q.54-.16 1.07-.25.54-.09 1.02-.09m15.24.52h2.99v2.13h-9.2v-2.13h3.37v-9.69q0-.58.03-1.19l-2.39 2q-.21.17-.41.21t-.38 0q-.17-.03-.31-.12t-.21-.19l-.9-1.23 5.08-4.31h2.33zm5.42.57q0-.36.13-.68t.36-.55.55-.37.69-.14.69.14q.31.14.55.37.23.23.37.55t.14.68-.14.68-.37.55q-.24.23-.55.36-.32.13-.69.13t-.69-.13-.55-.36-.36-.55-.13-.68m13.38-.57h2.99v2.13h-9.2v-2.13h3.37v-9.69q0-.58.04-1.19l-2.4 2q-.2.17-.4.21-.21.04-.38 0-.18-.03-.32-.12t-.21-.19l-.89-1.23 5.07-4.31h2.33zm11.44-.52h4.27q.46 0 .73.26t.27.69v1.7h-11.41v-.94q0-.29.12-.61.13-.31.39-.57l5.05-5.06q.63-.64 1.13-1.23.5-.58.83-1.16.34-.57.52-1.17.17-.59.17-1.24 0-.6-.17-1.06-.17-.45-.49-.76-.31-.31-.76-.47-.44-.15-.99-.15-.51 0-.94.14-.43.15-.76.41-.34.25-.57.6-.23.34-.34.76-.2.53-.51.7t-.89.08l-1.5-.26q.17-1.2.67-2.1.49-.91 1.23-1.51.75-.6 1.71-.91.96-.3 2.06-.3 1.15 0 2.11.34.95.34 1.63.96t1.06 1.49q.38.88.38 1.95 0 .91-.27 1.7-.27.78-.73 1.49-.45.71-1.06 1.38t-1.28 1.36l-3.75 3.83q.54-.16 1.08-.25.53-.09 1.01-.09m7.32 1.09q0-.36.13-.68t.36-.55.56-.37q.32-.14.69-.14.36 0 .68.14t.55.37q.24.23.38.55.13.32.13.68t-.13.68q-.14.32-.38.55-.23.23-.55.36t-.68.13q-.37 0-.69-.13-.33-.13-.56-.36t-.36-.55-.13-.68m11.49-1.09h4.26q.46 0 .73.26t.27.69v1.7h-11.4v-.94q0-.29.12-.61.12-.31.38-.57l5.05-5.06q.63-.64 1.13-1.23.5-.58.84-1.16.33-.57.51-1.17.18-.59.18-1.24 0-.6-.18-1.06-.17-.45-.48-.76-.32-.31-.76-.47-.45-.15-1-.15-.5 0-.93.14-.44.15-.77.41-.33.25-.56.6-.23.34-.35.76-.19.53-.5.7t-.9.08l-1.5-.26q.18-1.2.67-2.1.5-.91 1.24-1.51t1.7-.91q.96-.3 2.06-.3 1.15 0 2.11.34.95.34 1.63.96t1.06 1.49q.38.88.38 1.95 0 .91-.27 1.7-.27.78-.73 1.49-.45.71-1.06 1.38t-1.28 1.36l-3.75 3.83q.54-.16 1.08-.25.53-.09 1.02-.09m19.09-5.66q0 2.17-.47 3.77-.46 1.61-1.29 2.65-.82 1.05-1.94 1.56t-2.42.51-2.41-.51-1.93-1.56q-.81-1.04-1.27-2.65-.46-1.6-.46-3.77 0-2.19.46-3.79t1.27-2.64q.82-1.05 1.93-1.56t2.41-.51 2.42.51 1.94 1.56q.83 1.04 1.29 2.64.47 1.6.47 3.79m-2.94 0q0-1.81-.26-2.99-.26-1.19-.71-1.89-.44-.7-1.01-.98-.58-.29-1.2-.29-.61 0-1.18.29-.57.28-1.01.98-.43.7-.69 1.89-.26 1.18-.26 2.99 0 1.8.26 2.99.26 1.18.69 1.88.44.7 1.01.98.57.29 1.18.29.62 0 1.2-.29.57-.28 1.01-.98.45-.7.71-1.88.26-1.19.26-2.99m10.53 5.66h4.26q.46 0 .73.26t.27.69v1.7h-11.4v-.94q0-.29.12-.61.12-.31.38-.57l5.05-5.06q.63-.64 1.13-1.23.5-.58.84-1.16.33-.57.51-1.17.18-.59.18-1.24 0-.6-.18-1.06-.17-.45-.48-.76-.32-.31-.76-.47-.45-.15-1-.15-.5 0-.93.14-.44.15-.77.41-.33.25-.56.6-.23.34-.35.76-.19.53-.5.7t-.9.08l-1.5-.26q.18-1.2.67-2.1.5-.91 1.24-1.51t1.7-.91q.96-.3 2.06-.3 1.15 0 2.11.34.95.34 1.63.96t1.06 1.49q.38.88.38 1.95 0 .91-.27 1.7-.27.78-.73 1.49-.45.71-1.06 1.38t-1.28 1.36l-3.75 3.83q.54-.16 1.08-.25.53-.09 1.02-.09m9.06-9.08-1.5-.26q.18-1.2.67-2.1.5-.91 1.24-1.51t1.7-.91q.96-.3 2.06-.3 1.15 0 2.08.32.93.33 1.58.91.66.58 1.01 1.37.35.78.35 1.69 0 .79-.18 1.39-.18.61-.51 1.06-.34.44-.83.75-.49.32-1.12.52 1.5.47 2.24 1.44.73.97.73 2.43 0 1.24-.46 2.19-.46.96-1.24 1.61t-1.81.98-2.18.33q-1.25 0-2.19-.28-.93-.29-1.62-.85-.69-.57-1.17-1.38-.48-.82-.83-1.89l1.25-.52q.5-.21.93-.11t.63.47q.2.4.45.79t.59.7q.35.3.81.49.47.19 1.11.19.73 0 1.27-.23.54-.24.9-.62t.54-.84q.18-.47.18-.94 0-.6-.13-1.09-.12-.49-.52-.83-.41-.35-1.16-.54-.75-.2-2.02-.2v-2.02q1.05-.01 1.74-.2.69-.18 1.1-.51.4-.33.57-.79.16-.46.16-1.01 0-1.17-.66-1.78-.65-.61-1.75-.61-.5 0-.93.14-.42.15-.76.41-.34.25-.57.6-.23.34-.35.76-.19.53-.51.7t-.89.08"/></svg>