<svg xmlns="http://www.w3.org/2000/svg" width="600" height="400" viewBox="0 0 600 400"><rect width="100%" height="100%" fill="#DA70D6"/><path fill="#FFFFFF" d="M129.62 163.995v2.54h-5.01v14.09h-3.1v-14.09h-5.01v-2.54zm4.58 8.28v5.29q.48.59 1.05.83t1.24.24q.64 0 1.16-.24t.88-.74q.36-.49.56-1.24.19-.76.19-1.78 0-1.04-.16-1.76-.17-.71-.48-1.16t-.76-.66q-.44-.21-1-.21-.89 0-1.51.38-.62.37-1.17 1.05m-.38-2.93.23 1.09q.72-.82 1.64-1.32.92-.51 2.17-.51.96 0 1.76.4.8.41 1.38 1.17.58.77.9 1.89.31 1.12.31 2.57 0 1.32-.35 2.45-.36 1.12-1.02 1.95t-1.6 1.3q-.94.46-2.1.46-.99 0-1.69-.3-.7-.31-1.25-.85v4.83h-2.84v-15.65h1.73q.56 0 .73.52m16.82 8.23v-1.99q-1.23.06-2.07.22-.84.15-1.34.39-.51.24-.73.57-.21.32-.21.7 0 .74.44 1.07.44.32 1.15.32.88 0 1.52-.32.63-.31 1.24-.96m-6-6.2-.51-.9q2.04-1.87 4.9-1.87 1.04 0 1.86.34.81.34 1.38.94.56.61.85 1.45.3.84.3 1.84v7.45h-1.29q-.41 0-.62-.12-.22-.12-.35-.49l-.25-.85q-.45.4-.88.71-.42.3-.88.51t-.98.31q-.53.11-1.16.11-.75 0-1.38-.2t-1.09-.6-.72-1q-.25-.6-.25-1.39 0-.45.15-.89.15-.45.49-.85t.88-.76 1.33-.62 1.83-.43q1.05-.17 2.39-.2v-.69q0-1.19-.5-1.76-.51-.57-1.46-.57-.69 0-1.15.17-.45.16-.8.36-.34.2-.62.36t-.63.16q-.3 0-.51-.15-.2-.16-.33-.37m18.88-2.55h2.84v11.8h-2.84v-5.22h-4.6v5.22h-2.84v-11.8h2.84v4.47h4.6zm14.86 1.46-.75 1.04q-.12.16-.24.25t-.35.09q-.22 0-.43-.13t-.49-.3q-.29-.17-.69-.3-.39-.13-.98-.13-.75 0-1.31.27-.57.27-.94.78-.37.5-.56 1.22-.18.72-.18 1.63 0 .94.2 1.68.2.73.58 1.23t.92.76 1.22.26 1.1-.17q.42-.16.71-.36.28-.21.5-.37.21-.17.47-.17.35 0 .52.27l.82 1.03q-.47.55-1.03.93-.55.37-1.14.59-.59.23-1.22.32t-1.25.09q-1.09 0-2.06-.41-.96-.4-1.69-1.19-.72-.78-1.14-1.91t-.42-2.58q0-1.3.37-2.41.38-1.11 1.1-1.92.73-.81 1.8-1.27 1.06-.46 2.46-.46 1.32 0 2.31.42 1 .43 1.79 1.22m12.17 8.24h2.17v5.2q0 .4-.23.63t-.58.23h-1.78v-3.96h-9.86v-11.8h2.84v9.7h4.6v-9.7h2.84zm6.2-5.16h5.36q0-.55-.16-1.04-.15-.49-.46-.85-.32-.37-.79-.58-.48-.22-1.11-.22-1.23 0-1.94.7-.71.71-.9 1.99m7.24 1.72h-7.3q.07.91.32 1.57t.67 1.09q.41.43.98.64.57.22 1.26.22t1.19-.17q.5-.16.88-.35.37-.2.65-.36t.55-.16q.35 0 .53.27l.81 1.03q-.47.55-1.06.93-.58.37-1.22.59-.64.23-1.3.32t-1.28.09q-1.23 0-2.29-.41-1.06-.4-1.84-1.2t-1.23-1.98-.45-2.73q0-1.21.39-2.27.39-1.07 1.12-1.86.73-.78 1.79-1.24 1.05-.46 2.37-.46 1.12 0 2.06.35.94.36 1.62 1.04.68.69 1.06 1.68.39 1 .39 2.27 0 .65-.14.87-.14.23-.53.23m10.24-6.26h2.84v11.8h-2.84v-5.22h-4.6v5.22h-2.84v-11.8h2.84v4.47h4.6zm8.85 9.78h4.67v-7.61h-2.9q-.11 1.49-.28 2.68-.18 1.19-.41 2.12t-.5 1.62-.58 1.19m7.43-.08h2.16v5.2q0 .4-.22.63-.23.23-.58.23h-1.77v-3.96h-8.83v3.15q0 .3-.19.55-.19.26-.6.26h-1.79v-5.98h.33q.41 0 .78-.11.38-.11.74-.46.35-.34.66-.99.32-.65.57-1.74t.44-2.67q.19-1.59.31-3.81h7.99zm6.19-5.16h5.36q0-.55-.16-1.04-.15-.49-.46-.85-.31-.37-.79-.58-.48-.22-1.11-.22-1.23 0-1.94.7-.71.71-.9 1.99m7.24 1.72h-7.3q.07.91.32 1.57.26.66.67 1.09t.98.64q.57.22 1.26.22t1.19-.17q.5-.16.88-.35.37-.2.65-.36t.55-.16q.35 0 .53.27l.81 1.03q-.47.55-1.05.93-.59.37-1.23.59-.64.23-1.3.32t-1.28.09q-1.23 0-2.29-.41-1.06-.4-1.84-1.2t-1.23-1.98-.45-2.73q0-1.21.39-2.27.39-1.07 1.12-1.86.73-.78 1.79-1.24 1.05-.46 2.37-.46 1.12 0 2.06.35.94.36 1.62 1.04.68.69 1.07 1.68.38 1 .38 2.27 0 .65-.14.87-.14.23-.53.23m10.24-6.26h2.84v11.8h-2.84v-5.22h-4.6v5.22h-2.84v-11.8h2.84v4.47h4.6zm15.78 0v2.11h-4.21v9.69h-2.84v-9.69h-4.2v-2.11zm9.12 0h2.84v11.8h-2.84v-5.22h-4.6v5.22h-2.84v-11.8h2.84v4.47h4.6zm10.87-.18q1.32 0 2.39.42 1.08.43 1.84 1.21.77.78 1.18 1.91t.41 2.52q0 1.4-.41 2.53-.41 1.12-1.18 1.92-.76.79-1.84 1.22-1.07.42-2.39.42t-2.4-.42q-1.08-.43-1.84-1.22-.77-.8-1.19-1.92-.42-1.13-.42-2.53 0-1.39.42-2.52t1.19-1.91q.76-.78 1.84-1.21 1.08-.42 2.4-.42m0 9.97q1.48 0 2.18-.99.71-.99.71-2.9t-.71-2.91q-.7-1-2.18-1-1.49 0-2.21 1.01-.72 1-.72 2.9t.72 2.89q.72 1 2.21 1m17.2-8.33-.75 1.04q-.13.16-.25.25t-.35.09q-.22 0-.42-.13-.21-.13-.5-.3t-.68-.3q-.4-.13-.99-.13-.74 0-1.31.27-.56.27-.93.78-.38.5-.56 1.22-.19.72-.19 1.63 0 .94.21 1.68.2.73.58 1.23t.92.76 1.22.26q.67 0 1.09-.17.42-.16.71-.36.29-.21.5-.37.21-.17.48-.17.34 0 .52.27l.81 1.03q-.47.55-1.02.93-.55.37-1.15.59-.59.23-1.21.32-.63.09-1.25.09-1.09 0-2.06-.41-.97-.4-1.69-1.19-.73-.78-1.15-1.91t-.42-2.58q0-1.3.38-2.41.37-1.11 1.1-1.92.72-.81 1.79-1.27t2.46-.46q1.32 0 2.32.42.99.43 1.79 1.22m12-1.46v2.11h-4.21v9.69h-2.84v-9.69h-4.19v-2.11zm4.38 9.76h2.12q.97 0 1.44-.48.48-.48.48-1.24 0-.32-.11-.62t-.34-.53-.6-.36q-.36-.14-.88-.14h-2.11zm0-5.39h2.1q1.23 0 2.08.3t1.38.8q.53.51.76 1.17.24.66.24 1.39 0 .83-.29 1.52-.3.7-.87 1.2t-1.39.77q-.82.28-1.88.28h-4.83v-11.8h2.7zm24.33-4.37v11.8h-2.84v-9.69h-4.6v9.69h-2.84v-11.8zm5.66 3.45v5.29q.48.59 1.05.83t1.23.24q.65 0 1.17-.24.51-.24.88-.74.36-.49.55-1.24.2-.76.2-1.78 0-1.04-.17-1.76-.17-.71-.48-1.16t-.75-.66-1.01-.21q-.88 0-1.5.38-.62.37-1.17 1.05m-.38-2.93.23 1.09q.72-.82 1.64-1.32.92-.51 2.16-.51.97 0 1.77.4.8.41 1.38 1.17.58.77.89 1.89.32 1.12.32 2.57 0 1.32-.36 2.45-.35 1.12-1.01 1.95t-1.6 1.3q-.94.46-2.1.46-.99 0-1.69-.3-.7-.31-1.25-.85v4.83h-2.85v-15.65h1.74q.55 0 .73.52m15.81-.7q1.31 0 2.38.42 1.08.43 1.84 1.21.77.78 1.18 1.91.42 1.13.42 2.52 0 1.4-.42 2.53-.41 1.12-1.18 1.92-.76.79-1.84 1.22-1.07.42-2.38.42-1.32 0-2.41-.42-1.08-.43-1.84-1.22-.77-.8-1.19-1.92-.42-1.13-.42-2.53 0-1.39.42-2.52t1.19-1.91q.76-.78 1.84-1.21 1.09-.42 2.41-.42m0 9.97q1.47 0 2.18-.99.7-.99.7-2.9t-.7-2.91q-.71-1-2.18-1-1.5 0-2.22 1.01-.71 1-.71 2.9t.71 2.89q.72 1 2.22 1m16.87-9.79h1.72v11.8h-2.84v-6.89q0-.26.03-.58t.08-.64q-.23.53-.51.93-.02.03-.23.32t-.53.75q-.33.46-.75 1.04-.41.58-.84 1.18-1 1.42-2.26 3.2-.16.24-.42.47t-.59.23h-1.74v-11.8h2.84v6.89q0 .27-.03.58-.03.32-.07.64.25-.56.5-.93.02-.02.22-.31l.54-.75q.32-.46.74-1.04l.84-1.19q1-1.41 2.28-3.2.16-.25.42-.47.27-.23.6-.23m4.48 2.37-.64-1.09q.67-.65 1.66-1.05.98-.41 2.36-.41 1.1 0 1.95.26.85.25 1.43.7.58.44.89 1.01.3.57.3 1.19 0 .33-.1.7-.1.36-.32.7-.22.35-.59.64t-.91.5q.97.37 1.56 1.08t.59 1.76q0 .86-.4 1.53-.39.67-1.05 1.13-.65.47-1.5.71-.84.24-1.74.24-.51 0-1.09-.09t-1.17-.32q-.58-.22-1.15-.59-.56-.38-1.02-.93l.82-1.03q.17-.27.51-.27.27 0 .51.17.24.16.56.37.31.2.75.36.44.17 1.09.17 1.07 0 1.63-.48.55-.49.55-1.21 0-.71-.57-1.12-.57-.4-1.85-.4h-1.33v-1.85h1.33q1.12 0 1.72-.39.59-.39.59-1.04 0-.58-.52-.96t-1.55-.38q-.61 0-1.03.13-.43.12-.73.27-.31.14-.51.27-.21.12-.39.12-.2 0-.34-.07-.14-.08-.3-.33m13.11 7.49h2.12q.9 0 1.42-.44t.52-1.2q0-.32-.08-.6-.09-.28-.31-.49t-.59-.32q-.37-.12-.95-.12h-2.13zm1.87-8.01h-1.87v3.1h1.87q.41 0 .76-.12.34-.13.59-.35.26-.22.39-.53.14-.3.14-.67 0-.27-.09-.52-.09-.26-.31-.46-.22-.21-.58-.33t-.9-.12m-4.57-1.85h4.65q1.11 0 1.92.22t1.34.6.79.9q.25.52.25 1.13 0 .38-.1.79t-.34.79q-.25.38-.68.69-.42.31-1.08.48.59.13 1.07.35.48.23.83.57.34.33.53.79.19.45.19 1.02 0 .89-.37 1.55t-1 1.08q-.63.43-1.45.63-.82.21-1.72.21h-4.83zm16.78-.18q1.31 0 2.39.42 1.07.43 1.84 1.21.76.78 1.17 1.91.42 1.13.42 2.52 0 1.4-.42 2.53-.41 1.12-1.17 1.92-.77.79-1.84 1.22-1.08.42-2.39.42-1.32 0-2.4-.42-1.08-.43-1.85-1.22-.76-.8-1.18-1.92-.42-1.13-.42-2.53 0-1.39.42-2.52t1.18-1.91q.77-.78 1.85-1.21 1.08-.42 2.4-.42m0 9.97q1.47 0 2.18-.99t.71-2.9-.71-2.91-2.18-1q-1.5 0-2.21 1.01-.72 1-.72 2.9t.72 2.89q.71 1 2.21 1m11.19-.01h4.67v-7.61h-2.9q-.11 1.49-.29 2.68-.17 1.19-.4 2.12t-.5 1.62-.58 1.19m7.43-.08h2.16v5.2q0 .4-.22.63-.23.23-.58.23h-1.78v-3.96h-8.83v3.15q0 .3-.19.55-.19.26-.59.26h-1.79v-5.98h.33q.4 0 .78-.11t.73-.46q.35-.34.67-.99t.57-1.74.44-2.67q.19-1.59.31-3.81h7.99zm13.14-8.24-.74 1.04q-.13.16-.25.25t-.35.09q-.22 0-.43-.13t-.49-.3q-.29-.17-.69-.3-.39-.13-.98-.13-.75 0-1.31.27t-.94.78q-.37.5-.56 1.22-.18.72-.18 1.63 0 .94.2 1.68.2.73.58 1.23t.92.76 1.22.26 1.1-.17q.42-.16.71-.36.28-.21.5-.37.21-.17.47-.17.35 0 .52.27l.82 1.03q-.47.55-1.03.93-.55.37-1.14.59-.59.23-1.22.32t-1.25.09q-1.09 0-2.06-.41-.96-.4-1.69-1.19-.72-.78-1.14-1.91t-.42-2.58q0-1.3.37-2.41.38-1.11 1.1-1.92.73-.81 1.8-1.27t2.46-.46q1.32 0 2.31.42 1 .43 1.79 1.22m12.01-1.46v2.11h-4.21v9.69h-2.84v-9.69h-4.2v-2.11zm4.38 9.86h2.12q.89 0 1.42-.44.52-.44.52-1.2 0-.32-.09-.6-.08-.28-.3-.49t-.59-.32q-.38-.12-.95-.12h-2.13zm1.86-8.01h-1.86v3.1h1.86q.42 0 .76-.12.35-.13.6-.35t.39-.53q.14-.3.14-.67 0-.27-.09-.52-.09-.26-.31-.46-.22-.21-.58-.33-.37-.12-.91-.12m-4.56-1.85h4.64q1.12 0 1.93.22t1.34.6.78.9.25 1.13q0 .38-.09.79-.1.41-.35.79t-.67.69q-.43.31-1.08.48.58.13 1.07.35.48.23.83.57.34.33.53.79.19.45.19 1.02 0 .89-.37 1.55-.38.66-1 1.08-.63.43-1.45.63-.83.21-1.72.21h-4.83zm17.79 8.75v-1.99q-1.23.06-2.07.22-.84.15-1.35.39-.5.24-.72.57-.22.32-.22.7 0 .74.44 1.07.45.32 1.16.32.87 0 1.51-.32.64-.31 1.25-.96m-6-6.2-.51-.9q2.03-1.87 4.9-1.87 1.03 0 1.85.34t1.38.94q.56.61.86 1.45.29.84.29 1.84v7.45h-1.29q-.4 0-.62-.12t-.34-.49l-.26-.85q-.45.4-.87.71-.43.3-.89.51t-.98.31q-.52.11-1.16.11-.74 0-1.38-.2-.63-.2-1.09-.6t-.71-1-.25-1.39q0-.45.15-.89.14-.45.48-.85t.88-.76 1.33-.62 1.84-.43q1.04-.17 2.39-.2v-.69q0-1.19-.51-1.76-.5-.57-1.46-.57-.69 0-1.14.17-.46.16-.8.36l-.63.36q-.28.16-.63.16-.29 0-.5-.15-.21-.16-.33-.37m-224.69 20.22h2.32v16.63h-3.1v-10.42q0-.59.02-1.23.03-.64.14-1.37-.23.65-.5 1.19-.27.55-.53.96l-6.36 9.92q-.1.17-.24.34-.15.17-.32.31-.17.13-.38.21-.21.09-.42.09h-2.33v-16.63h3.11v10.42q0 .59-.03 1.24t-.13 1.37q.23-.64.5-1.2.27-.55.53-.96l6.35-9.91q.1-.18.25-.35.14-.17.31-.3.18-.14.38-.22.2-.09.43-.09m-4.54-2.4q.42 0 .71-.08t.46-.28q.17-.21.24-.55.07-.35.07-.88h1.68q.3 0 .44.26.14.25.14.55 0 .59-.26 1.03-.26.45-.76.75-.49.3-1.18.46-.69.15-1.54.15-.86 0-1.55-.15-.69-.16-1.18-.46t-.76-.75q-.26-.44-.26-1.03 0-.3.14-.55.14-.26.44-.26h1.68q0 .53.07.88.07.34.24.55.18.2.46.28t.72.08m12.36 11.77h5.36q0-.55-.16-1.04-.15-.49-.46-.85-.31-.37-.79-.58-.48-.22-1.11-.22-1.23 0-1.94.7-.71.71-.9 1.99m7.24 1.72h-7.3q.07.91.32 1.57.26.66.67 1.09t.98.64q.57.22 1.26.22t1.19-.17q.5-.16.88-.35.37-.2.65-.36t.55-.16q.35 0 .53.27l.81 1.03q-.47.55-1.05.93-.59.37-1.23.59-.64.23-1.3.32t-1.28.09q-1.23 0-2.29-.41-1.06-.4-1.84-1.2t-1.23-1.98-.45-2.73q0-1.21.39-2.27.39-1.07 1.12-1.86.73-.78 1.79-1.24 1.05-.46 2.37-.46 1.12 0 2.06.35.94.36 1.62 1.04.68.69 1.06 1.68.39 1 .39 2.27 0 .65-.14.87-.14.23-.53.23m13.75-6.26v11.8h-2.84v-9.63h-2.9q-.14 2.18-.43 3.75t-.68 2.66q-.4 1.09-.89 1.75t-1.04 1.03-1.14.49q-.58.12-1.18.12-.63 0-.93-.11-.29-.11-.29-.3v-1.77h.68q.38 0 .76-.12.38-.11.73-.47.36-.36.68-1.02t.59-1.74q.27-1.09.48-2.67.21-1.57.32-3.77zm8.02-.18q1.31 0 2.39.42 1.07.43 1.84 1.21.76.78 1.18 1.91.41 1.13.41 2.52 0 1.4-.41 2.53-.42 1.12-1.18 1.92-.77.79-1.84 1.22-1.08.42-2.39.42-1.32 0-2.4-.42-1.08-.43-1.85-1.22-.76-.8-1.18-1.92-.42-1.13-.42-2.53 0-1.39.42-2.52t1.18-1.91q.77-.78 1.85-1.21 1.08-.42 2.4-.42m0 9.97q1.47 0 2.18-.99t.71-2.9-.71-2.91-2.18-1q-1.49 0-2.21 1.01-.72 1-.72 2.9t.72 2.89q.72 1 2.21 1m10.7.07h2.11q.9 0 1.42-.44.53-.44.53-1.2 0-.32-.09-.6t-.3-.49q-.22-.21-.6-.32-.37-.12-.94-.12h-2.13zm1.86-8.01h-1.86v3.1h1.86q.41 0 .76-.12.34-.13.6-.35.25-.22.39-.53.14-.3.14-.67 0-.27-.1-.52-.09-.26-.31-.46-.21-.21-.58-.33-.36-.12-.9-.12m-4.56-1.85h4.64q1.12 0 1.93.22t1.34.6.78.9.25 1.13q0 .38-.1.79-.09.41-.34.79t-.67.69q-.43.31-1.08.48.58.13 1.07.35.48.23.82.57.35.33.54.79.19.45.19 1.02 0 .89-.38 1.55-.37.65-1 1.08-.62.43-1.45.63-.82.21-1.71.21h-4.83zm17.79 8.75v-1.99q-1.23.06-2.07.22-.84.15-1.35.39t-.72.57q-.22.32-.22.7 0 .74.44 1.07.44.32 1.16.32.87 0 1.51-.32.64-.31 1.25-.96m-6.01-6.2-.5-.9q2.03-1.87 4.9-1.87 1.03 0 1.85.34.81.34 1.38.94.56.61.85 1.45.3.84.3 1.84v7.45h-1.29q-.4 0-.62-.12t-.35-.49l-.25-.85q-.45.4-.87.71-.43.3-.89.51t-.98.31q-.53.11-1.16.11-.75 0-1.38-.2t-1.09-.6-.71-1q-.26-.6-.26-1.39 0-.45.15-.89.15-.45.49-.85t.88-.76 1.33-.62 1.83-.43q1.05-.17 2.4-.2v-.69q0-1.19-.51-1.76t-1.46-.57q-.69 0-1.15.17-.45.16-.79.36l-.63.36q-.28.16-.63.16-.3 0-.5-.15-.21-.16-.34-.37m27.23 2.23 4.36 7.02h-2.8q-.44 0-.73-.23-.3-.23-.55-.68l-3.54-5.59q-.14-.24-.29-.39-.16-.16-.34-.26t-.4-.13-.51-.03h-1.85v7.31h-3.1v-16.63h3.1v6.97h1.56q.47 0 .82-.16.34-.16.64-.6l3.65-5.38q.23-.37.54-.6t.74-.23h2.65l-4.52 6.67q-.29.44-.67.73-.38.28-.84.44.69.2 1.17.62t.91 1.15m5.4 5.46q0-.36.13-.68t.36-.55.55-.37q.33-.14.69-.14.37 0 .69.14t.55.37q.24.23.37.55.14.32.14.68t-.14.68q-.13.32-.37.55-.23.23-.55.36t-.69.13q-.36 0-.69-.13-.32-.13-.55-.36t-.36-.55-.13-.68m17.74-2.36q.26 0 .45.19l1.22 1.33q-1.01 1.25-2.49 1.92-1.48.66-3.55.66-1.85 0-3.33-.63-1.47-.63-2.52-1.76t-1.61-2.69q-.55-1.56-.55-3.41 0-1.88.6-3.44.59-1.56 1.68-2.68 1.09-1.13 2.59-1.76 1.51-.62 3.34-.62 1.82 0 3.22.59 1.41.6 2.4 1.57l-1.03 1.44q-.1.13-.24.24-.14.1-.4.1-.17 0-.35-.1-.19-.09-.4-.24-.22-.14-.51-.31-.29-.18-.67-.32t-.88-.24-1.15-.1q-1.12 0-2.04.4-.93.39-1.6 1.15-.66.75-1.03 1.84-.37 1.08-.37 2.48t.4 2.49q.39 1.09 1.07 1.84t1.6 1.15q.92.39 1.98.39.63 0 1.14-.07t.95-.22q.43-.15.81-.38.39-.24.77-.58.11-.11.24-.17.12-.06.26-.06m2.94 2.36q0-.36.13-.68t.36-.55.55-.37.69-.14.69.14q.31.14.55.37.23.23.37.55t.14.68-.14.68-.37.55q-.24.23-.55.36-.32.13-.69.13t-.69-.13-.55-.36-.36-.55-.13-.68m-111.31 26.51h4.27q.46 0 .73.26t.27.69v1.7h-11.41v-.94q0-.29.12-.61.12-.31.39-.57l5.05-5.06q.63-.64 1.13-1.23.5-.58.83-1.16.34-.57.51-1.17.18-.59.18-1.24 0-.6-.17-1.06-.17-.45-.49-.76t-.76-.47q-.44-.15-.99-.15-.51 0-.94.14-.43.15-.76.41-.34.25-.57.6-.23.34-.34.76-.2.53-.51.7t-.9.08l-1.49-.26q.17-1.2.67-2.1.49-.91 1.23-1.51t1.7-.91q.96-.3 2.07-.3 1.15 0 2.1.34.96.34 1.64.96.67.62 1.05 1.49.38.88.38 1.95 0 .91-.27 1.7-.27.78-.72 1.49-.46.71-1.07 1.38-.6.67-1.27 1.36l-3.75 3.83q.54-.16 1.07-.25.54-.09 1.02-.09m13.34 0h4.27q.46 0 .73.26t.27.69v1.7h-11.41v-.94q0-.29.12-.61.12-.31.39-.57l5.05-5.06q.63-.64 1.13-1.23.5-.58.83-1.16.34-.57.51-1.17.18-.59.18-1.24 0-.6-.17-1.06-.17-.45-.49-.76t-.76-.47q-.44-.15-.99-.15-.51 0-.94.14-.43.15-.76.41-.34.25-.57.6-.23.34-.34.76-.2.53-.51.7t-.9.08l-1.49-.26q.17-1.2.67-2.1.49-.91 1.23-1.51t1.7-.91q.96-.3 2.07-.3 1.15 0 2.1.34.96.34 1.64.96.67.62 1.05 1.49.38.88.38 1.95 0 .91-.27 1.7-.27.78-.72 1.49-.46.71-1.07 1.38-.6.67-1.27 1.36l-3.75 3.83q.54-.16 1.07-.25.54-.09 1.02-.09m7.32 1.09q0-.36.13-.68t.36-.55.55-.37.69-.14.69.14q.31.14.55.37.23.23.37.55t.14.68-.14.68-.37.55q-.24.23-.55.36-.32.13-.69.13t-.69-.13-.55-.36-.36-.55-.13-.68m17.23-6.75q0 2.17-.46 3.77-.47 1.61-1.29 2.65-.82 1.05-1.94 1.56t-2.42.51-2.41-.51-1.93-1.56q-.82-1.04-1.28-2.65-.46-1.6-.46-3.77 0-2.19.46-3.79t1.28-2.64q.82-1.05 1.93-1.56t2.41-.51 2.42.51 1.94 1.56q.82 1.04 1.29 2.64.46 1.6.46 3.79m-2.93 0q0-1.81-.26-2.99-.27-1.19-.71-1.89t-1.02-.98q-.57-.29-1.19-.29-.61 0-1.18.29-.57.28-1.01.98t-.69 1.89q-.26 1.18-.26 2.99 0 1.8.26 2.99.25 1.18.69 1.88t1.01.98q.57.29 1.18.29.62 0 1.19-.29.58-.28 1.02-.98t.71-1.88q.26-1.19.26-2.99m6.64 2.04h5.06v-5.44q0-.77.1-1.7zm7.53 0h2.09v1.65q0 .23-.15.39-.15.17-.42.17h-1.52v4.06h-2.47v-4.06h-7.02q-.28 0-.5-.18t-.28-.44l-.3-1.44 7.88-10.52h2.69zm3.67 4.71q0-.36.13-.68t.36-.55.56-.37q.32-.14.69-.14.36 0 .68.14t.55.37q.24.23.38.55.13.32.13.68t-.13.68q-.14.32-.38.55-.23.23-.55.36t-.68.13q-.37 0-.69-.13-.33-.13-.56-.36t-.36-.55-.13-.68m11.49-1.09h4.26q.46 0 .73.26t.27.69v1.7h-11.4v-.94q0-.29.12-.61.12-.31.38-.57l5.05-5.06q.63-.64 1.13-1.23.5-.58.84-1.16.33-.57.51-1.17.18-.59.18-1.24 0-.6-.18-1.06-.17-.45-.48-.76-.32-.31-.76-.47-.45-.15-1-.15-.5 0-.93.14-.44.15-.77.41-.33.25-.56.6-.23.34-.35.76-.19.53-.5.7t-.9.08l-1.5-.26q.18-1.2.67-2.1.5-.91 1.24-1.51t1.7-.91q.96-.3 2.06-.3 1.15 0 2.11.34.95.34 1.63.96t1.06 1.49q.38.88.38 1.95 0 .91-.27 1.7-.27.78-.73 1.49-.45.71-1.06 1.38t-1.28 1.36l-3.75 3.83q.54-.16 1.08-.25.53-.09 1.02-.09m19.09-5.66q0 2.17-.47 3.77-.46 1.61-1.29 2.65-.82 1.05-1.94 1.56t-2.42.51-2.41-.51-1.93-1.56q-.81-1.04-1.27-2.65-.46-1.6-.46-3.77 0-2.19.46-3.79t1.27-2.64q.82-1.05 1.93-1.56t2.41-.51 2.42.51 1.94 1.56q.83 1.04 1.29 2.64.47 1.6.47 3.79m-2.94 0q0-1.81-.26-2.99-.26-1.19-.71-1.89-.44-.7-1.01-.98-.58-.29-1.2-.29-.61 0-1.18.29-.57.28-1.01.98-.43.7-.69 1.89-.26 1.18-.26 2.99 0 1.8.26 2.99.26 1.18.69 1.88.44.7 1.01.98.57.29 1.18.29.62 0 1.2-.29.57-.28 1.01-.98.45-.7.71-1.88.26-1.19.26-2.99m10.53 5.66h4.26q.46 0 .73.26t.27.69v1.7h-11.4v-.94q0-.29.12-.61.12-.31.38-.57l5.05-5.06q.63-.64 1.13-1.23.5-.58.84-1.16.33-.57.51-1.17.18-.59.18-1.24 0-.6-.18-1.06-.17-.45-.48-.76-.32-.31-.76-.47-.45-.15-1-.15-.5 0-.93.14-.44.15-.77.41-.33.25-.56.6-.23.34-.35.76-.19.53-.5.7t-.9.08l-1.5-.26q.18-1.2.67-2.1.5-.91 1.24-1.51t1.7-.91q.96-.3 2.06-.3 1.15 0 2.11.34.95.34 1.63.96t1.06 1.49q.38.88.38 1.95 0 .91-.27 1.7-.27.78-.73 1.49-.45.71-1.06 1.38t-1.28 1.36l-3.75 3.83q.54-.16 1.08-.25.53-.09 1.02-.09m13.34 0h4.26q.46 0 .73.26t.27.69v1.7h-11.4v-.94q0-.29.12-.61.12-.31.38-.57l5.05-5.06q.63-.64 1.13-1.23.5-.58.84-1.16.33-.57.51-1.17.18-.59.18-1.24 0-.6-.18-1.06-.17-.45-.48-.76-.32-.31-.76-.47-.45-.15-1-.15-.5 0-.93.14-.44.15-.77.41-.33.25-.56.6-.23.34-.35.76-.19.53-.5.7t-.9.08l-1.5-.26q.18-1.2.67-2.1.5-.91 1.24-1.51t1.7-.91q.96-.3 2.06-.3 1.15 0 2.11.34.95.34 1.63.96t1.06 1.49q.38.88.38 1.95 0 .91-.27 1.7-.27.78-.73 1.49-.45.71-1.06 1.38t-1.28 1.36l-3.75 3.83q.54-.16 1.08-.25.53-.09 1.02-.09"/></svg>