<svg xmlns="http://www.w3.org/2000/svg" width="600" height="400" viewBox="0 0 600 400"><rect width="100%" height="100%" fill="#483D8B"/><path fill="#FFFFFF" d="M145.88 120.16h6.88v36.87h-6.88v-16.12h-17.32v16.12h-6.88v-36.87h6.88v15.86h17.32zm27.92 30.11v-4.41q-2.73.13-4.59.47-1.86.35-2.99.88-1.12.54-1.6 1.25-.49.72-.49 1.56 0 1.65.99 2.37.98.71 2.56.71 1.94 0 3.35-.7 1.42-.7 2.77-2.13m-13.31-13.74-1.13-2.02q4.52-4.13 10.87-4.13 2.29 0 4.1.75 1.81.76 3.06 2.1 1.25 1.33 1.9 3.2.65 1.86.65 4.08v16.52h-2.85q-.9 0-1.38-.27t-.76-1.08l-.57-1.89q-.99.89-1.93 1.57-.95.68-1.97 1.13-1.02.46-2.18.71-1.16.24-2.56.24-1.66 0-3.06-.45-1.4-.44-2.42-1.34-1.02-.89-1.58-2.22-.56-1.32-.56-3.08 0-1 .33-1.98t1.08-1.87 1.95-1.68q1.2-.8 2.95-1.38 1.74-.59 4.06-.96t5.31-.44v-1.53q0-2.63-1.12-3.89-1.13-1.27-3.24-1.27-1.53 0-2.54.36t-1.77.81q-.77.44-1.39.8-.63.36-1.39.36-.66 0-1.12-.35-.46-.34-.74-.8m39.73-5.66h6.29v26.16h-6.29v-10.28q-3.37.82-6.25.93-2.88.12-4.99-.68-2.1-.81-3.29-2.62-1.18-1.81-1.18-4.82v-8.69h6.3v7.72q0 1.61.52 2.59t1.66 1.42q1.13.43 2.92.35 1.78-.07 4.31-.58zm26.34 19.4v-4.41q-2.73.13-4.59.47-1.86.35-2.99.88-1.12.54-1.6 1.25-.49.72-.49 1.56 0 1.65.98 2.37.99.71 2.57.71 1.94 0 3.35-.7 1.42-.7 2.77-2.13m-13.31-13.74-1.13-2.02q4.52-4.13 10.87-4.13 2.29 0 4.1.75 1.81.76 3.06 2.1 1.25 1.33 1.9 3.2.65 1.86.65 4.08v16.52h-2.85q-.9 0-1.38-.27t-.77-1.08l-.56-1.89q-.99.89-1.93 1.57-.95.68-1.97 1.13-1.02.46-2.18.71-1.16.24-2.56.24-1.66 0-3.06-.45-1.4-.44-2.42-1.34-1.02-.89-1.58-2.22-.57-1.32-.57-3.08 0-1 .34-1.98.33-.98 1.08-1.87t1.95-1.68q1.2-.8 2.95-1.38 1.74-.59 4.06-.96t5.31-.44v-1.53q0-2.63-1.12-3.89-1.13-1.27-3.24-1.27-1.53 0-2.54.36t-1.77.81q-.77.44-1.39.8-.63.36-1.39.36-.67 0-1.12-.35-.46-.34-.74-.8m49.64-5.66v26.16h-6.29v-21.34h-6.43q-.31 4.82-.94 8.3-.64 3.48-1.52 5.9t-1.96 3.89q-1.09 1.46-2.31 2.28-1.23.82-2.53 1.08-1.3.27-2.62.27-1.41 0-2.06-.24t-.65-.68v-3.92h1.51q.84 0 1.68-.26.84-.25 1.63-1.04t1.51-2.26q.71-1.47 1.31-3.88t1.06-5.9.71-8.36zm20.05 19.4v-4.41q-2.73.13-4.59.47-1.86.35-2.99.88-1.12.54-1.6 1.25-.49.72-.49 1.56 0 1.65.99 2.37.98.71 2.56.71 1.94 0 3.35-.7 1.42-.7 2.77-2.13m-13.31-13.74-1.13-2.02q4.52-4.13 10.87-4.13 2.29 0 4.1.75 1.81.76 3.06 2.1 1.25 1.33 1.9 3.2.65 1.86.65 4.08v16.52h-2.85q-.9 0-1.38-.27t-.76-1.08l-.57-1.89q-.99.89-1.93 1.57-.95.68-1.97 1.13-1.02.46-2.18.71-1.16.24-2.56.24-1.66 0-3.06-.45-1.4-.44-2.42-1.34-1.02-.89-1.58-2.22-.56-1.32-.56-3.08 0-1 .33-1.98t1.08-1.87 1.95-1.68q1.2-.8 2.95-1.38 1.74-.59 4.06-.96t5.31-.44v-1.53q0-2.63-1.12-3.89-1.13-1.27-3.24-1.27-1.53 0-2.54.36t-1.77.81q-.77.44-1.39.8-.63.36-1.39.36-.66 0-1.12-.35-.46-.34-.74-.8m56.05-1.38v17.57q3.8-.28 5.87-2.55 2.08-2.27 2.08-6.22t-2.08-6.24q-2.07-2.28-5.87-2.56m-5.51 17.57v-17.57q-1.89.15-3.36.8-1.46.65-2.49 1.78-1.04 1.12-1.57 2.69-.54 1.56-.54 3.53 0 1.96.54 3.53.53 1.57 1.57 2.68 1.03 1.11 2.49 1.76 1.47.65 3.36.8m5.71-32.56v10.32q3.14.18 5.72 1.19 2.59 1.01 4.44 2.74 1.85 1.74 2.87 4.13 1.02 2.4 1.02 5.36 0 2.98-1.02 5.39t-2.87 4.14q-1.85 1.74-4.44 2.76-2.58 1.02-5.72 1.2v8.41h-5.92v-8.41q-3.13-.18-5.72-1.2t-4.44-2.76q-1.85-1.73-2.87-4.14t-1.02-5.39q0-2.96 1.02-5.36 1.02-2.39 2.87-4.13 1.85-1.73 4.44-2.74t5.72-1.19v-10.32zm38.48 10.71h3.82v26.16h-6.29v-15.27q0-.59.06-1.29t.17-1.42q-.51 1.18-1.13 2.07-.05.05-.51.7l-1.18 1.67q-.73 1.02-1.65 2.31-.92 1.28-1.86 2.61-2.22 3.14-5.02 7.09-.36.54-.93 1.05-.58.51-1.32.51h-3.85v-26.17h6.3v15.28q0 .58-.06 1.28-.07.71-.17 1.42.56-1.25 1.12-2.07.03-.05.49-.68.46-.64 1.18-1.66.73-1.02 1.65-2.31t1.86-2.64q2.22-3.14 5.05-7.09.36-.56.94-1.06.59-.49 1.33-.49m9.94 5.25-1.42-2.42q1.48-1.43 3.67-2.34 2.19-.9 5.25-.9 2.42 0 4.31.57 1.89.58 3.18 1.56 1.28.98 1.96 2.24.67 1.26.67 2.64 0 .74-.21 1.54-.22.81-.72 1.57-.49.77-1.31 1.42t-2.01 1.11q2.14.81 3.45 2.39t1.31 3.91q0 1.91-.87 3.39-.88 1.48-2.34 2.51-1.45 1.03-3.33 1.57-1.87.53-3.86.53-1.12 0-2.41-.2-1.29-.21-2.59-.7-1.3-.5-2.55-1.33t-2.27-2.05l1.81-2.3q.39-.58 1.15-.58.59 0 1.12.37.54.37 1.24.81.7.45 1.67.82t2.42.37q2.37 0 3.6-1.07 1.22-1.07 1.22-2.68 0-1.58-1.26-2.47-1.26-.9-4.09-.9h-2.96v-4.1h2.96q2.47 0 3.8-.87 1.32-.87 1.32-2.29 0-1.3-1.16-2.15-1.16-.84-3.43-.84-1.35 0-2.29.28-.95.28-1.62.6-.68.32-1.14.6t-.86.28q-.44 0-.74-.16-.31-.17-.67-.73m42.77-5.25h3.82v26.16h-6.3v-15.27q0-.59.07-1.29.06-.7.16-1.42-.51 1.18-1.12 2.07-.05.05-.51.7l-1.18 1.67q-.73 1.02-1.65 2.31-.92 1.28-1.86 2.61-2.22 3.14-5.02 7.09-.36.54-.93 1.05-.58.51-1.32.51h-3.85v-26.17h6.3v15.28q0 .58-.06 1.28-.07.71-.17 1.42.56-1.25 1.12-2.07.03-.05.49-.68.46-.64 1.18-1.66.73-1.02 1.65-2.31t1.86-2.64q2.22-3.14 5.05-7.09.36-.56.94-1.06.59-.49 1.33-.49m21.21 9.18 4.47-7.53q.46-.74 1.25-1.19.79-.46 1.68-.46h4.95l-6.1 9.71q-.64 1.02-1.3 1.65-.66.62-1.61.98 1.28.38 2.1 1.13.81.76 1.47 1.9l6.12 10.79h-4.36q-1.65 0-2.57-.56t-1.56-1.61l-3.85-7.24q-.51-.94-1.31-1.4t-1.88-.46h-2.37v11.27h-6.3v-26.16h6.3v10.78h2.04q1.07 0 1.72-.39.65-.4 1.11-1.21m36.21-9.18h3.83v26.16h-6.3v-15.27q0-.59.06-1.29.07-.7.17-1.42-.51 1.18-1.12 2.07-.05.05-.51.7t-1.19 1.67q-.72 1.02-1.64 2.31-.92 1.28-1.86 2.61-2.22 3.14-5.03 7.09-.35.54-.93 1.05-.57.51-1.31.51h-3.85v-26.17h6.3v15.28q0 .58-.07 1.28-.06.71-.16 1.42.56-1.25 1.12-2.07.02-.05.48-.68l1.19-1.66q.73-1.02 1.64-2.31.92-1.29 1.87-2.64 2.21-3.14 5.04-7.09.36-.56.95-1.06.58-.49 1.32-.49m-272.71 50.49v5.28h-15.86v31.59h-6.88v-36.87zm17.7 30.11v-4.41q-2.73.13-4.59.47-1.86.35-2.98.88-1.12.54-1.61 1.25-.48.72-.48 1.56 0 1.65.98 2.37.98.71 2.56.71 1.94 0 3.35-.7 1.42-.7 2.77-2.13m-13.31-13.74-1.12-2.02q4.51-4.13 10.86-4.13 2.3 0 4.11.75 1.81.76 3.06 2.1 1.25 1.33 1.9 3.2.65 1.86.65 4.08v16.52h-2.86q-.89 0-1.38-.27-.48-.27-.76-1.08l-.56-1.89q-1 .89-1.94 1.57t-1.96 1.13q-1.02.46-2.18.71-1.16.24-2.57.24-1.65 0-3.06-.45-1.4-.44-2.42-1.34-1.02-.89-1.58-2.22-.56-1.32-.56-3.08 0-1 .33-1.98t1.08-1.87q.76-.89 1.95-1.68 1.2-.79 2.95-1.38t4.07-.96 5.3-.44v-1.53q0-2.63-1.12-3.89t-3.24-1.26q-1.53 0-2.54.35-1 .36-1.77.81-.76.44-1.39.8-.62.36-1.39.36-.66 0-1.12-.35-.46-.34-.74-.8m37.66 16.29q3.27 0 4.87-2.09 1.61-2.09 1.61-6.12 0-4-1.57-6.09t-4.78-2.09-4.9 1.97q-1.68 1.98-1.68 5.91 0 4.15 1.6 6.33 1.59 2.18 4.85 2.18m9.18-27.18-7.34.48q-2.4.16-4.09.93-1.7.78-2.81 2.1-1.11 1.31-1.68 3.13-.58 1.83-.68 4.04.64-.99 1.57-1.82t2.09-1.43 2.53-.93q1.36-.33 2.92-.33 2.6 0 4.69.92t3.56 2.6q1.46 1.68 2.24 4.04t.78 5.22q0 2.95-.93 5.33-.93 2.37-2.63 4.04t-4.09 2.56q-2.4.89-5.31.89-2.83 0-5.21-.92-2.39-.91-4.12-2.98-1.73-2.06-2.7-5.37-.97-3.3-.97-8.07 0-4 .74-7.44.74-3.45 2.42-6.03 1.68-2.59 4.41-4.17t6.73-1.89l9.31-.71.33 3.26q.1 1.04-.3 1.77-.41.73-1.46.78m13.65 15.3h11.88q0-1.22-.35-2.31-.34-1.08-1.03-1.9-.69-.81-1.74-1.29-1.06-.47-2.47-.47-2.72 0-4.29 1.56-1.57 1.55-2 4.41m16.06 3.8h-16.19q.15 2.01.71 3.48t1.48 2.42q.92.96 2.18 1.43t2.79.47 2.64-.35q1.11-.36 1.94-.8.83-.43 1.45-.79.63-.35 1.22-.35.79 0 1.17.58l1.81 2.3q-1.05 1.22-2.35 2.05t-2.71 1.33q-1.42.49-2.88.7-1.47.2-2.85.2-2.73 0-5.07-.9-2.35-.91-4.08-2.68-1.74-1.77-2.73-4.39-.99-2.61-.99-6.05 0-2.68.86-5.04.87-2.36 2.49-4.1 1.62-1.75 3.95-2.77t5.27-1.02q2.47 0 4.56.79t3.6 2.31q1.5 1.51 2.36 3.72.85 2.21.85 5.04 0 1.42-.31 1.92-.3.5-1.17.5m22.7-13.87h6.29v26.16h-6.29v-11.58h-10.2v11.58h-6.3v-26.16h6.3v9.92h10.2zm45.59-2.68v19.15q1.96-.05 3.6-.82 1.63-.76 2.8-2.05t1.82-3.01.65-3.71q0-1.94-.65-3.66t-1.82-3.02-2.8-2.06q-1.64-.77-3.6-.82m-6.5 19.15v-19.15q-1.99.05-3.61.82-1.62.76-2.79 2.06-1.18 1.3-1.81 3.02-.64 1.72-.64 3.66 0 1.99.64 3.71.63 1.72 1.81 3.01 1.17 1.29 2.79 2.05 1.62.77 3.61.82m6.5-28.74v4.31q3.44.1 6.32 1.3 2.89 1.2 4.96 3.21 2.08 2.02 3.25 4.67 1.18 2.65 1.18 5.66 0 3.04-1.18 5.7-1.17 2.67-3.25 4.68-2.07 2.02-4.96 3.21-2.88 1.2-6.32 1.3v4.39h-6.5v-4.39q-3.42-.1-6.3-1.31t-4.97-3.21-3.27-4.67q-1.17-2.66-1.17-5.7 0-3.01 1.17-5.66 1.18-2.65 3.27-4.65t4.97-3.2 6.3-1.33v-4.31zm19.46 34.96q0-.79.29-1.5.29-.72.8-1.23t1.23-.81q.71-.31 1.53-.31.81 0 1.51.31.71.3 1.23.81t.83 1.23q.3.71.3 1.5 0 .82-.3 1.52-.31.7-.83 1.21t-1.23.8q-.7.3-1.51.3-.82 0-1.53-.3-.72-.29-1.23-.8t-.8-1.21-.29-1.52m20.88-14.86h5.13q1.88 0 3.29-.48 1.4-.47 2.33-1.35t1.39-2.14.46-2.82q0-1.48-.46-2.67-.46-1.2-1.38-2.04-.92-.85-2.32-1.29-1.4-.45-3.31-.45h-5.13zm-6.86-18.54h11.99q3.69 0 6.4.86 2.7.87 4.46 2.43 1.76 1.55 2.61 3.72.86 2.17.86 4.74 0 2.68-.9 4.91-.89 2.23-2.67 3.84-1.79 1.61-4.48 2.5t-6.28.89h-5.13v12.98h-6.86zm29.66 33.4q0-.79.29-1.5.29-.72.8-1.23t1.23-.81q.71-.31 1.53-.31.81 0 1.52.31.7.3 1.22.81t.83 1.23q.3.71.3 1.5 0 .82-.3 1.52-.31.7-.83 1.21t-1.22.8q-.71.3-1.52.3-.82 0-1.53-.3-.72-.29-1.23-.8t-.8-1.21-.29-1.52m-225.32 59.95h6.63v4.72h-20.4v-4.72h7.47v-21.49q0-1.28.08-2.63l-5.31 4.44q-.46.35-.9.44-.45.09-.84.02-.4-.08-.7-.27-.31-.19-.46-.42l-1.99-2.73 11.24-9.56h5.18zm34.07-32.15-10.94 13.38-1.28 1.59q1.07-.54 2.31-.83 1.24-.3 2.67-.3 2.09 0 4.06.69 1.98.69 3.48 2.08 1.51 1.39 2.43 3.46.91 2.06.91 4.82 0 2.57-.94 4.83-.94 2.25-2.65 3.94-1.71 1.68-4.12 2.65t-5.32.97q-2.95 0-5.3-.95-2.35-.94-4-2.63-1.66-1.7-2.54-4.08-.88-2.39-.88-5.3 0-2.6 1.06-5.34t3.27-5.7l8.8-11.8q.46-.62 1.34-1.05t2.03-.43zm-9.51 32.13q1.5 0 2.76-.51 1.27-.51 2.17-1.43.91-.92 1.42-2.16.51-1.23.51-2.69 0-1.58-.49-2.84-.48-1.26-1.38-2.14-.89-.88-2.14-1.34t-2.75-.46q-1.51 0-2.73.51t-2.09 1.42q-.87.9-1.35 2.14-.49 1.24-.49 2.66 0 1.53.42 2.8.42 1.26 1.25 2.15t2.06 1.39q1.22.5 2.83.5m17.03 1.27q0-.79.29-1.5.3-.72.81-1.23t1.22-.81q.71-.31 1.53-.31t1.52.31q.7.3 1.22.81t.83 1.23q.31.71.31 1.5 0 .82-.31 1.52t-.83 1.21-1.22.8q-.7.3-1.52.3t-1.53-.3q-.71-.29-1.22-.8t-.81-1.21q-.29-.7-.29-1.52m38.22-14.97q0 4.82-1.03 8.38t-2.85 5.88q-1.83 2.32-4.31 3.45-2.49 1.14-5.37 1.14t-5.34-1.14q-2.46-1.13-4.27-3.45-1.82-2.32-2.84-5.88t-1.02-8.38q0-4.84 1.02-8.39 1.02-3.54 2.84-5.86 1.81-2.32 4.27-3.46 2.46-1.13 5.34-1.13t5.37 1.13q2.48 1.14 4.31 3.46 1.82 2.32 2.85 5.86 1.03 3.55 1.03 8.39m-6.5 0q0-4-.58-6.63-.59-2.62-1.57-4.18-.98-1.55-2.26-2.18-1.27-.62-2.65-.62-1.35 0-2.61.62-1.27.63-2.24 2.18-.97 1.56-1.54 4.18-.57 2.63-.57 6.63 0 4.01.57 6.63.57 2.63 1.54 4.19.97 1.55 2.24 2.18 1.26.62 2.61.62 1.38 0 2.65-.62 1.28-.63 2.26-2.18.98-1.56 1.57-4.19.58-2.62.58-6.63m13.85-7.57-3.32-.59q.39-2.65 1.48-4.65 1.1-2 2.74-3.34 1.65-1.34 3.78-2.02 2.13-.67 4.58-.67 2.55 0 4.6.73 2.05.72 3.5 2.01 1.46 1.29 2.24 3.02.77 1.74.77 3.75 0 1.76-.39 3.1-.4 1.34-1.14 2.33-.74 1-1.83 1.69-1.1.68-2.48 1.14 3.32 1.05 4.95 3.19t1.63 5.38q0 2.75-1.02 4.87t-2.75 3.56q-1.74 1.44-4.02 2.18t-4.83.74q-2.78 0-4.84-.64-2.07-.64-3.6-1.89t-2.6-3.06-1.84-4.18l2.78-1.15q1.1-.45 2.06-.24.95.22 1.38 1.03.46.9 1.01 1.76.55.87 1.32 1.55.76.67 1.79 1.09 1.04.42 2.46.42 1.61 0 2.81-.52t2-1.36 1.2-1.88q.39-1.03.39-2.08 0-1.32-.28-2.41-.28-1.08-1.17-1.84-.89-.77-2.56-1.2-1.67-.44-4.48-.44v-4.48q2.32-.03 3.85-.44t2.44-1.13q.9-.73 1.26-1.75t.36-2.24q0-2.6-1.46-3.96-1.45-1.35-3.87-1.35-1.12 0-2.07.32-.94.32-1.69.89-.76.58-1.27 1.34-.51.77-.76 1.69-.43 1.17-1.13 1.55-.71.38-1.98.18m25.7 22.54q0-.79.3-1.5.29-.72.8-1.23t1.22-.81q.72-.31 1.53-.31.82 0 1.52.31.7.3 1.22.81.53.51.83 1.23.31.71.31 1.5 0 .82-.31 1.52-.3.7-.83 1.21-.52.51-1.22.8-.7.3-1.52.3-.81 0-1.53-.3-.71-.29-1.22-.8t-.8-1.21q-.3-.7-.3-1.52m25.48-2.39h9.46q1.02 0 1.62.57t.6 1.52v3.77h-25.3v-2.09q0-.64.27-1.34t.85-1.26l11.2-11.22q1.4-1.43 2.51-2.73t1.85-2.58q.74-1.27 1.13-2.58.4-1.32.4-2.77 0-1.33-.39-2.33-.38-1.01-1.08-1.7t-1.68-1.03q-.98-.35-2.21-.35-1.12 0-2.08.32-.95.32-1.69.89-.74.58-1.25 1.34-.51.77-.77 1.69-.43 1.17-1.12 1.55t-1.99.18l-3.31-.59q.38-2.65 1.48-4.65 1.09-2 2.74-3.34 1.64-1.34 3.77-2.02 2.13-.67 4.58-.67 2.55 0 4.67.75 2.11.75 3.62 2.13 1.5 1.38 2.34 3.32.84 1.93.84 4.31 0 2.04-.59 3.77-.6 1.73-1.61 3.31-1.01 1.59-2.36 3.06-1.35 1.48-2.83 3.01l-8.31 8.49q1.19-.35 2.38-.54t2.26-.19m42.33-12.58q0 4.82-1.04 8.38-1.03 3.56-2.85 5.88t-4.31 3.45q-2.49 1.14-5.37 1.14t-5.34-1.14q-2.46-1.13-4.27-3.45t-2.83-5.88-1.02-8.38q0-4.84 1.02-8.39 1.02-3.54 2.83-5.86t4.27-3.46q2.46-1.13 5.34-1.13t5.37 1.13q2.49 1.14 4.31 3.46t2.85 5.86q1.04 3.55 1.04 8.39m-6.51 0q0-4-.58-6.63-.59-2.62-1.57-4.18-.98-1.55-2.26-2.18-1.27-.62-2.65-.62-1.35 0-2.61.62-1.26.63-2.23 2.18-.97 1.56-1.55 4.18-.57 2.63-.57 6.63 0 4.01.57 6.63.58 2.63 1.55 4.19.97 1.55 2.23 2.18 1.26.62 2.61.62 1.38 0 2.65-.62 1.28-.63 2.26-2.18.98-1.56 1.57-4.19.58-2.62.58-6.63m23.34 12.58h9.46q1.02 0 1.62.57t.6 1.52v3.77h-25.3v-2.09q0-.64.27-1.34t.85-1.26l11.2-11.22q1.4-1.43 2.51-2.73t1.85-2.58q.74-1.27 1.13-2.58.4-1.32.4-2.77 0-1.33-.39-2.33-.38-1.01-1.08-1.7t-1.68-1.03q-.98-.35-2.21-.35-1.12 0-2.08.32-.95.32-1.69.89-.74.58-1.25 1.34-.51.77-.77 1.69-.43 1.17-1.12 1.55t-1.99.18l-3.31-.59q.38-2.65 1.48-4.65 1.09-2 2.74-3.34 1.64-1.34 3.77-2.02 2.13-.67 4.58-.67 2.55 0 4.67.75 2.11.75 3.62 2.13 1.5 1.38 2.34 3.32.84 1.93.84 4.31 0 2.04-.59 3.77-.6 1.73-1.61 3.31-1.01 1.59-2.36 3.06-1.35 1.48-2.83 3.01l-8.31 8.49q1.19-.35 2.38-.54t2.26-.19m20.96-8.04h11.22v-12.06q0-1.71.23-3.77zm16.7 0h4.64v3.65q0 .51-.33.88t-.94.37h-3.37v9h-5.48v-9h-15.56q-.63 0-1.12-.4-.48-.39-.61-.98l-.66-3.19 17.46-23.33h5.97z"/></svg>