<svg xmlns="http://www.w3.org/2000/svg" width="600" height="400" viewBox="0 0 600 400"><rect width="100%" height="100%" fill="#2F4F4F"/><path fill="#FFFFFF" d="M159.675 147.12h7.62q2.1 0 3.53-.5 1.42-.51 2.28-1.35.85-.84 1.23-1.96t.38-2.38q0-1.31-.42-2.36t-1.32-1.8q-.89-.74-2.31-1.13-1.41-.39-3.4-.39h-7.59zm6.41-28.78h-6.41v11.7h5.99q3.87 0 5.84-1.4 1.98-1.4 1.98-4.45 0-3.17-1.8-4.51-1.79-1.34-5.6-1.34m-13.94-5.83h13.94q3.98 0 6.81.76 2.83.75 4.63 2.15 1.81 1.4 2.65 3.39t.84 4.48q0 1.43-.42 2.73t-1.3 2.44q-.89 1.13-2.24 2.06-1.36.92-3.24 1.56 8.35 1.88 8.35 9.02 0 2.58-.98 4.76t-2.86 3.77q-1.88 1.58-4.62 2.47-2.74.9-6.27.9h-15.29zm41.24 22.82h13.05q0-1.34-.38-2.53-.37-1.19-1.13-2.09-.76-.89-1.92-1.41t-2.7-.52q-3 0-4.72 1.71t-2.2 4.84m17.64 4.17h-17.78q.17 2.22.79 3.83.61 1.61 1.62 2.66t2.4 1.56q1.38.52 3.06.52t2.9-.39 2.13-.87q.91-.47 1.59-.87.69-.39 1.33-.39.87 0 1.29.65l1.99 2.52q-1.15 1.34-2.58 2.25-1.42.91-2.98 1.46-1.55.54-3.16.77-1.61.22-3.12.22-3 0-5.58-.99-2.57-1-4.48-2.94-1.9-1.95-2.99-4.82t-1.09-6.65q0-2.94.95-5.53t2.73-4.51 4.34-3.04 5.78-1.12q2.72 0 5.01.87 2.3.87 3.95 2.54 1.65 1.66 2.59 4.08.94 2.43.94 5.53 0 1.57-.34 2.12-.33.54-1.29.54m20.3 8.88q3.59 0 5.35-2.3 1.77-2.29 1.77-6.72 0-4.39-1.73-6.69-1.72-2.29-5.25-2.29-3.52 0-5.37 2.17t-1.85 6.48q0 4.56 1.75 6.96 1.75 2.39 5.33 2.39m10.08-29.85-8.06.53q-2.63.17-4.49 1.03-1.87.85-3.08 2.29-1.22 1.44-1.85 3.45-.63 2-.74 4.43.7-1.09 1.72-2t2.29-1.57q1.28-.65 2.78-1.02 1.49-.36 3.2-.36 2.86 0 5.15 1.01 2.3 1 3.91 2.85t2.46 4.44q.86 2.59.86 5.73 0 3.24-1.02 5.85-1.03 2.6-2.89 4.44-1.86 1.83-4.49 2.81t-5.83.98q-3.1 0-5.72-1.01t-4.52-3.27q-1.91-2.27-2.97-5.9-1.07-3.62-1.07-8.86 0-4.4.82-8.18.81-3.78 2.66-6.62 1.84-2.84 4.84-4.58 3-1.73 7.39-2.07l10.22-.78.37 3.58q.11 1.15-.34 1.95t-1.6.85m9.3 20.44v-5.77h14.5v5.77zm28.9 9.1h11.36v-18.51h-7.05q-.28 3.62-.7 6.51-.42 2.9-.98 5.17t-1.22 3.95-1.41 2.88m18.08-.19h5.27v12.68q0 .95-.55 1.51-.54.56-1.41.56h-4.31V153h-21.51v7.67q0 .73-.46 1.35-.46.61-1.44.61h-4.37v-14.56h.81q.98 0 1.91-.26.92-.27 1.77-1.11.86-.84 1.63-2.42t1.38-4.23q.62-2.65 1.08-6.51t.74-9.27h19.46zm31.22-23.61h4.2V153h-6.91v-16.77q0-.65.07-1.42t.18-1.55q-.56 1.29-1.23 2.27-.06.05-.56.77-.51.71-1.3 1.83-.8 1.12-1.81 2.54-1.01 1.41-2.04 2.87l-5.52 7.78q-.39.59-1.02 1.15t-1.44.56h-4.23V124.3h6.91v16.77q0 .65-.07 1.42t-.18 1.55q.62-1.37 1.23-2.27.03-.05.54-.75l1.3-1.82q.8-1.12 1.8-2.54 1.01-1.41 2.05-2.9 2.43-3.44 5.54-7.78.39-.62 1.04-1.16.64-.55 1.45-.55m10.92 5.77-1.56-2.66q1.62-1.57 4.03-2.56 2.41-1 5.77-1 2.66 0 4.73.63t3.48 1.71q1.42 1.08 2.16 2.47.74 1.38.74 2.89 0 .82-.24 1.7-.23.88-.78 1.72t-1.44 1.55q-.9.72-2.21 1.22 2.35.9 3.79 2.63 1.44 1.74 1.44 4.29 0 2.1-.96 3.72-.97 1.63-2.57 2.76-1.59 1.13-3.65 1.72t-4.24.59q-1.23 0-2.65-.22-1.41-.23-2.84-.77-1.43-.55-2.8-1.46t-2.49-2.25l1.99-2.52q.42-.65 1.26-.65.64 0 1.23.41.59.4 1.36.89t1.83.9 2.66.41q2.6 0 3.95-1.18 1.34-1.18 1.34-2.94 0-1.74-1.38-2.72-1.39-.98-4.5-.98h-3.25v-4.5h3.25q2.72 0 4.17-.96 1.46-.95 1.46-2.52 0-1.42-1.27-2.35-1.28-.92-3.77-.92-1.48 0-2.52.31-1.04.3-1.78.65t-1.24.66q-.51.31-.96.31-.47 0-.81-.18-.33-.18-.73-.8m40.52 15.54v-4.84q-3 .14-5.04.51-2.04.38-3.28.97-1.23.59-1.76 1.37-.53.79-.53 1.71 0 1.82 1.08 2.6 1.07.79 2.81.79 2.13 0 3.68-.77 1.56-.77 3.04-2.34m-14.62-15.09-1.23-2.21q4.96-4.54 11.93-4.54 2.52 0 4.51.83 1.99.82 3.36 2.29t2.08 3.52q.72 2.04.72 4.48V153h-3.14q-.98 0-1.51-.29-.53-.3-.84-1.19l-.62-2.08q-1.09.98-2.12 1.73-1.04.74-2.16 1.24-1.12.51-2.39.77-1.28.27-2.82.27-1.82 0-3.36-.49t-2.66-1.47-1.73-2.44q-.62-1.45-.62-3.39 0-1.09.36-2.17.37-1.07 1.19-2.05.83-.98 2.15-1.85 1.31-.87 3.23-1.51 1.92-.65 4.47-1.05 2.54-.41 5.82-.49v-1.68q0-2.89-1.23-4.27-1.23-1.39-3.56-1.39-1.68 0-2.78.39-1.11.39-1.95.88t-1.53.89q-.68.39-1.52.39-.73 0-1.23-.38-.51-.38-.82-.88m49.48-6.22h4.2V153h-6.92v-16.77q0-.65.07-1.42t.19-1.55q-.56 1.29-1.24 2.27-.05.05-.56.77-.5.71-1.3 1.83t-1.8 2.54q-1.01 1.41-2.05 2.87-2.43 3.44-5.51 7.78-.4.59-1.03 1.15t-1.44.56h-4.23V124.3h6.92v16.77q0 .65-.07 1.42t-.18 1.55q.61-1.37 1.23-2.27.03-.05.53-.75.51-.7 1.3-1.82.8-1.12 1.81-2.54 1.01-1.41 2.04-2.9 2.44-3.44 5.55-7.78.39-.62 1.03-1.16.65-.55 1.46-.55m-8.32-7.28q1.04 0 1.74-.22.7-.23 1.12-.74.42-.52.59-1.39t.17-2.13h4.08q.73 0 1.08.6.35.61.35 1.33 0 1.43-.64 2.59-.65 1.17-1.85 1.96-1.2.8-2.88 1.24-1.68.43-3.76.43-2.07 0-3.75-.43-1.68-.44-2.88-1.24-1.21-.79-1.85-1.96-.64-1.16-.64-2.59 0-.72.35-1.33.35-.6 1.07-.6h4.09q0 1.26.17 2.13t.59 1.39q.42.51 1.1.74.69.22 1.75.22m37.47 7.28h6.91V153h-6.91v-12.71h-11.2V153h-6.92v-28.73h6.92v10.89h11.2zm-276.07 78.77 10.56 17.16h-5.01q-1.66 0-2.82-.71-1.16-.72-1.86-1.89l-8.29-12.97q-.75-1.23-1.68-1.73-.92-.51-2.35-.51h-4.28v17.81h-7.09v-17.81h-4.28q-1.4 0-2.34.51-.94.5-1.67 1.73l-8.28 12.97q-.7 1.17-1.88 1.89-1.18.71-2.8.71h-5.04l10.58-17.16q.98-1.71 2.15-2.72 1.16-1.01 2.64-1.51-1.23-.48-2.11-1.33-.88-.86-1.7-2.14l-10.44-15.63h5.96q1.15 0 2.12.56.96.56 1.55 1.57l8.29 12.82q.76 1.24 1.65 1.63.9.39 2.05.39h3.55v-16.97h7.09v16.97h3.58q1.15 0 2.03-.39t1.67-1.63l8.26-12.82q.58-1.01 1.55-1.57t2.14-.56h5.94l-10.45 15.63q-.81 1.28-1.68 2.14-.86.85-2.12 1.33 1.51.5 2.67 1.51t2.14 2.72m34.61-11.57h5.54l-15.65 36.63q-.31.72-.8 1.1t-1.49.38h-5.16l5.38-11.54-11.62-26.57h6.08q.81 0 1.27.39.46.4.69.9l6.1 14.9q.31.75.52 1.51.21.75.4 1.54.26-.79.51-1.56t.56-1.52l5.77-14.87q.22-.56.74-.92.52-.37 1.16-.37m35.64 0v28.73h-6.91v-23.44h-7.06q-.33 5.3-1.03 9.12t-1.67 6.48-2.16 4.27-2.53 2.51q-1.34.89-2.77 1.19-1.43.29-2.89.29-1.54 0-2.25-.27-.71-.26-.71-.74v-4.31h1.65q.92 0 1.85-.28.92-.28 1.79-1.15t1.65-2.48 1.44-4.25q.66-2.65 1.16-6.48.51-3.84.79-9.19zm13.42 23.77h5.15q2.35 0 3.51-1.17 1.16-1.18 1.16-3.03 0-.78-.26-1.51-.27-.73-.83-1.29t-1.45-.88q-.9-.32-2.16-.32h-5.12zm0-13.13h5.09q3 0 5.07.73t3.36 1.96 1.86 2.84q.58 1.61.58 3.38 0 2.01-.72 3.71-.71 1.69-2.1 2.91-1.38 1.22-3.39 1.89-2 .67-4.57.67h-11.76v-28.73h6.58zm48.16-10.69h5.71v28.78h-6.25v-16.02q0-.98.1-2.21t.32-2.29l-8.45 15.51q-.62 1.2-1.96 1.2h-.73q-1.34 0-1.96-1.2l-8.57-15.6q.2 1.07.32 2.33.13 1.26.13 2.26v16.02h-6.24v-28.78h5.71q.73 0 1.44.3.71.31 1.19 1.24l6.78 12.09q.44.84.84 1.78.39.94.72 1.89.34-.95.72-1.9.38-.96.82-1.77l6.72-12.09q.51-.96 1.21-1.25t1.43-.29m27.72 21.36v-4.84q-3 .14-5.04.51-2.05.38-3.28.97t-1.76 1.37q-.54.79-.54 1.71 0 1.82 1.08 2.6 1.08.79 2.82.79 2.12 0 3.68-.77 1.55-.77 3.04-2.34m-14.62-15.09-1.23-2.21q4.95-4.54 11.93-4.54 2.52 0 4.5.83 1.99.82 3.36 2.29 1.38 1.47 2.09 3.52.71 2.04.71 4.48v18.14h-3.13q-.98 0-1.51-.29-.54-.3-.84-1.19l-.62-2.08q-1.09.98-2.13 1.73-1.03.74-2.15 1.24-1.12.51-2.4.77-1.27.27-2.81.27-1.82 0-3.36-.49t-2.66-1.47-1.74-2.44q-.61-1.45-.61-3.39 0-1.09.36-2.17.36-1.07 1.19-2.05t2.14-1.85q1.32-.87 3.24-1.51 1.91-.65 4.46-1.05 2.55-.41 5.83-.49v-1.68q0-2.89-1.24-4.27-1.23-1.39-3.55-1.39-1.68 0-2.79.39-1.1.39-1.94.88t-1.53.89q-.69.39-1.53.39-.72 0-1.23-.38-.5-.38-.81-.88m45.98-6.22h6.91v28.73h-6.91v-12.71h-11.2v12.71h-6.92v-28.73h6.92v10.89h11.2zm56.95-11.76h5.65v40.49h-7.56v-25.37q0-1.43.07-2.99.07-1.57.33-3.34-.56 1.57-1.22 2.9t-1.28 2.34l-15.48 24.14q-.25.42-.6.84t-.77.74-.93.53q-.5.21-1.03.21h-5.66v-40.49h7.56v25.37q0 1.43-.07 3.01t-.32 3.35q.56-1.57 1.22-2.92.66-1.34 1.3-2.35l15.46-24.13q.25-.42.6-.84t.77-.75q.42-.32.91-.53t1.05-.21m-11.06-5.85q1.03 0 1.73-.2.7-.19 1.12-.68t.59-1.33.17-2.13h4.09q.73 0 1.08.62.35.61.35 1.34 0 1.43-.65 2.52-.64 1.09-1.85 1.82-1.2.73-2.88 1.11-1.68.37-3.75.37t-3.75-.37q-1.68-.38-2.89-1.11-1.2-.73-1.85-1.82-.64-1.09-.64-2.52 0-.73.35-1.34.35-.62 1.08-.62h4.09q0 1.29.16 2.13.17.84.59 1.33t1.11.68q.68.2 1.75.2m23.63 42.53q0-.87.32-1.65t.88-1.34 1.35-.9q.78-.34 1.68-.34.89 0 1.66.34t1.35.9q.57.56.91 1.34.33.78.33 1.65 0 .9-.33 1.67-.34.77-.91 1.33-.58.56-1.35.88t-1.66.32q-.9 0-1.68-.32-.79-.32-1.35-.88t-.88-1.33-.32-1.67m40.38-36.68v5.8h-17.42v34.69h-7.56v-40.49zm3.24 36.68q0-.87.33-1.65.32-.78.88-1.34t1.34-.9q.79-.34 1.68-.34.9 0 1.67.34t1.34.9q.58.56.91 1.34.34.78.34 1.65 0 .9-.34 1.67-.33.77-.91 1.33-.57.56-1.34.88t-1.67.32q-.89 0-1.68-.32-.78-.32-1.34-.88t-.88-1.33q-.33-.77-.33-1.67m-292.68 65.83h7.28v5.18h-22.4v-5.18h8.2v-23.6q0-1.4.09-2.89l-5.83 4.87q-.5.4-.99.49-.49.1-.92.02-.44-.09-.77-.3-.34-.21-.51-.46l-2.18-2.99 12.35-10.5h5.68zm32.48 0h7.28v5.18h-22.4v-5.18h8.2v-23.6q0-1.4.09-2.89l-5.83 4.87q-.5.4-.99.49-.49.1-.92.02-.44-.09-.77-.3-.34-.21-.51-.46l-2.18-2.99 12.35-10.5h5.68zm13.19 1.37q0-.87.32-1.65t.88-1.34 1.35-.9q.78-.34 1.68-.34.89 0 1.66.34t1.35.9q.57.56.91 1.34.33.78.33 1.65 0 .9-.33 1.67-.34.77-.91 1.33-.58.56-1.35.88t-1.66.32q-.9 0-1.68-.32-.79-.32-1.35-.88t-.88-1.33-.32-1.67m41.97-16.43q0 5.29-1.13 9.19-1.14 3.91-3.14 6.46t-4.73 3.79q-2.73 1.25-5.9 1.25-3.16 0-5.86-1.25-2.7-1.24-4.69-3.79t-3.11-6.46q-1.12-3.9-1.12-9.19 0-5.32 1.12-9.22 1.12-3.89 3.11-6.44 1.99-2.54 4.69-3.79t5.86-1.25q3.17 0 5.9 1.25t4.73 3.79q2 2.55 3.14 6.44 1.13 3.9 1.13 9.22m-7.14 0q0-4.4-.64-7.28-.65-2.89-1.73-4.6-1.07-1.7-2.47-2.39t-2.92-.69q-1.48 0-2.87.69-1.38.69-2.45 2.39-1.06 1.71-1.69 4.6-.63 2.88-.63 7.28 0 4.39.63 7.28.63 2.88 1.69 4.59 1.07 1.71 2.45 2.39 1.39.69 2.87.69 1.52 0 2.92-.69 1.4-.68 2.47-2.39 1.08-1.71 1.73-4.59.64-2.89.64-7.28m30.24 15.06h7.28v5.18h-22.4v-5.18h8.2v-23.6q0-1.4.09-2.89l-5.83 4.87q-.5.4-.99.49-.49.1-.92.02-.44-.09-.77-.3-.34-.21-.51-.46l-2.18-2.99 12.35-10.5h5.68zm13.19 1.37q0-.87.32-1.65t.88-1.34 1.35-.9q.78-.34 1.68-.34.89 0 1.66.34t1.35.9q.57.56.91 1.34.33.78.33 1.65 0 .9-.33 1.67-.34.77-.91 1.33-.58.56-1.35.88t-1.66.32q-.9 0-1.68-.32-.79-.32-1.35-.88t-.88-1.33-.32-1.67m27.97-2.63h10.39q1.12 0 1.78.63.65.63.65 1.67v4.14h-27.77v-2.3q0-.7.29-1.47.3-.77.94-1.38l12.29-12.32q1.54-1.57 2.76-3t2.03-2.83 1.25-2.84q.43-1.44.43-3.04 0-1.45-.42-2.56-.42-1.1-1.19-1.86t-1.85-1.13q-1.08-.38-2.42-.38-1.23 0-2.28.35t-1.86.98q-.82.63-1.38 1.47t-.84 1.85q-.47 1.28-1.23 1.7-.75.42-2.18.2l-3.64-.64q.42-2.92 1.62-5.11 1.21-2.2 3.01-3.67 1.81-1.47 4.15-2.21 2.33-.75 5.02-.75 2.8 0 5.13.83 2.32.83 3.97 2.34t2.58 3.64q.92 2.13.92 4.73 0 2.24-.66 4.14-.65 1.91-1.76 3.64-1.11 1.74-2.59 3.36-1.48 1.63-3.11 3.31l-9.13 9.32q1.32-.39 2.62-.6t2.48-.21m46.48-13.8q0 5.29-1.13 9.19-1.14 3.91-3.14 6.46t-4.73 3.79q-2.73 1.25-5.9 1.25-3.16 0-5.86-1.25-2.7-1.24-4.69-3.79t-3.11-6.46q-1.12-3.9-1.12-9.19 0-5.32 1.12-9.22 1.12-3.89 3.11-6.44 1.99-2.54 4.69-3.79t5.86-1.25q3.17 0 5.9 1.25t4.73 3.79q2 2.55 3.14 6.44 1.13 3.9 1.13 9.22m-7.14 0q0-4.4-.64-7.28-.65-2.89-1.73-4.6-1.07-1.7-2.47-2.39t-2.92-.69q-1.48 0-2.87.69-1.38.69-2.45 2.39-1.06 1.71-1.69 4.6-.63 2.88-.63 7.28 0 4.39.63 7.28.63 2.88 1.69 4.59 1.07 1.71 2.45 2.39 1.39.69 2.87.69 1.52 0 2.92-.69 1.4-.68 2.47-2.39 1.08-1.71 1.73-4.59.64-2.89.64-7.28m25.62 13.8h10.39q1.12 0 1.78.63.65.63.65 1.67v4.14h-27.77v-2.3q0-.7.29-1.47.3-.77.94-1.38l12.29-12.32q1.54-1.57 2.76-3t2.03-2.83 1.25-2.84q.43-1.44.43-3.04 0-1.45-.42-2.56-.42-1.1-1.19-1.86t-1.85-1.13q-1.08-.38-2.42-.38-1.23 0-2.28.35t-1.86.98q-.82.63-1.38 1.47t-.84 1.85q-.47 1.28-1.23 1.7-.75.42-2.18.2l-3.64-.64q.42-2.92 1.62-5.11 1.21-2.2 3.01-3.67 1.81-1.47 4.15-2.21 2.33-.75 5.02-.75 2.8 0 5.13.83 2.32.83 3.97 2.34t2.58 3.64q.92 2.13.92 4.73 0 2.24-.66 4.14-.65 1.91-1.76 3.64-1.11 1.74-2.59 3.36-1.48 1.63-3.11 3.31l-9.13 9.32q1.32-.39 2.62-.6t2.48-.21m37.1 1.26h7.28v5.18h-22.4v-5.18h8.2v-23.6q0-1.4.09-2.89l-5.83 4.87q-.5.4-.99.49-.49.1-.92.02-.44-.09-.77-.3-.34-.21-.51-.46l-2.18-2.99 12.35-10.5h5.68z"/></svg>