<svg xmlns="http://www.w3.org/2000/svg" width="600" height="400" viewBox="0 0 600 400"><rect width="100%" height="100%" fill="#483D8B"/><path fill="#FFFFFF" d="M136.19 164.07h2.34v16.63h-2.73v-10.74q0-.64.07-1.39l-5.03 9.44q-.35.68-1.09.68h-.44q-.73 0-1.09-.68l-5.08-9.48.06.75q.02.37.02.68v10.74h-2.73v-16.63h2.34q.21 0 .36.01.14.01.27.06.12.05.21.15.1.1.19.28l4.98 9.23q.2.37.37.76.16.39.32.8.16-.42.34-.82.17-.39.36-.76l4.92-9.21q.09-.18.19-.28t.23-.15q.12-.05.27-.06.14-.01.35-.01m11.82 13.58v-1.99q-1.23.06-2.07.22-.84.15-1.34.39-.51.24-.73.57-.21.32-.21.7 0 .74.44 1.07.44.32 1.15.32.88 0 1.52-.32.63-.31 1.24-.96m-6-6.2-.51-.9q2.04-1.87 4.9-1.87 1.04 0 1.86.34.81.34 1.38.94.56.61.85 1.45.3.84.3 1.84v7.45h-1.29q-.41 0-.62-.12-.22-.12-.35-.49l-.25-.85q-.45.4-.88.71-.42.3-.88.51t-.98.31q-.53.11-1.16.11-.75 0-1.38-.2t-1.09-.6-.72-1q-.25-.6-.25-1.39 0-.45.15-.89.15-.45.49-.85t.88-.76 1.33-.62 1.83-.43q1.05-.17 2.39-.2v-.69q0-1.19-.5-1.76-.51-.57-1.46-.57-.69 0-1.15.17-.45.16-.8.36-.34.2-.62.36t-.63.16q-.3 0-.51-.15-.2-.16-.33-.37m24.92-2.55h2.84v11.8h-16.32v-11.8h2.84v9.7h3.9v-9.7h2.84v9.7h3.9zm14.53 0h1.72v11.8h-2.84v-6.89q0-.26.03-.58t.07-.64q-.23.53-.5.93-.03.03-.23.32l-.54.75q-.32.46-.74 1.04-.41.58-.84 1.18-1 1.42-2.26 3.2-.16.24-.42.47t-.6.23h-1.73v-11.8h2.84v6.89q0 .27-.03.58-.03.32-.08.64.26-.56.51-.93.01-.02.22-.31t.53-.75q.33-.46.75-1.04l.84-1.19 2.27-3.2q.16-.25.43-.47.26-.23.6-.23m11.97 0h2.84v11.8h-2.84v-5.22h-4.6v5.22h-2.84v-11.8h2.84v4.47h4.6zm13.1 0h2.84v11.8h-2.84v-5.22h-4.6v5.22h-2.84v-11.8h2.84v4.47h4.6zm10.87-.18q1.32 0 2.39.42 1.08.43 1.84 1.21.77.78 1.18 1.91t.41 2.52q0 1.4-.41 2.53-.41 1.12-1.18 1.92-.76.79-1.84 1.22-1.07.42-2.39.42t-2.4-.42q-1.08-.43-1.84-1.22-.77-.8-1.19-1.92-.42-1.13-.42-2.53 0-1.39.42-2.52t1.19-1.91q.76-.78 1.84-1.21 1.08-.42 2.4-.42m0 9.97q1.48 0 2.18-.99.71-.99.71-2.9t-.71-2.91q-.7-1-2.18-1-1.49 0-2.21 1.01-.72 1-.72 2.9t.72 2.89q.72 1 2.21 1m10.24-5.25H233q0-.55-.16-1.04-.15-.49-.46-.85-.31-.37-.79-.58-.48-.22-1.11-.22-1.23 0-1.94.7-.7.71-.9 1.99m7.24 1.72h-7.3q.07.91.32 1.57.26.66.67 1.09.42.43.98.64.57.22 1.26.22t1.19-.17q.5-.16.88-.35.37-.2.65-.36.29-.16.55-.16.36 0 .53.27l.82 1.03q-.48.55-1.06.93-.59.37-1.23.59-.64.23-1.3.32t-1.28.09q-1.23 0-2.29-.41-1.06-.4-1.84-1.2t-1.23-1.98-.45-2.73q0-1.21.39-2.27.4-1.07 1.13-1.86.73-.78 1.78-1.24t2.37-.46q1.12 0 2.06.35.94.36 1.62 1.04.68.69 1.07 1.68.38 1 .38 2.27 0 .65-.14.87-.13.23-.53.23m13.61-6.44q1.31 0 2.39.42 1.07.43 1.84 1.21.76.78 1.17 1.91.42 1.13.42 2.52 0 1.4-.42 2.53-.41 1.12-1.17 1.92-.77.79-1.84 1.22-1.08.42-2.39.42-1.32 0-2.4-.42-1.09-.43-1.85-1.22-.76-.8-1.18-1.92-.42-1.13-.42-2.53 0-1.39.42-2.52t1.18-1.91 1.85-1.21q1.08-.42 2.4-.42m0 9.97q1.47 0 2.18-.99t.71-2.9-.71-2.91-2.18-1q-1.5 0-2.21 1.01-.72 1-.72 2.9t.72 2.89q.71 1 2.21 1m13.53.11q1.48 0 2.2-.94.73-.94.73-2.76 0-1.81-.71-2.75t-2.16-.94-2.21.89q-.75.89-.75 2.66 0 1.88.71 2.86.72.98 2.19.98m4.14-12.26-3.31.22q-1.08.07-1.84.42-.77.35-1.27.94-.5.6-.76 1.42t-.3 1.82q.29-.45.71-.82t.94-.64 1.14-.42q.61-.15 1.31-.15 1.18 0 2.12.41t1.6 1.17q.67.76 1.02 1.83.35 1.06.35 2.35 0 1.33-.42 2.4t-1.19 1.82q-.76.76-1.84 1.16t-2.4.4q-1.27 0-2.35-.41-1.07-.42-1.85-1.35-.79-.93-1.22-2.42-.44-1.49-.44-3.64 0-1.8.33-3.36.34-1.55 1.1-2.72.75-1.16 1.99-1.88 1.23-.71 3.03-.85l4.2-.32.15 1.47q.04.48-.14.8-.18.33-.66.35m12.36 2.36h2.27l-6.43 15.04q-.12.3-.32.46-.2.15-.62.15h-2.11l2.2-4.74-4.77-10.91h2.5q.33 0 .52.16t.28.37l2.51 6.12q.12.31.21.62t.17.63l.2-.64q.11-.31.23-.62l2.37-6.11q.1-.23.31-.38t.48-.15m10.16 0h2.84v11.8h-2.84v-4.63q-1.52.36-2.82.42-1.3.05-2.24-.32-.95-.36-1.49-1.17-.53-.82-.53-2.18v-3.92h2.84v3.49q0 .72.23 1.16.24.45.75.64.51.2 1.32.16.8-.03 1.94-.26zm7.89 4.54h5.36q0-.55-.16-1.04-.15-.49-.46-.85-.31-.37-.79-.58-.48-.22-1.11-.22-1.23 0-1.94.7-.7.71-.9 1.99m7.25 1.72h-7.31q.07.91.33 1.57.25.66.66 1.09.42.43.99.64.56.22 1.25.22t1.2-.17q.5-.16.87-.35.37-.2.65-.36.29-.16.55-.16.36 0 .53.27l.82 1.03q-.48.55-1.06.93-.59.37-1.23.59-.63.23-1.3.32-.66.09-1.28.09-1.23 0-2.29-.41-1.05-.4-1.84-1.2-.78-.8-1.23-1.98t-.45-2.73q0-1.21.4-2.27.39-1.07 1.12-1.86.73-.78 1.78-1.24t2.37-.46q1.12 0 2.06.35.95.36 1.62 1.04.68.69 1.07 1.68.38 1 .38 2.27 0 .65-.14.87-.13.23-.52.23m10.23-6.26h2.84v11.8h-2.84v-5.22h-4.6v5.22h-2.84v-11.8h2.84v4.47h4.6zm14.54 0h1.72v11.8h-2.84v-6.89q0-.26.03-.58t.07-.64q-.23.53-.5.93-.02.03-.23.32l-.54.75q-.32.46-.74 1.04-.41.58-.84 1.18-1 1.42-2.26 3.2-.16.24-.42.47t-.59.23h-1.74v-11.8h2.84v6.89q0 .27-.03.58-.03.32-.07.64.25-.56.5-.93.01-.02.22-.31l.54-.75q.32-.46.74-1.04l.84-1.19 2.27-3.2q.16-.25.43-.47.26-.23.6-.23m6.77 4.54h5.36q0-.55-.16-1.04-.15-.49-.46-.85-.31-.37-.79-.58-.48-.22-1.11-.22-1.23 0-1.94.7-.7.71-.9 1.99m7.25 1.72h-7.31q.07.91.32 1.57.26.66.67 1.09.42.43.99.64.56.22 1.25.22t1.19-.17q.5-.16.88-.35.37-.2.65-.36.29-.16.55-.16.36 0 .53.27l.82 1.03q-.48.55-1.06.93-.59.37-1.23.59-.64.23-1.3.32t-1.28.09q-1.23 0-2.29-.41-1.06-.4-1.84-1.2t-1.23-1.98-.45-2.73q0-1.21.39-2.27.4-1.07 1.13-1.86.73-.78 1.78-1.24t2.37-.46q1.12 0 2.06.35.94.36 1.62 1.04.68.69 1.07 1.68.38 1 .38 2.27 0 .65-.14.87-.13.23-.52.23m15.82-6.26h2.84v11.8h-2.84v-5.22h-4.6v5.22h-2.84v-11.8h2.84v4.47h4.6zm11.89 8.75v-1.99q-1.23.06-2.07.22-.84.15-1.35.39-.5.24-.72.57-.22.32-.22.7 0 .74.44 1.07.45.32 1.16.32.87 0 1.51-.32.64-.31 1.25-.96m-6-6.2-.51-.9q2.04-1.87 4.9-1.87 1.04 0 1.85.34.82.34 1.38.94.57.61.86 1.45t.29 1.84v7.45h-1.29q-.4 0-.62-.12t-.34-.49l-.26-.85q-.44.4-.87.71-.42.3-.88.51t-.99.31q-.52.11-1.15.11-.75 0-1.38-.2-.64-.2-1.1-.6t-.71-1-.25-1.39q0-.45.15-.89.15-.45.49-.85t.88-.76 1.32-.62q.79-.26 1.84-.43 1.04-.17 2.39-.2v-.69q0-1.19-.51-1.76-.5-.57-1.46-.57-.69 0-1.14.17-.45.16-.8.36-.34.2-.63.36-.28.16-.62.16-.3 0-.51-.15-.21-.16-.33-.37m27.31-2.55v11.8h-2.84v-9.69h-4.6v9.69h-2.84v-11.8zm5.66 3.45v5.29q.48.59 1.05.83t1.24.24q.64 0 1.16-.24t.88-.74q.36-.49.56-1.24.19-.76.19-1.78 0-1.04-.17-1.76-.16-.71-.47-1.16t-.76-.66q-.44-.21-1-.21-.89 0-1.51.38-.62.37-1.17 1.05m-.38-2.93.23 1.09q.72-.82 1.64-1.32.92-.51 2.16-.51.97 0 1.77.4.8.41 1.38 1.17.58.77.9 1.89.31 1.12.31 2.57 0 1.32-.35 2.45-.36 1.12-1.02 1.95t-1.6 1.3q-.94.46-2.1.46-.99 0-1.69-.3-.7-.31-1.25-.85v4.83h-2.84V168.9h1.73q.56 0 .73.52m16.82 8.23v-1.99q-1.23.06-2.07.22-.84.15-1.34.39-.51.24-.73.57-.22.32-.22.7 0 .74.45 1.07.44.32 1.15.32.88 0 1.52-.32.63-.31 1.24-.96m-6-6.2-.51-.9q2.04-1.87 4.9-1.87 1.04 0 1.85.34.82.34 1.38.94.57.61.86 1.45t.29 1.84v7.45h-1.28q-.41 0-.62-.12-.22-.12-.35-.49l-.25-.85q-.45.4-.88.71-.42.3-.88.51t-.99.31q-.52.11-1.15.11-.75 0-1.38-.2t-1.09-.6-.72-1q-.25-.6-.25-1.39 0-.45.15-.89.15-.45.49-.85t.88-.76 1.33-.62q.78-.26 1.83-.43t2.39-.2v-.69q0-1.19-.5-1.76-.51-.57-1.46-.57-.69 0-1.15.17-.45.16-.8.36-.34.2-.62.36-.29.16-.63.16-.3 0-.51-.15-.2-.16-.33-.37m16.48 1.59 2.01-3.39q.21-.33.57-.54.35-.21.75-.21h2.24l-2.75 4.38q-.29.46-.59.74-.3.29-.72.45.57.17.94.51t.67.86l2.76 4.86h-1.97q-.75 0-1.16-.25-.42-.26-.7-.73l-1.74-3.26q-.23-.43-.59-.64-.36-.2-.85-.2h-1.07v5.08h-2.84v-11.8h2.84v4.87h.92q.49 0 .78-.18t.5-.55m17.57-4.14v2.11h-4.21v9.69h-2.84v-9.69h-4.2v-2.11zm10.56 0h1.72v11.8h-2.84v-6.89q0-.26.03-.58t.08-.64q-.23.53-.51.93-.02.03-.23.32t-.53.75q-.33.46-.75 1.04-.41.58-.84 1.18-1 1.42-2.26 3.2-.16.24-.42.47t-.59.23h-1.74v-11.8h2.84v6.89q0 .27-.03.58-.03.32-.07.64.25-.56.5-.93.01-.02.22-.31l.54-.75q.32-.46.74-1.04l.84-1.19 2.27-3.2q.17-.25.43-.47.26-.23.6-.23m9.57 4.14 2.01-3.39q.21-.33.56-.54.36-.21.76-.21h2.23l-2.75 4.38q-.28.46-.58.74-.3.29-.73.45.58.17.95.51.36.34.66.86l2.76 4.86h-1.96q-.75 0-1.17-.25-.41-.26-.7-.73l-1.73-3.26q-.23-.43-.6-.64-.36-.2-.84-.2h-1.07v5.08h-2.84v-11.8h2.84v4.87h.92q.48 0 .78-.18.29-.18.5-.55m9.69.4h5.36q0-.55-.16-1.04-.15-.49-.46-.85-.31-.37-.79-.58-.48-.22-1.11-.22-1.23 0-1.94.7-.7.71-.9 1.99m7.25 1.72h-7.31q.07.91.33 1.57.25.66.66 1.09.42.43.99.64.56.22 1.25.22t1.2-.17q.5-.16.87-.35.37-.2.65-.36.29-.16.55-.16.36 0 .53.27l.82 1.03q-.48.55-1.06.93-.59.37-1.23.59-.63.23-1.3.32-.66.09-1.28.09-1.23 0-2.29-.41-1.05-.4-1.84-1.2-.78-.8-1.23-1.98t-.45-2.73q0-1.21.4-2.27.39-1.07 1.12-1.86.73-.78 1.78-1.24t2.37-.46q1.12 0 2.06.35.95.36 1.62 1.04.68.69 1.07 1.68.38 1 .38 2.27 0 .65-.14.87-.13.23-.52.23m-243.03 26.86h5.29l-2.02-5.53q-.15-.37-.31-.87-.16-.51-.32-1.1-.15.59-.31 1.1-.17.51-.32.89zm4.22-10.35 6.53 16.63h-2.39q-.4 0-.65-.2-.26-.2-.38-.5l-1.24-3.39h-6.89l-1.24 3.39q-.1.26-.36.48-.27.22-.67.22h-2.4l6.53-16.63zm16.65 4.83h1.73v11.8h-2.84v-6.89q0-.26.03-.58t.07-.64q-.23.53-.5.93-.03.03-.23.32l-.54.75q-.33.46-.74 1.04t-.84 1.18q-1 1.42-2.27 3.2-.16.24-.41.47-.26.23-.6.23h-1.73v-11.8h2.84v6.89q0 .27-.03.58-.03.32-.08.64.26-.56.51-.93.01-.02.22-.31t.53-.75q.33-.46.74-1.04.42-.58.84-1.19 1-1.42 2.28-3.2.16-.25.43-.47.26-.23.59-.23m-3.41-2.99q.42 0 .71-.09t.46-.31q.17-.21.24-.57.07-.35.07-.87h1.68q.3 0 .44.25.15.25.15.54 0 .59-.27 1.07-.26.48-.76.8-.49.33-1.18.51t-1.54.18-1.54-.18-1.19-.51q-.49-.32-.76-.8-.26-.48-.26-1.07 0-.29.14-.54.15-.25.45-.25h1.68q0 .52.06.87.07.36.25.57.17.22.45.31t.72.09m11.14 12.77h4.67v-7.61h-2.9q-.11 1.49-.28 2.68-.18 1.19-.41 2.12t-.5 1.62-.58 1.19m7.43-.08h2.16v5.2q0 .4-.22.63-.23.23-.58.23h-1.77v-3.96h-8.83v3.15q0 .3-.19.55-.19.26-.6.26h-1.79v-5.98h.33q.41 0 .78-.11.38-.11.74-.46.35-.34.66-.99.32-.65.57-1.74t.44-2.67q.19-1.59.31-3.81h7.99zm10.18-.95v-1.99q-1.23.06-2.07.22-.84.15-1.35.39-.5.24-.72.57-.22.32-.22.7 0 .74.44 1.07.45.32 1.16.32.87 0 1.51-.32.64-.31 1.25-.96m-6-6.2-.51-.9q2.04-1.87 4.9-1.87 1.03 0 1.85.34t1.38.94q.56.61.86 1.45.29.84.29 1.84v7.45h-1.29q-.4 0-.62-.12t-.34-.49l-.26-.85q-.44.4-.87.71-.43.3-.89.51t-.98.31q-.52.11-1.16.11-.74 0-1.38-.2-.63-.2-1.09-.6t-.71-1-.25-1.39q0-.45.15-.89.15-.45.48-.85.34-.4.88-.76t1.33-.62 1.84-.43q1.04-.17 2.39-.2v-.69q0-1.19-.51-1.76-.5-.57-1.46-.57-.69 0-1.14.17-.46.16-.8.36l-.63.36q-.28.16-.62.16-.3 0-.51-.15-.21-.16-.33-.37m17.94 3.04 4.03 6.21h-2.73q-.32 0-.5-.16-.19-.16-.32-.37l-2.5-4.1q-.05.19-.13.36-.07.18-.17.33l-2.2 3.41q-.13.2-.31.36-.19.17-.46.17h-2.55l4.05-6.08-3.88-5.72h2.73q.31 0 .46.09.15.08.27.28l2.47 3.93q.13-.39.36-.77l1.99-3.1q.25-.43.65-.43h2.61zm10.73-5.77q1.31 0 2.38.42 1.08.43 1.84 1.21.77.78 1.18 1.91t.41 2.52q0 1.4-.41 2.53-.41 1.12-1.18 1.92-.76.79-1.84 1.22-1.07.42-2.38.42-1.33 0-2.41-.42-1.08-.43-1.84-1.22-.77-.8-1.19-1.92-.42-1.13-.42-2.53 0-1.39.42-2.52t1.19-1.91q.76-.78 1.84-1.21 1.08-.42 2.41-.42m0 9.97q1.47 0 2.17-.99.71-.99.71-2.9t-.71-2.91q-.7-1-2.17-1-1.5 0-2.22 1.01-.72 1-.72 2.9t.72 2.89q.72 1 2.22 1m23.78-5.01 4.36 7.02h-2.81q-.44 0-.73-.23t-.55-.68l-3.54-5.59q-.14-.24-.29-.39-.16-.16-.34-.26-.17-.1-.4-.13-.22-.03-.51-.03h-1.85v7.31h-3.09v-16.63h3.09v6.97h1.56q.47 0 .82-.16.34-.16.64-.6l3.65-5.38q.23-.37.54-.6t.75-.23h2.64l-4.52 6.67q-.29.44-.66.73-.38.28-.84.44.69.2 1.16.62.48.42.92 1.15m5.39 5.46q0-.36.13-.68.14-.32.37-.55t.55-.37.69-.14.68.14q.32.14.55.37.24.23.38.55t.14.68-.14.68-.38.55q-.23.23-.55.36-.31.13-.68.13t-.69-.13-.55-.36-.37-.55q-.13-.32-.13-.68m24.67-5.49 4.33 7.05h-2.05q-.68 0-1.16-.29-.48-.3-.77-.78l-3.4-5.32q-.31-.51-.69-.72-.38-.2-.97-.2h-1.75v7.31h-2.91v-7.31h-1.76q-.58 0-.96.2-.39.21-.69.72l-3.4 5.32q-.29.48-.77.78-.49.29-1.15.29h-2.07l4.34-7.05q.41-.7.88-1.12.48-.41 1.09-.62-.51-.19-.87-.54t-.69-.88l-4.29-6.42h2.45q.47 0 .87.23.39.23.63.64l3.41 5.27q.31.51.68.67.36.16.84.16h1.46v-6.97h2.91v6.97h1.47q.47 0 .83-.16t.69-.67l3.39-5.27q.24-.41.64-.64.39-.23.88-.23h2.43l-4.29 6.42q-.33.53-.69.88-.35.35-.87.54.62.21 1.1.62.48.42.88 1.12m5.36 5.49q0-.36.13-.68t.36-.55.55-.37q.33-.14.69-.14.37 0 .69.14.31.14.55.37t.37.55q.14.32.14.68t-.14.68q-.13.32-.37.55t-.55.36q-.32.13-.69.13-.36 0-.69-.13-.32-.13-.55-.36t-.36-.55-.13-.68m-114.37 27.03h2.99v2.13h-9.2v-2.13h3.37v-9.69q0-.58.03-1.19l-2.39 2q-.21.17-.41.21t-.38 0q-.17-.03-.31-.12t-.21-.19l-.9-1.23 5.08-4.31h2.33zm17.19-6.18q0 2.17-.46 3.77-.47 1.61-1.29 2.65-.82 1.05-1.94 1.56-1.13.51-2.43.51t-2.4-.51q-1.11-.51-1.93-1.56-.82-1.04-1.28-2.65-.46-1.6-.46-3.77 0-2.19.46-3.79t1.28-2.64q.82-1.05 1.93-1.56 1.1-.51 2.4-.51t2.43.51q1.12.51 1.94 1.56.82 1.04 1.29 2.64.46 1.6.46 3.79m-2.93 0q0-1.81-.26-2.99-.27-1.19-.71-1.89t-1.02-.98q-.57-.29-1.2-.29-.61 0-1.17.29-.57.28-1.01.98t-.7 1.89q-.26 1.18-.26 2.99 0 1.8.26 2.99.26 1.18.7 1.88t1.01.98q.56.29 1.17.29.63 0 1.2-.29.58-.28 1.02-.98t.71-1.88q.26-1.19.26-2.99m4.5 6.75q0-.36.13-.68t.36-.55.55-.37.69-.14.69.14q.31.14.55.37.23.23.37.55t.14.68-.14.68-.37.55q-.24.23-.55.36-.32.13-.69.13t-.69-.13-.55-.36-.36-.55-.13-.68m17.23-6.75q0 2.17-.46 3.77-.47 1.61-1.29 2.65-.82 1.05-1.94 1.56t-2.42.51-2.41-.51-1.93-1.56q-.82-1.04-1.28-2.65-.46-1.6-.46-3.77 0-2.19.46-3.79t1.28-2.64q.82-1.05 1.93-1.56t2.41-.51 2.42.51 1.94 1.56q.82 1.04 1.29 2.64.46 1.6.46 3.79m-2.93 0q0-1.81-.26-2.99-.27-1.19-.71-1.89t-1.02-.98q-.57-.29-1.19-.29-.61 0-1.18.29-.57.28-1.01.98t-.69 1.89q-.26 1.18-.26 2.99 0 1.8.26 2.99.25 1.18.69 1.88t1.01.98q.57.29 1.18.29.62 0 1.19-.29.58-.28 1.02-.98t.71-1.88q.26-1.19.26-2.99m8.77-5.74-.59 3.46q.55-.12 1.06-.17.5-.05.97-.05 1.32 0 2.32.39t1.67 1.08q.68.69 1.03 1.62.34.92.34 1.99 0 1.33-.46 2.42-.47 1.09-1.3 1.87-.82.77-1.96 1.2-1.13.42-2.46.42-.79 0-1.49-.16t-1.31-.43q-.62-.27-1.14-.62-.53-.35-.94-.74l.87-1.21q.28-.39.73-.39.29 0 .59.18.29.19.68.41.38.22.91.4.52.18 1.26.18.78 0 1.38-.25t.99-.71q.4-.45.6-1.08.2-.62.2-1.36 0-1.36-.79-2.12-.78-.77-2.33-.77-1.18 0-2.42.44l-1.77-.51 1.38-8.07h8.21v1.21q0 .61-.38.99t-1.29.38zm9.07 12.49q0-.36.13-.68t.36-.55.56-.37q.32-.14.69-.14.36 0 .68.14t.55.37q.24.23.38.55.13.32.13.68t-.13.68q-.14.32-.38.55-.23.23-.55.36t-.68.13q-.37 0-.69-.13-.33-.13-.56-.36t-.36-.55-.13-.68m11.49-1.09h4.26q.46 0 .73.26t.27.69v1.7h-11.4v-.94q0-.29.12-.61.12-.31.38-.57l5.05-5.06q.63-.64 1.13-1.23.5-.58.84-1.16.33-.57.51-1.17.18-.59.18-1.24 0-.6-.18-1.06-.17-.45-.48-.76-.32-.31-.76-.47-.45-.15-1-.15-.5 0-.93.14-.44.15-.77.41-.33.25-.56.6-.23.34-.35.76-.19.53-.5.7t-.9.08l-1.5-.26q.18-1.2.67-2.1.5-.91 1.24-1.51t1.7-.91q.96-.3 2.06-.3 1.15 0 2.11.34.95.34 1.63.96t1.06 1.49q.38.88.38 1.95 0 .91-.27 1.7-.27.78-.73 1.49-.45.71-1.06 1.38t-1.28 1.36l-3.75 3.83q.54-.16 1.08-.25.53-.09 1.02-.09m19.09-5.66q0 2.17-.47 3.77-.46 1.61-1.29 2.65-.82 1.05-1.94 1.56t-2.42.51-2.41-.51-1.93-1.56q-.81-1.04-1.27-2.65-.46-1.6-.46-3.77 0-2.19.46-3.79t1.27-2.64q.82-1.05 1.93-1.56t2.41-.51 2.42.51 1.94 1.56q.83 1.04 1.29 2.64.47 1.6.47 3.79m-2.94 0q0-1.81-.26-2.99-.26-1.19-.71-1.89-.44-.7-1.01-.98-.58-.29-1.2-.29-.61 0-1.18.29-.57.28-1.01.98-.43.7-.69 1.89-.26 1.18-.26 2.99 0 1.8.26 2.99.26 1.18.69 1.88.44.7 1.01.98.57.29 1.18.29.62 0 1.2-.29.57-.28 1.01-.98.45-.7.71-1.88.26-1.19.26-2.99m10.53 5.66h4.26q.46 0 .73.26t.27.69v1.7h-11.4v-.94q0-.29.12-.61.12-.31.38-.57l5.05-5.06q.63-.64 1.13-1.23.5-.58.84-1.16.33-.57.51-1.17.18-.59.18-1.24 0-.6-.18-1.06-.17-.45-.48-.76-.32-.31-.76-.47-.45-.15-1-.15-.5 0-.93.14-.44.15-.77.41-.33.25-.56.6-.23.34-.35.76-.19.53-.5.7t-.9.08l-1.5-.26q.18-1.2.67-2.1.5-.91 1.24-1.51t1.7-.91q.96-.3 2.06-.3 1.15 0 2.11.34.95.34 1.63.96t1.06 1.49q.38.88.38 1.95 0 .91-.27 1.7-.27.78-.73 1.49-.45.71-1.06 1.38t-1.28 1.36l-3.75 3.83q.54-.16 1.08-.25.53-.09 1.02-.09m9.06-9.08-1.5-.26q.18-1.2.67-2.1.5-.91 1.24-1.51t1.7-.91q.96-.3 2.06-.3 1.15 0 2.08.32.93.33 1.58.91.66.58 1.01 1.37.35.78.35 1.69 0 .79-.18 1.39-.18.61-.51 1.06-.34.44-.83.75-.49.32-1.12.52 1.5.47 2.24 1.44.73.97.73 2.43 0 1.24-.46 2.19-.46.96-1.24 1.61t-1.81.98-2.18.33q-1.25 0-2.19-.28-.93-.29-1.62-.85-.69-.57-1.17-1.38-.48-.82-.83-1.89l1.25-.52q.5-.21.93-.11t.63.47q.2.4.45.79t.59.7q.35.3.81.49.47.19 1.11.19.73 0 1.27-.23.54-.24.9-.62t.54-.84q.18-.47.18-.94 0-.6-.13-1.09-.12-.49-.52-.83-.41-.35-1.16-.54-.75-.2-2.02-.2v-2.02q1.05-.01 1.74-.2.69-.18 1.1-.51.4-.33.57-.79.16-.46.16-1.01 0-1.17-.66-1.78-.65-.61-1.75-.61-.5 0-.93.14-.42.15-.76.41-.34.25-.57.6-.23.34-.35.76-.19.53-.51.7t-.89.08"/></svg>